<svg xmlns:dc="http://purl.org/dc/elements/1.1/" xmlns:cc="http://creativecommons.org/ns#" xmlns:rdf="http://www.w3.org/1999/02/22-rdf-syntax-ns#" xmlns:svg="http://www.w3.org/2000/svg" xmlns="http://www.w3.org/2000/svg" xmlns:sodipodi="http://sodipodi.sourceforge.net/DTD/sodipodi-0.dtd" xmlns:inkscape="http://www.inkscape.org/namespaces/inkscape" version="1.1" id="Capa_1" x="0" y="0" viewBox="0 0 337.85 337.85" xml:space="preserve" inkscape:version="0.48" width="100" height="100" sodipodi:docname="cellphone107.svg" enable-background="new 0 0 337.854 337.854">
  <metadata id="metadata43">
    <rdf:RDF>
      <cc:Work rdf:about="">
        <dc:format>
          image/svg+xml
        </dc:format>
        <dc:type rdf:resource="http://purl.org/dc/dcmitype/StillImage"/>
      </cc:Work>
    </rdf:RDF>
  </metadata>
  <defs id="defs41"/>
  <sodipodi:namedview pagecolor="#ffffff" bordercolor="#666666" borderopacity="1" objecttolerance="10" gridtolerance="10" guidetolerance="10" inkscape:pageopacity="0" inkscape:pageshadow="2" inkscape:window-width="1871" inkscape:window-height="1056" id="namedview39" showgrid="false" inkscape:zoom="0.7" inkscape:cx="168.93" inkscape:cy="168.93" inkscape:window-x="49" inkscape:window-y="24" inkscape:window-maximized="1" inkscape:current-layer="Capa_1"/>
  <g id="g3" style="fill:#fff;stroke:#fff">
    <path d="M260.42 0H77.43c-5.52 0-10 4.48-10 10v317.85c0 5.52 4.48 10 10 10h182.99c5.52 0 10-4.48 10-10V10C270.42 4.48 265.95 0 260.42 0zM178.93 302.59c0 5.52-4.48 10-10 10 -5.52 0-10-4.48-10-10v-3.36h20V302.59zM250.42 279.23H87.43V58.62h162.99V279.23z" id="path5" style="fill:#fff;stroke:#fff"/>
    <path d="M118.5 229.16c4.04 4.04 9.41 6.27 15.13 6.27 5.72 0 11.09-2.23 15.13-6.27l29.66-29.66c4.09-4.09 6.16-9.44 6.24-14.82 5.6-0.08 10.86-2.28 14.83-6.25l29.66-29.66c4.04-4.04 6.27-9.42 6.27-15.13 0-5.72-2.23-11.09-6.27-15.13l-9.81-9.81c-4.04-4.04-9.41-6.27-15.13-6.27 -5.72 0-11.09 2.23-15.13 6.27l-29.66 29.66c-4.09 4.09-6.16 9.44-6.24 14.82 -5.6 0.08-10.86 2.28-14.83 6.25l-29.66 29.66c-4.04 4.04-6.27 9.42-6.27 15.14 0 5.72 2.23 11.09 6.27 15.13L118.5 229.16zM168.62 147.55l29.66-29.66c1.59-1.59 3.7-2.46 5.94-2.46 2.24 0 4.35 0.87 5.94 2.46l9.81 9.81c1.59 1.59 2.46 3.69 2.46 5.94 0 2.24-0.87 4.35-2.46 5.94l-29.66 29.66c-1.59 1.59-3.7 2.46-5.94 2.46 -2.24 0-4.35-0.87-5.94-2.46l-0.31-0.31 19.6-19.6c2.54-2.54 2.54-6.65 0-9.19 -2.54-2.54-6.65-2.54-9.19 0l-19.6 19.6 -0.31-0.31C165.34 156.15 165.35 150.82 168.62 147.55zM117.89 198.28l29.66-29.66c1.59-1.59 3.7-2.46 5.94-2.46 2.24 0 4.35 0.87 5.93 2.46 0 0 0 0 0.01 0.01l0.31 0.31 -19.6 19.6c-2.54 2.54-2.54 6.65 0 9.19 1.27 1.27 2.93 1.9 4.6 1.9s3.33-0.63 4.6-1.9l19.6-19.6 0.31 0.31c3.27 3.27 3.27 8.6 0 11.88l-29.66 29.66c-1.59 1.59-3.7 2.46-5.94 2.46 -2.24 0-4.35-0.87-5.94-2.46l-9.81-9.81c-1.59-1.59-2.46-3.69-2.46-5.94C115.43 201.98 116.3 199.87 117.89 198.28z" id="path7" style="fill:#fff;stroke:#fff"/>
  </g>
  <g id="g9"/>
  <g id="g11"/>
  <g id="g13"/>
  <g id="g15"/>
  <g id="g17"/>
  <g id="g19"/>
  <g id="g21"/>
  <g id="g23"/>
  <g id="g25"/>
  <g id="g27"/>
  <g id="g29"/>
  <g id="g31"/>
  <g id="g33"/>
  <g id="g35"/>
  <g id="g37"/>
</svg>
