<?xml version="1.0" encoding="UTF-8" standalone="no"?>
<!-- Created with Inkscape (http://www.inkscape.org/) -->

<svg
   xmlns:dc="http://purl.org/dc/elements/1.1/"
   xmlns:cc="http://creativecommons.org/ns#"
   xmlns:rdf="http://www.w3.org/1999/02/22-rdf-syntax-ns#"
   xmlns:svg="http://www.w3.org/2000/svg"
   xmlns="http://www.w3.org/2000/svg"
   version="1.1"
   width="100%"
   height="100%"
   viewBox="0 0 376.037 376.037"
   id="Capa_1"
   xml:space="preserve"><metadata
     id="metadata53"><rdf:RDF><cc:Work
         rdf:about=""><dc:format>image/svg+xml</dc:format><dc:type
           rdf:resource="http://purl.org/dc/dcmitype/StillImage" /><dc:title></dc:title></cc:Work></rdf:RDF></metadata><defs
     id="defs51" /><g
     id="g3"
     style="fill:#ffffff"><path
       d="m 229.744,296.688 h -82.336 c -3.902,0 -7.077,-3.175 -7.077,-7.077 v -36.517 c 0,-1.933 -1.567,-3.5 -3.5,-3.5 h -12 c -1.934,0 -3.5,1.567 -3.5,3.5 v 36.517 c 0,14.379 11.698,26.077 26.077,26.077 h 82.336 c 1.933,0 3.5,-1.566 3.5,-3.5 v -12 c 0,-1.933 -1.567,-3.5 -3.5,-3.5 z"
       id="path5"
       style="fill:#ffffff" /><path
       d="m 256.517,86.439 h 36.518 c 3.902,0 7.077,3.175 7.077,7.078 v 82.335 c 0,1.934 1.566,3.5 3.5,3.5 h 12 c 1.933,0 3.5,-1.566 3.5,-3.5 V 93.518 c 0,-14.38 -11.698,-26.078 -26.077,-26.078 h -36.518 c -1.933,0 -3.5,1.567 -3.5,3.5 v 12 c 0,1.933 1.567,3.499 3.5,3.499 z"
       id="path7"
       style="fill:#ffffff" /><path
       d="m 350.717,199.641 h -72.21 c -13.962,0 -25.321,11.358 -25.321,25.322 v 24.657 0.071 28.103 0.075 28.173 c 0,0.01 0,0.018 0,0.025 v 28.25 c 0,13.964 11.359,25.322 25.321,25.322 h 72.21 c 13.961,0 25.32,-11.358 25.32,-25.322 v -28.25 c 0,-0.008 0,-0.016 0,-0.025 v -28.172 -0.075 -28.103 -0.071 -24.657 c 0,-13.965 -11.359,-25.323 -25.32,-25.323 z m -63.424,17.714 c 7.363,-4.795 17.065,-7.436 27.318,-7.436 10.253,0 19.955,2.641 27.317,7.436 7.972,5.189 12.36,12.289 12.36,19.992 0,7.704 -4.389,14.805 -12.36,19.994 -7.362,4.795 -17.065,7.436 -27.317,7.436 -10.253,0 -19.955,-2.641 -27.318,-7.436 -7.972,-5.189 -12.36,-12.29 -12.36,-19.994 0,-7.702 4.388,-14.802 12.36,-19.992 z m 79.602,116.963 c 0,8.922 -7.257,16.179 -16.178,16.179 h -72.21 c -8.922,0 -16.179,-7.257 -16.179,-16.179 v -8.783 c 4.39,3.655 10.032,5.855 16.179,5.855 h 72.21 c 6.146,0 11.787,-2.2 16.178,-5.855 v 8.783 z m 0,-28.275 c 0,8.922 -7.257,16.18 -16.178,16.18 h -72.21 c -8.922,0 -16.179,-7.258 -16.179,-16.18 v -8.711 c 4.391,3.656 10.031,5.859 16.179,5.859 h 72.21 c 6.147,0 11.787,-2.203 16.178,-5.859 v 8.711 z m 0,-28.248 c 0,8.92 -7.257,16.178 -16.178,16.178 h -72.21 c -8.922,0 -16.179,-7.258 -16.179,-16.178 v -8.643 c 4.391,3.656 10.031,5.859 16.179,5.859 h 72.21 c 6.147,0 11.787,-2.203 16.178,-5.859 v 8.643 z"
       id="path9"
       style="fill:#ffffff" /><path
       d="m 314.611,246.492 c 7.744,0 14.043,-4.102 14.043,-9.145 0,-5.039 -6.299,-9.141 -14.043,-9.141 -7.744,0 -14.043,4.102 -14.043,9.141 0,5.044 6.299,9.145 14.043,9.145 z"
       id="path11"
       style="fill:#ffffff" /><path
       d="M 225.595,16.396 H 13.318 C 5.975,16.396 0,22.371 0,29.715 V 154.194 H 238.913 V 29.715 c 0,-7.344 -5.975,-13.319 -13.318,-13.319 z m -1.204,123.277 H 14.521 V 30.918 H 224.39 v 108.755 z"
       id="path13"
       style="fill:#ffffff" /><path
       d="m 0,175.771 c 0,7.343 5.975,13.317 13.318,13.317 h 75.489 0.535 c 0.246,4.205 0.176,10.191 -1.241,16.664 -2.252,10.289 -7.164,18.411 -14.603,24.137 -1.231,0.949 -1.724,2.575 -1.223,4.047 0.501,1.471 1.883,2.461 3.437,2.461 h 87.486 c 0.005,0 0.011,0 0.015,0 2.005,0 3.63,-1.626 3.63,-3.631 0,-1.261 -0.643,-2.371 -1.617,-3.021 -7.333,-5.718 -12.184,-13.789 -14.416,-23.992 -1.417,-6.473 -1.487,-12.459 -1.24,-16.664 h 0.534 75.49 c 7.344,0 13.318,-5.975 13.318,-13.317 V 161.456 H 0 v 14.315 z m 119.456,-8.484 c 4.214,0 7.627,3.414 7.627,7.628 0,4.212 -3.413,7.626 -7.627,7.626 -4.213,0 -7.626,-3.414 -7.626,-7.626 0,-4.214 3.413,-7.628 7.626,-7.628 z"
       id="path15"
       style="fill:#ffffff" /><path
       d="m 115.412,117.909 0,0 c 0.134,0.021 0.268,0.039 0.401,0.06 v -7.803 c 0,-2.008 1.634,-3.643 3.643,-3.643 2.009,0 3.643,1.635 3.643,3.643 v 7.803 c 0.134,-0.021 0.269,-0.038 0.401,-0.06 11.494,-1.962 19.835,-11.861 19.835,-23.536 0,-5.771 -2.057,-11.067 -5.476,-15.2 v -8.147 c 0,-10.148 -8.255,-18.403 -18.403,-18.403 -10.147,0 -18.402,8.255 -18.402,18.403 v 8.147 c -3.419,4.133 -5.476,9.43 -5.476,15.2 0,11.675 8.341,21.574 19.834,23.536 z m -7.195,-46.884 c 0,-6.197 5.042,-11.24 11.239,-11.24 6.198,0 11.239,5.043 11.239,11.24 v 2.286 c -3.352,-1.796 -7.178,-2.818 -11.239,-2.818 -4.06,0 -7.887,1.022 -11.239,2.818 v -2.286 z"
       id="path17"
       style="fill:#ffffff" /></g><g
     id="g19" /><g
     id="g21" /><g
     id="g23" /><g
     id="g25" /><g
     id="g27" /><g
     id="g29" /><g
     id="g31" /><g
     id="g33" /><g
     id="g35" /><g
     id="g37" /><g
     id="g39" /><g
     id="g41" /><g
     id="g43" /><g
     id="g45" /><g
     id="g47" /></svg>