<?xml version="1.0" encoding="UTF-8" standalone="no"?>
<!-- Created with Inkscape (http://www.inkscape.org/) -->

<svg
   xmlns:dc="http://purl.org/dc/elements/1.1/"
   xmlns:cc="http://creativecommons.org/ns#"
   xmlns:rdf="http://www.w3.org/1999/02/22-rdf-syntax-ns#"
   xmlns:svg="http://www.w3.org/2000/svg"
   xmlns="http://www.w3.org/2000/svg"
   version="1.1"
   width="100%"
   height="100%"
   viewBox="0 0 476.842 476.842"
   id="Capa_1"
   xml:space="preserve"><metadata
     id="metadata45"><rdf:RDF><cc:Work
         rdf:about=""><dc:format>image/svg+xml</dc:format><dc:type
           rdf:resource="http://purl.org/dc/dcmitype/StillImage" /><dc:title></dc:title></cc:Work></rdf:RDF></metadata><defs
     id="defs43" /><g
     id="g3"
     style="fill:#ffffff"><path
       d="m 358.327,365.962 c 0,1.397 -1.132,2.537 -2.528,2.537 H 34.495 c -1.397,0 -2.528,-1.14 -2.528,-2.537 V 147.926 c 0,-1.396 1.131,-2.536 2.528,-2.536 H 230.446 V 113.423 H 34.495 C 15.477,113.423 0,128.899 0,147.926 v 218.037 c 0,19.028 15.477,34.503 34.495,34.503 H 142.21 v 42.253 h -16.982 c -8.828,0 -15.983,7.155 -15.983,15.983 0,8.826 7.155,15.983 15.983,15.983 h 139.853 c 8.826,0 15.983,-7.157 15.983,-15.983 0,-8.828 -7.157,-15.983 -15.983,-15.983 h -16.982 v -42.253 h 107.7 c 19.018,0 34.495,-15.475 34.495,-34.503 v -48.386 h -31.966 v 48.385 z"
       id="path5"
       style="fill:#ffffff" /><path
       d="M 439.413,2.158 H 299.841 c -20.642,0 -37.429,16.787 -37.429,37.43 v 136.801 l 31.966,31.967 V 39.587 c 0,-3.013 2.45,-5.463 5.463,-5.463 h 139.572 c 3.013,0 5.463,2.45 5.463,5.463 V 233.313 H 308.27 c 0.172,1.46 0.43,2.912 0.43,4.402 0,9.7 -3.778,18.823 -10.639,25.677 l -13.985,13.985 -2.997,3.003 c 5.534,3.24 11.895,5.229 18.763,5.229 h 139.572 c 20.642,0 37.429,-16.787 37.429,-37.429 V 39.587 C 476.842,18.945 460.055,2.158 439.413,2.158 z m -69.786,243.197 c 7.164,0 12.986,5.814 12.986,12.986 0,7.174 -5.822,12.987 -12.986,12.987 -7.18,0 -12.986,-5.813 -12.986,-12.987 0,-7.172 5.806,-12.986 12.986,-12.986 z"
       id="path7"
       style="fill:#ffffff" /><path
       d="m 218.872,293.578 c 0.537,0.227 1.1,0.328 1.662,0.328 1.132,0 2.247,-0.437 3.082,-1.272 l 51.845,-51.843 c 1.693,-1.694 1.693,-4.456 0,-6.15 l -51.845,-51.843 c -0.835,-0.836 -1.95,-1.273 -3.082,-1.273 -0.563,0 -1.125,0.101 -1.662,0.328 -1.624,0.671 -2.685,2.255 -2.685,4.02 v 29.36 c -57.549,5.345 -102.611,53.724 -102.611,112.67 0,1.029 0.015,2.052 0.039,3.067 0.063,2.044 1.538,3.761 3.544,4.129 0.257,0.046 0.515,0.07 0.764,0.07 1.732,0 3.332,-1.045 4.003,-2.693 15.563,-38.233 51.485,-65.736 94.261,-69.74 v 26.825 c 0,1.761 1.061,3.345 2.685,4.017 z"
       id="path9"
       style="fill:#ffffff" /></g><g
     id="g11" /><g
     id="g13" /><g
     id="g15" /><g
     id="g17" /><g
     id="g19" /><g
     id="g21" /><g
     id="g23" /><g
     id="g25" /><g
     id="g27" /><g
     id="g29" /><g
     id="g31" /><g
     id="g33" /><g
     id="g35" /><g
     id="g37" /><g
     id="g39" /></svg>