<?xml version="1.0" encoding="UTF-8" standalone="no"?>
<!-- Created with Inkscape (http://www.inkscape.org/) -->

<svg
   xmlns:dc="http://purl.org/dc/elements/1.1/"
   xmlns:cc="http://creativecommons.org/ns#"
   xmlns:rdf="http://www.w3.org/1999/02/22-rdf-syntax-ns#"
   xmlns:svg="http://www.w3.org/2000/svg"
   xmlns="http://www.w3.org/2000/svg"
   version="1.1"
   width="512"
   height="512"
   viewBox="0 0 512 512"
   id="Capa_1"
   xml:space="preserve"><metadata
     id="metadata41"><rdf:RDF><cc:Work
         rdf:about=""><dc:format>image/svg+xml</dc:format><dc:type
           rdf:resource="http://purl.org/dc/dcmitype/StillImage" /><dc:title></dc:title></cc:Work></rdf:RDF></metadata><defs
     id="defs39" /><g
     id="g3"
     style="fill:#ffffff"><path
       d="M 256,0 C 114.625,0 0,114.625 0,256 0,397.375 114.625,512 256,512 397.406,512 512,397.375 512,256 512,114.625 397.406,0 256,0 z m 69.812,354.844 c -12.594,14.125 -30.78,22.438 -54.562,24.938 V 416 h -30.313 v -36.031 c -39.656,-4.062 -64.188,-27.125 -73.656,-69.125 l 46.875,-12.219 c 4.344,26.406 18.719,39.594 43.125,39.594 11.406,0 19.844,-2.812 25.219,-8.469 5.375,-5.657 8.062,-12.469 8.062,-20.469 0,-8.281 -2.688,-14.563 -8.062,-18.813 -5.375,-4.28 -17.344,-9.688 -35.875,-16.25 -16.656,-5.78 -29.688,-11.469 -39.063,-17.155 -9.375,-5.625 -17,-13.531 -22.844,-23.688 -5.844,-10.188 -8.781,-22.063 -8.781,-35.563 0,-17.719 5.25,-33.688 15.688,-47.875 10.438,-14.156 26.875,-22.813 49.313,-25.969 V 96 h 30.313 v 27.969 c 33.875,4.063 55.813,23.219 65.781,57.5 l -41.75,17.125 c -8.156,-23.5 -20.72,-35.25 -37.781,-35.25 -8.563,0 -15.438,2.625 -20.594,7.875 -5.188,5.25 -7.781,11.625 -7.781,19.094 0,7.625 2.5,13.469 7.5,17.563 4.969,4.063 15.688,9.094 32.063,15.125 18,6.563 32.125,12.781 42.344,18.625 10.25,5.844 18.406,13.938 24.531,24.219 6.094,10.313 9.155,22.345 9.155,36.126 0,21.154 -6.313,38.779 -18.907,52.873 z"
       id="path5"
       style="fill:#ffffff" /></g><g
     id="g7" /><g
     id="g9" /><g
     id="g11" /><g
     id="g13" /><g
     id="g15" /><g
     id="g17" /><g
     id="g19" /><g
     id="g21" /><g
     id="g23" /><g
     id="g25" /><g
     id="g27" /><g
     id="g29" /><g
     id="g31" /><g
     id="g33" /><g
     id="g35" /></svg>