<svg xmlns:dc="http://purl.org/dc/elements/1.1/" xmlns:cc="http://creativecommons.org/ns#" xmlns:rdf="http://www.w3.org/1999/02/22-rdf-syntax-ns#" xmlns:svg="http://www.w3.org/2000/svg" xmlns="http://www.w3.org/2000/svg" xmlns:xlink="http://www.w3.org/1999/xlink" version="1.1" width="72" height="72" viewBox="0 0 72.000001 71.999998" id="&#47112;&#51060;&#50612;_1" xml:space="preserve"><style>.style0{fill:	#1baba6;}.style1{opacity:	0.37000002;}.style2{overflow:	visible;}.style3{fill:	#009e98;clip-path:	url(#SVGID_2_);}.style4{fill:	#ffffff;}</style><metadata id="metadata23"><rdf:RDF><cc:Work rdf:about=""><dc:format>image/svg+xml</dc:format><dc:type rdf:resource="http://purl.org/dc/dcmitype/StillImage"/><dc:title/></cc:Work></rdf:RDF></metadata><defs id="defs21"/><path d="m 36 72 c 19.9 0 36 -16.1 36 -36 C 72 16.1 55.9 -0 36 -0 16.1 -0 0 16.1 0 36 c 0 19.9 16.1 36 36 36" id="path3" class="style0"/><g transform="translate(-261.2,-385.60002)" id="g5" class="style1"><g id="g7"><defs id="defs9"><rect width="56" height="56.4" x="261.3" y="400.3" id="SVGID_1_"/></defs><clipPath id="SVGID_2_"><use id="use13" x="0" y="0" width="595.3" height="841.9" xlink:href="#SVGID_1_" class="style2"/></clipPath><path d="m 289.4 456.7 27.9 -30.7 -22.3 2.1 -9.3 -27.9 -24.3 24.6 c 1.4 15.8 12.9 28.6 28 31.9" id="path15" class="style3"/></g></g><polygon points="36,24.4 24.5,14.7 26.9,40.4 15.8,40.4 36,57.2 56.1,40.4 45.1,40.4 47.5,14.7" id="polygon17" class="style4"/></svg>