<?xml version="1.0" encoding="UTF-8" standalone="no"?>
<!-- Created with Inkscape (http://www.inkscape.org/) -->

<svg
   xmlns:dc="http://purl.org/dc/elements/1.1/"
   xmlns:cc="http://creativecommons.org/ns#"
   xmlns:rdf="http://www.w3.org/1999/02/22-rdf-syntax-ns#"
   xmlns:svg="http://www.w3.org/2000/svg"
   xmlns="http://www.w3.org/2000/svg"
   version="1.1"
   width="32.950001"
   height="34.999001"
   viewBox="0 0 32.95 34.999"
   id="Capa_1"
   xml:space="preserve"><metadata
     id="metadata39"><rdf:RDF><cc:Work
         rdf:about=""><dc:format>image/svg+xml</dc:format><dc:type
           rdf:resource="http://purl.org/dc/dcmitype/StillImage" /><dc:title></dc:title></cc:Work></rdf:RDF></metadata><defs
     id="defs37" /><path
     d="M 32.739,10.466 H 20.331 V 2.364 C 20.331,1.063 19.268,0 17.968,0 H 2.364 C 1.063,0 0,1.063 0,2.364 v 30.271 c 0,1.301 1.063,2.364 2.364,2.364 h 15.604 c 1.3,0 2.363,-1.063 2.363,-2.364 v -6.984 h 5.662 1.268 l 0.07,-0.189 5.16,-13.77 0.459,-1.227 -0.211,10e-4 0,0 z m -20.435,2.08 4.133,4.541 -8.475,7.048 4.342,-11.589 z m 0.89,-0.982 H 30.918 L 19.473,18.459 13.194,11.564 z M 7.669,1.705 h 4.992 c 0.158,0 0.287,0.128 0.287,0.286 0,0.157 -0.129,0.286 -0.287,0.286 H 7.669 c -0.158,0 -0.285,-0.129 -0.285,-0.286 0,-0.158 0.127,-0.286 0.285,-0.286 z m 2.496,32.114 c -0.652,0 -1.182,-0.529 -1.182,-1.183 0,-0.652 0.529,-1.182 1.182,-1.182 0.653,0 1.183,0.529 1.183,1.182 0,0.654 -0.53,1.183 -1.183,1.183 z m 8.521,-3.193 H 1.644 V 3.75 h 17.042 v 6.717 h -6.491 -0.21 l -0.298,0.794 H 3.451 v 1.813 h 7.557 l -0.605,1.615 H 5.929 v 1.36 H 9.893 L 9.381,17.415 H 6.775 v 1.104 h 2.192 l -2.601,6.94 -0.071,0.191 h 1.267 11.125 l -0.001,4.976 0,0 z m -9.804,-6.072 8.169,-6.793 1.901,2.088 3.465,-2.088 3.079,6.793 H 8.882 z m 17.849,-0.418 -3.195,-7.049 7.537,-4.541 -4.342,11.59 z"
     id="path3"
     style="fill:#ffffff" /><g
     id="g5" /><g
     id="g7" /><g
     id="g9" /><g
     id="g11" /><g
     id="g13" /><g
     id="g15" /><g
     id="g17" /><g
     id="g19" /><g
     id="g21" /><g
     id="g23" /><g
     id="g25" /><g
     id="g27" /><g
     id="g29" /><g
     id="g31" /><g
     id="g33" /></svg>