<?xml version="1.0" encoding="UTF-8" standalone="no"?>
<!-- Created with Inkscape (http://www.inkscape.org/) -->

<svg
   xmlns:dc="http://purl.org/dc/elements/1.1/"
   xmlns:cc="http://creativecommons.org/ns#"
   xmlns:rdf="http://www.w3.org/1999/02/22-rdf-syntax-ns#"
   xmlns:svg="http://www.w3.org/2000/svg"
   xmlns="http://www.w3.org/2000/svg"
   version="1.1"
   width="125.041"
   height="125.041"
   viewBox="0 0 125.041 125.041"
   id="Capa_1"
   xml:space="preserve"><metadata
     id="metadata51"><rdf:RDF><cc:Work
         rdf:about=""><dc:format>image/svg+xml</dc:format><dc:type
           rdf:resource="http://purl.org/dc/dcmitype/StillImage" /><dc:title></dc:title></cc:Work></rdf:RDF></metadata><defs
     id="defs49" /><g
     id="g3"
     style="fill:#ffffff"><g
       id="g5"
       style="fill:#ffffff"><path
         d="M 46.864,72.252 C 46.318,71.828 41.987,68.552 29.971,67.754 29.31,67.699 28.644,67.231 28.057,66.838 27.31,66.34 26.534,65.818 25.968,65.146 25.048,64.047 24.009,63.124 23.136,61.905 17.294,53.761 11.569,52.126 10.713,51.803 c -1.14,-0.55 -5.507,0.127 -3.409,3.039 0.133,0.022 6.68,9.219 7.105,9.954 0.752,1.299 1.603,1.83 2.402,2.74 0.73,0.832 1.538,1.598 2.284,2.416 0,0 -4.187,-2.479 -5.19,-3.565 C 13.458,65.9 13.243,65.202 12.887,64.624 12.475,63.958 12.037,63.31 11.59,62.667 11.03,61.866 10.467,61.067 9.873,60.292 9.115,59.305 8.328,58.339 7.547,57.369 7.061,56.765 6.512,56.182 6.111,55.551 4.131,52.423 6.392,50.552 8.544,50.316 8.44,49.956 7.45,40.497 7.277,38.909 6.783,34.349 6.295,30.971 3.681,30.052 3.007,29.814 2.531,29.894 2.029,30.424 1.435,31.048 1.081,34.36 0.91,36.454 c 0,0 -1.143,11.236 -0.868,16.479 0.147,2.812 8.882,22.155 11.392,25.146 2.508,2.987 22.139,14.303 22.139,14.303 0.656,0.547 4.291,3.346 4.291,7.016 v 7.967 l 21.164,0.025 0.018,-7.311 c 0.049,-1.352 0.279,-2.695 0.441,-4.041 0.461,-1.537 0.092,-4.442 -0.123,-5.57 -2.458,-10.97 -11.51,-17.45 -12.5,-18.216 z"
         id="path7"
         style="fill:#ffffff" /><path
         d="m 124.132,36.454 c -0.172,-2.095 -0.525,-5.406 -1.119,-6.03 -0.502,-0.53 -0.979,-0.61 -1.653,-0.372 -2.611,0.92 -3.102,4.298 -3.595,8.857 -0.174,1.588 -1.163,11.047 -1.268,11.407 2.151,0.236 4.414,2.107 2.433,5.235 -0.4,0.632 -0.948,1.214 -1.435,1.818 -0.781,0.97 -1.569,1.936 -2.327,2.923 -0.595,0.775 -1.157,1.574 -1.716,2.375 -0.447,0.643 -0.887,1.291 -1.298,1.957 -0.354,0.578 -0.569,1.274 -1.019,1.763 -1.004,1.087 -5.19,3.565 -5.19,3.565 0.746,-0.818 1.556,-1.584 2.285,-2.416 0.799,-0.91 1.649,-1.441 2.401,-2.74 0.427,-0.734 6.974,-9.932 7.105,-9.954 2.099,-2.912 -2.27,-3.589 -3.409,-3.039 -0.855,0.322 -6.58,1.958 -12.423,10.102 -0.872,1.219 -1.912,2.145 -2.832,3.241 -0.565,0.674 -1.343,1.194 -2.09,1.692 -0.587,0.393 -1.253,0.861 -1.914,0.916 -12.016,0.798 -16.346,4.074 -16.893,4.498 -0.989,0.766 -10.041,7.244 -12.5,18.213 -0.216,1.129 -0.584,4.033 -0.123,5.57 0.162,1.346 0.393,2.69 0.441,4.041 l 0.018,7.312 21.164,-0.025 v -7.967 c 0,-3.67 3.635,-6.469 4.291,-7.015 0,0 19.63,-11.315 22.139,-14.305 2.51,-2.988 11.243,-22.333 11.392,-25.145 0.277,-5.242 -0.865,-16.477 -0.865,-16.477 z"
         id="path9"
         style="fill:#ffffff" /><circle
         cx="51.153999"
         cy="27.065001"
         r="9.4130001"
         id="circle11"
         style="fill:#ffffff" /><circle
         cx="73.888"
         cy="29.322001"
         r="9.1520004"
         id="circle13"
         style="fill:#ffffff" /><path
         d="m 73.229,71.881 c 1.083,-0.998 2.106,-1.84 2.981,-2.502 l 0.133,-0.102 c 1.02,-0.79 3.366,-2.262 7.791,-3.455 l -0.806,-5.549 v -5.348 c 1.004,2.505 1.876,5.844 2.634,10.453 1.979,-0.439 4.306,-0.813 7.022,-1.065 C 90.854,51.2 87.582,45.322 80.047,40.703 79.893,40.608 77.408,39.292 76.241,39.005 L 73.96,41.301 71.75,38.98 c -0.008,0.002 -0.017,0.004 -0.023,0.005 -1.69,0.405 -5.776,3.044 -7.918,5.087 -1.711,-2.049 -3.781,-3.743 -6.32,-5.302 -0.158,-0.097 -2.715,-1.45 -3.916,-1.745 l -2.344,2.36 -2.273,-2.387 C 48.947,37 48.939,37 48.933,37.002 c -1.617,0.557 -3.051,1.391 -4.753,2.537 -7.126,4.792 -10.232,11.133 -12.307,24.757 2.804,0.252 5.198,0.633 7.227,1.082 0.721,-4.716 1.548,-8.229 2.495,-10.901 v 11.507 c 0,0.012 0.002,0.021 0.002,0.033 3.976,1.154 6.143,2.514 7.108,3.263 l 0.13,0.099 c 0.878,0.666 1.904,1.511 2.99,2.511 2.889,-6.468 8.41,-7.744 9.203,-7.935 0.006,0 0.012,-0.002 0.017,-0.004 L 62.522,65.502 64,63.949 c 0.006,0.004 0.013,0.004 0.018,0.004 0.791,0.192 6.323,1.457 9.211,7.928 z M 62.521,63.597 C 59.03,63.563 56.21,60.724 56.21,57.228 c 0,-3.498 2.819,-6.336 6.311,-6.369 3.49,0.033 6.312,2.871 6.312,6.369 0,3.496 -2.821,6.334 -6.312,6.369 z"
         id="path15"
         style="fill:#ffffff" /></g></g><g
     id="g17" /><g
     id="g19" /><g
     id="g21" /><g
     id="g23" /><g
     id="g25" /><g
     id="g27" /><g
     id="g29" /><g
     id="g31" /><g
     id="g33" /><g
     id="g35" /><g
     id="g37" /><g
     id="g39" /><g
     id="g41" /><g
     id="g43" /><g
     id="g45" /></svg>
