<?xml version="1.0" encoding="UTF-8" standalone="no"?>
<svg
   xmlns:dc="http://purl.org/dc/elements/1.1/"
   xmlns:cc="http://creativecommons.org/ns#"
   xmlns:rdf="http://www.w3.org/1999/02/22-rdf-syntax-ns#"
   xmlns:svg="http://www.w3.org/2000/svg"
   xmlns="http://www.w3.org/2000/svg"
   xmlns:sodipodi="http://sodipodi.sourceforge.net/DTD/sodipodi-0.dtd"
   xmlns:inkscape="http://www.inkscape.org/namespaces/inkscape"
   version="1.1"
   width="102.25979"
   height="107.7"
   viewBox="0 0 102.25979 107.74236"
   xml:space="preserve"
   id="svg3222"
   inkscape:version="0.48.4 r9939"
   sodipodi:docname="girl4.svg"><sodipodi:namedview
     pagecolor="#ffffff"
     bordercolor="#666666"
     borderopacity="1"
     objecttolerance="10"
     gridtolerance="10"
     guidetolerance="10"
     inkscape:pageopacity="0"
     inkscape:pageshadow="2"
     inkscape:window-width="1871"
     inkscape:window-height="1056"
     id="namedview3254"
     showgrid="false"
     inkscape:zoom="2.1912721"
     inkscape:cx="51.129893"
     inkscape:cy="53.849988"
     inkscape:window-x="49"
     inkscape:window-y="24"
     inkscape:window-maximized="1"
     inkscape:current-layer="svg3222"
     fit-margin-top="0"
     fit-margin-left="0"
     fit-margin-right="0"
     fit-margin-bottom="0" /><style
     id="style3224">.style0{fill:	#9b4123;fill-rule:	evenodd;}.style1{fill:	#fbdbca;fill-rule:	evenodd;}.style2{fill:	#f2c2a8;fill-rule:	evenodd;}.style3{fill:	#e83e66;fill-rule:	evenodd;}.style4{fill:	#be2348;fill-rule:	evenodd;}.style5{fill:	#66bc92;}</style><metadata
     id="metadata3226"><rdf:RDF><cc:Work
         rdf:about=""><dc:format>image/svg+xml</dc:format><dc:type
           rdf:resource="http://purl.org/dc/dcmitype/StillImage" /><dc:title /></cc:Work></rdf:RDF></metadata><defs
     id="defs3228" /><g
     transform="translate(-247.22012,-370.05764)"
     id="g3230"><path
       d="m 318.7,378.9 c 3.5,-1.6 13,8.7 9.9,23.5 -13.3,63.3 -18.4,57.1 -30.3,57.1 -11.2,0 -14.2,1.8 -28.9,-54.8 -3.2,-12.4 3.5,-24.4 13.8,-30.2 10.3,-5.8 24.9,-7.4 35.5,4.4 z"
       class="style0"
       id="path3232"
       inkscape:connector-curvature="0"
       style="fill:#9b4123;fill-rule:evenodd" /><path
       d="m 308.1,437.3 c -0.2,0.3 -19.7,0.6 -20,0.9 -6.1,8.8 -19.4,12.6 -30,15 -10.5,2.3 -10.9,15.7 -10.9,24.6 h 102.3 c 0,-8.9 -0.2,-22.2 -10.9,-24.6 -10.6,-2.4 -24.7,-6.8 -30.5,-15.9 z"
       class="style1"
       id="path3234"
       inkscape:connector-curvature="0"
       style="fill:#fbdbca;fill-rule:evenodd" /><path
       d="m 308.7,418.6 v 25.1 c -5.6,7.4 -14.9,7.2 -20.5,0 v -25.1 c 0,-13.6 20.5,-13.6 20.5,0 z"
       class="style1"
       id="path3236"
       inkscape:connector-curvature="0"
       style="fill:#fbdbca;fill-rule:evenodd" /><path
       d="m 308.7,418.6 v 16.8 c -3.9,3 -7.6,4.7 -10.3,4.7 -2.6,0 -6.4,-1.7 -10.3,-4.7 v -16.8 c 0.1,-13.6 20.6,-13.6 20.6,0 z"
       class="style2"
       id="path3238"
       inkscape:connector-curvature="0"
       style="fill:#f2c2a8;fill-rule:evenodd" /><path
       d="m 298.4,435.9 c -6.7,0 -20.8,-10.5 -25.1,-25.5 -4.4,-15.2 3.9,-36.9 25.1,-36.9 8.6,0 15.1,3.6 19.5,8.9 6.4,7.7 8.3,19.1 5.7,28.1 -4.4,15 -18.5,25.4 -25.2,25.4 z"
       class="style1"
       id="path3240"
       inkscape:connector-curvature="0"
       style="fill:#fbdbca;fill-rule:evenodd" /><path
       d="m 290.4,420.8 c 3.4,-3.3 6.1,-0.8 8,-0.8 2,0 4.6,-2.5 8,0.8 -1.7,8.7 -13.6,9 -16,0 z"
       class="style3"
       id="path3242"
       inkscape:connector-curvature="0"
       style="fill:#e83e66;fill-rule:evenodd" /><path
       d="m 290.4,420.8 c 3.4,-3.3 6.1,-0.8 8,-0.8 1.9,0 4.6,-2.5 8,0.8 -5.1,2.6 -12.5,1.4 -16,0 z"
       class="style4"
       id="path3244"
       inkscape:connector-curvature="0"
       style="fill:#be2348;fill-rule:evenodd" /><ellipse
       cx="271.5"
       cy="411.20001"
       rx="7.3000002"
       ry="4.1999998"
       transform="matrix(-0.3947,-0.9188,0.9188,-0.3947,0.7466,822.9733)"
       class="style1"
       id="ellipse3246"
       d="m 278.8,411.20001 c 0,2.3196 -3.26832,4.2 -7.3,4.2 -4.03168,0 -7.3,-1.8804 -7.3,-4.2 0,-2.31959 3.26832,-4.2 7.3,-4.2 4.03168,0 7.3,1.88041 7.3,4.2 z"
       sodipodi:cx="271.5"
       sodipodi:cy="411.20001"
       sodipodi:rx="7.3000002"
       sodipodi:ry="4.1999998"
       style="fill:#fbdbca;fill-rule:evenodd" /><ellipse
       cx="324.89999"
       cy="411.20001"
       rx="7.3000002"
       ry="4.1999998"
       transform="matrix(0.3946,-0.9188,0.9188,0.3946,-181.1523,547.5289)"
       class="style1"
       id="ellipse3248"
       d="m 332.19999,411.20001 c 0,2.3196 -3.26832,4.2 -7.3,4.2 -4.03167,0 -7.3,-1.8804 -7.3,-4.2 0,-2.31959 3.26833,-4.2 7.3,-4.2 4.03168,0 7.3,1.88041 7.3,4.2 z"
       sodipodi:cx="324.89999"
       sodipodi:cy="411.20001"
       sodipodi:rx="7.3000002"
       sodipodi:ry="4.1999998"
       style="fill:#fbdbca;fill-rule:evenodd" /><path
       d="m 322.7,412.9 c 0,0 -0.6,-15.1 -4.8,-20.8 -7.5,16.6 -35.1,-0.6 -42.3,24.2 -6.6,-11.6 -3.8,-25.5 0.7,-32.1 8.8,-12.7 27.8,-15.5 40.7,-4 9,8 11.1,21.7 5.7,32.7 z"
       class="style0"
       id="path3250"
       inkscape:connector-curvature="0"
       style="fill:#9b4123;fill-rule:evenodd" /><path
       d="m 252.8,456 c 10.7,5.4 27.8,9.1 45.7,9.2 16,0.1 32.6,-2.5 45.6,-9.3 1,0.9 1.8,1.9 2.4,3.1 -1.2,0.6 -2.5,1.3 -3.7,1.8 -5.1,2.9 -11.8,8.4 -12.2,16.9 h -63.9 c -0.2,-8.6 -8.1,-14.5 -13.4,-17.3 -1,-0.4 -1.9,-0.9 -2.8,-1.3 0.6,-1.2 1.3,-2.2 2.3,-3.1 z"
       class="style5"
       id="path3252"
       inkscape:connector-curvature="0"
       style="fill:#66bc92" /></g></svg>