<svg xmlns:dc="http://purl.org/dc/elements/1.1/" xmlns:cc="http://creativecommons.org/ns#" xmlns:rdf="http://www.w3.org/1999/02/22-rdf-syntax-ns#" xmlns:svg="http://www.w3.org/2000/svg" xmlns="http://www.w3.org/2000/svg" version="1.1" width="100" height="100" viewBox="0 0 489.42 489.42" id="Capa_1" xml:space="preserve">
  <metadata id="metadata39">
    <rdf:RDF>
      <cc:Work rdf:about="">
        <dc:format>
          image/svg+xml
        </dc:format>
        <dc:type rdf:resource="http://purl.org/dc/dcmitype/StillImage"/>
      </cc:Work>
    </rdf:RDF>
  </metadata>
  <defs id="defs37"/>
  <path d="M399.2 154.48C399.2 69.17 330.02 0 244.71 0 159.38 0 90.22 69.17 90.22 154.48c0 52.66 26.41 99.11 66.64 127v57.3c-3.82 2.15-7.2 5.06-9.78 8.77-4.51 6.48-6.23 14.33-4.84 22.11 1 5.62 3.59 10.58 7.19 14.57-5.85 6.55-8.84 15.55-7.19 24.85 0.99 5.51 3.49 10.4 6.98 14.36-5.7 6.53-8.62 15.41-6.98 24.6 2.52 14.12 14.75 24.36 29.08 24.36 1.72 0 3.42-0.14 5.24-0.46l36.23-6.49c4.09 13.83 16.76 23.99 31.91 23.99 18.48 0 33.46-14.98 33.46-33.45v-2.25l45.15-8.09c16.04-2.88 26.76-18.26 23.9-34.31-0.99-5.51-3.5-10.38-6.99-14.35 5.72-6.53 8.64-15.42 6.99-24.61-1-5.62-3.58-10.59-7.19-14.59 5.85-6.55 8.84-15.54 7.19-24.83-1.59-8.96-7.17-16.27-14.64-20.49v-30.99c40.23-27.89 66.64-74.33 66.64-127zM319.83 426.24 173.13 452.51c-5.5 0.94-10.53-2.65-11.49-7.95-0.96-5.35 2.61-10.49 7.97-11.45L316.36 406.83c0.61-0.11 1.19-0.16 1.79-0.16 4.76 0 8.81 3.42 9.65 8.12 0.96 5.35-2.61 10.49-7.97 11.45zM171.77 412.72c-4.67 0.81-9.13-2.24-10.09-6.87-0.02-0.08-0.03-0.16-0.04-0.24-0.96-5.35 2.61-10.49 7.97-11.45l146.75-26.29c0.61-0.11 1.19-0.16 1.79-0.16 4.76 0 8.81 3.42 9.65 8.12 0.92 5.2-2.39 10.46-7.55 11.28-2.85 0.45-127.26 21.94-148.47 25.61zm0.57-39.06c-4.91 0.86-9.62-2.33-10.65-7.2-0.02-0.09-0.04-0.18-0.05-0.27-0.46-2.6 0.11-5.22 1.61-7.38 1.51-2.16 3.76-3.6 6.36-4.06l146.75-26.29c0.61-0.11 1.19-0.16 1.79-0.16 4.76 0 8.81 3.42 9.65 8.12 0.96 5.35-2.61 10.5-7.97 11.45-22.12 3.91-117.54 20.58-147.48 25.8zM314.57 255.53c-8.51 5.9-13.59 15.6-13.59 25.95v29.71l-21.38 3.82v-84.37l41.31-56.89c5.29-7.29 3.66-17.49-3.62-22.78-7.33-5.32-17.51-3.66-22.8 3.62l-44.42 61.18c-2.02 2.79-3.11 6.14-3.11 9.58v95.52l-4.52 0.81v-96.33c0-3.44-1.08-6.79-3.11-9.58l-44.42-61.18c-5.3-7.28-15.48-8.93-22.8-3.62-7.28 5.29-8.91 15.49-3.62 22.78l41.31 56.89v96.88l-21.38 3.82v-49.86c0-10.36-5.08-20.05-13.59-25.95-33.22-23.03-53.05-60.8-53.05-101.05 0-67.77 55.14-122.9 122.91-122.9 67.77 0 122.91 55.13 122.91 122.9 0 40.24-19.83 78.02-53.05 101.05z" id="path3" fill="#fff"/>
  <g id="g5" fill="#fff"/>
  <g id="g7" fill="#fff"/>
  <g id="g9" fill="#fff"/>
  <g id="g11" fill="#fff"/>
  <g id="g13" fill="#fff"/>
  <g id="g15" fill="#fff"/>
  <g id="g17" fill="#fff"/>
  <g id="g19" fill="#fff"/>
  <g id="g21" fill="#fff"/>
  <g id="g23" fill="#fff"/>
  <g id="g25" fill="#fff"/>
  <g id="g27" fill="#fff"/>
  <g id="g29" fill="#fff"/>
  <g id="g31" fill="#fff"/>
  <g id="g33" fill="#fff"/>
</svg>
