<svg xmlns:dc="http://purl.org/dc/elements/1.1/" xmlns:cc="http://creativecommons.org/ns#" xmlns:rdf="http://www.w3.org/1999/02/22-rdf-syntax-ns#" xmlns:svg="http://www.w3.org/2000/svg" xmlns="http://www.w3.org/2000/svg" version="1.1" width="117.5" height="137" viewBox="0 0 117.5 137.02226" id="&#47112;&#51060;&#50612;_1" xml:space="preserve">
  <metadata id="metadata43">
    <rdf:RDF>
      <cc:Work rdf:about="">
        <dc:format>image/svg+xml</dc:format>
        <dc:type rdf:resource="http://purl.org/dc/dcmitype/StillImage"/>
        <dc:title/>
      </cc:Work>
    </rdf:RDF>
  </metadata>
  <defs id="defs41"/>
  <g transform="translate(-239.5,-354.97775)" id="g3">
    <path d="m 319.3 362 c 6.2 1 9.6 5.2 11.1 11 3.8 15 -4.2 47.6 -31.9 48 -14.3 0.2 -24.6 -3.4 -28.4 -15 -3.8 -11.6 -5.3 -30.2 2.9 -40.7 10.3 -13.1 31.8 -13.2 46.3 -3.3 z" id="path5" style="fill:#7b2f1e;fill-rule:evenodd"/>
    <path d="m 286.5 438.7 c -26 11.4 -33.7 17.4 -36.8 20.2 -4.7 4.2 -7.4 19.8 -10.2 33.1 h 58.7 58.8 c -2.8 -13.3 -5.4 -28.9 -10.2 -33.1 -3.1 -2.7 -10.6 -8.6 -36.5 -20 l -23.8 -0.2 z" id="path7" style="fill:#f8cc6f;fill-rule:evenodd"/>
    <path d="m 310.9 416 v 28.8 c -6.9 8.5 -18.3 8.2 -25.2 0 V 416 c 0 -15.6 25.2 -15.6 25.2 0 z" id="path9" style="fill:#fbdbca;fill-rule:evenodd"/>
    <path d="m 310.9 416 v 19.3 c -4.8 3.5 -9.4 5.4 -12.6 5.4 -3.2 0 -7.8 -1.9 -12.6 -5.4 V 416 c 0 -15.6 25.2 -15.6 25.2 0 z" id="path11" style="fill:#f2c2a8;fill-rule:evenodd"/>
    <path d="m 298.3 364.3 c -42.3 0 -27.1 51.1 -24.3 55.2 3 4.5 17.5 16.4 24.3 16.4 6.8 0 21.3 -11.9 24.3 -16.4 2.7 -4.1 17.9 -55.2 -24.3 -55.2 z" id="path13" style="fill:#fbdbca;fill-rule:evenodd"/>
    <path d="m 309.5 420.3 c -9.9 0.5 -19.7 -3.2 -25.7 -8.6 0.4 8.2 19.3 14.6 25.7 8.6 z" id="path15" style="fill:#f2c2a8;fill-rule:evenodd"/>
    <path d="m 286.4 411 c -2.1 0.8 -3.7 2.4 -4.5 4.1 -0.5 -2.3 2.8 -5.3 4.5 -4.1 z" id="path17" style="fill:#f2c2a8;fill-rule:evenodd"/>
    <ellipse cx="268" cy="399.3" rx="7.3" ry="4.2" transform="matrix(-0.3127,-0.9498,0.9498,-0.3127,-27.374,778.7233)" id="ellipse19" style="fill:#fbdbca;fill-rule:evenodd"/>
    <ellipse cx="328.4" cy="399.3" rx="7.3" ry="4.2" transform="matrix(0.3128,-0.9498,0.9498,0.3128,-153.5841,586.2551)" id="ellipse21" style="fill:#fbdbca;fill-rule:evenodd"/>
    <path d="m 319 377 c -7.4 4.6 -16.3 3 -12.8 -1 3.4 -4 -0.3 -1.2 -7 1.7 -6.7 2.9 -14.4 2.4 -9.9 0 5.5 -3 -16.1 -5 -20.1 26 -6.3 -22.4 4.4 -41.2 28.6 -42.3 25.9 -1.1 36.3 19.3 29.2 41.6 0.4 -12.1 -2.5 -20 -8 -26 z" id="path23" style="fill:#7b2f1e;fill-rule:evenodd"/>
    <path d="m 284.5 438.4 -8.9 4.8 13 18 9.8 -9.3 -13.9 -13.5 z" id="path25" style="fill:#ffffff;fill-rule:evenodd"/>
    <path d="m 312.2 438.4 8.9 4.8 -13 18 -9.8 -9.3 13.9 -13.5 z" id="path27" style="fill:#ffffff;fill-rule:evenodd"/>
    <path d="m 292.8 456.8 3.1 4.7 c 1.6 0 3.2 0 4.7 0 l 3.1 -4.7 -5.4 -5.1 -5.5 5.1 z" id="path29" style="fill:#e83e66;fill-rule:evenodd"/>
    <polygon points="295.9,461.6 291.5,491.9 305,491.9 300.6,461.6" id="polygon31" style="fill:#e83e66;fill-rule:evenodd"/>
    <g id="g33">
      <path d="m 263.5 491.9 h 2 c -0.1 -8.9 -0.1 -15.4 -0.1 -15.4 0 0 -0.9 6.8 -1.9 15.4 z" id="path35" style="fill:#b68b3b;fill-rule:evenodd"/>
      <path d="m 333 491.9 h -2 c 0.1 -8.9 0.1 -15.4 0.1 -15.4 0 0 0.9 6.8 1.9 15.4 z" id="path37" style="fill:#b68b3b;fill-rule:evenodd"/>
    </g>
  </g>
</svg>
