<svg xmlns:dc="http://purl.org/dc/elements/1.1/" xmlns:cc="http://creativecommons.org/ns#" xmlns:rdf="http://www.w3.org/1999/02/22-rdf-syntax-ns#" xmlns:svg="http://www.w3.org/2000/svg" xmlns="http://www.w3.org/2000/svg" version="1.1" width="117.4" height="145.1" viewBox="0 0 117.4 145.09999" xml:space="preserve"><style>.style0{fill:	#bf6251;fill-rule:	evenodd;}.style1{fill:	#bb4934;fill-rule:	evenodd;}.style2{fill:	#973523;fill-rule:	evenodd;}.style3{fill:	#fbdbca;fill-rule:	evenodd;}.style4{fill:	#f2c2a8;fill-rule:	evenodd;}.style5{fill:	#b5d6f1;fill-rule:	evenodd;}.style6{fill:	#85b5e1;fill-rule:	evenodd;}.style7{fill:	#7b2f1e;fill-rule:	evenodd;}.style8{fill:	#355c7e;fill-rule:	evenodd;}</style><metadata><rdf:RDF><cc:Work rdf:about=""><dc:format>image/svg+xml</dc:format><dc:type rdf:resource="http://purl.org/dc/dcmitype/StillImage"/><dc:title/></cc:Work></rdf:RDF></metadata><defs/><g transform="translate(-239.3,-349.70002)"><path d="m 286.3 441.4 c -26 11.4 -33.7 17.4 -36.8 20.2 -4.7 4.2 -7.4 19.8 -10.2 33.1 h 58.7 58.7 c -2.8 -13.3 -5.4 -28.9 -10.2 -33.1 -3.1 -2.7 -10.6 -8.6 -36.5 -20 l -23.7 -0.2 z" class="style0"/><path d="m 268.1 450 v 44.8 h -3.8 V 452 c 1.1 -0.7 2.4 -1.3 3.8 -2 l 0 0 z m 18.2 -8.6 -0.8 0.3 v 52.9 h 3.8 v -53.3 l -3 0.1 0 0 z m -7.6 3.4 c -1.3 0.6 -2.6 1.2 -3.8 1.8 v 48.1 h 3.8 v -49.9 l 0 0 z m -21.2 11 c -1.5 0.9 -2.8 1.8 -3.8 2.5 v 36.4 h 3.8 v -38.9 l 0 0 z m -10.6 9.5 c -1.5 3 -2.7 7.1 -3.8 11.8 v 17.7 h 3.8 v -29.5 l 0 0 z m 49.2 29.4 h 1.9 1.9 v -53.2 l -3.8 0 v 53.2 l 0 0 z m 10.6 0 h 3.8 v -52.9 l -0.5 -0.2 -3.3 0 v 53.1 l 0 0 z m 10.6 0 h 3.8 v -48.1 c -1.2 -0.6 -2.5 -1.2 -3.8 -1.8 v 49.9 l 0 0 z m 10.6 0 h 3.8 V 452 c -1.2 -0.6 -2.5 -1.3 -3.8 -2 v 44.7 l 0 0 z m 10.6 0 h 3.8 v -36.4 c -1.1 -0.7 -2.3 -1.6 -3.8 -2.5 v 38.9 l 0 0 z m 10.6 0 h 3.8 V 477 c -1.1 -4.6 -2.4 -8.8 -3.8 -11.8 v 29.5 z" class="style1"/><g><path d="m 246.5 466 h 102.9 c 0.5 1.1 1 2.4 1.5 3.8 H 245.1 c 0.4 -1.3 0.9 -2.6 1.4 -3.8 z" class="style1"/><path d="m 243.1 476.6 h 109.7 c 0.3 1.2 0.6 2.5 0.9 3.8 H 242.3 c 0.2 -1.2 0.5 -2.5 0.8 -3.8 z" class="style1"/><path d="m 240.8 487.3 h 114.4 c 0.3 1.3 0.5 2.6 0.8 3.8 H 240 c 0.3 -1.3 0.5 -2.6 0.8 -3.8 z" class="style1"/></g><g><path d="m 246.5 466 h 0.4 v 3.8 h -1.8 l 0.2 -0.5 0 0 0.1 -0.2 0 0 0.1 -0.3 0 0 0 0 0.1 -0.3 0 -0.1 v 0 l 0.1 -0.2 0 0 0.1 -0.2 0 0 0 -0.1 0 -0.1 0 0 0 -0.1 0 -0.1 0 0 0 -0.1 0 -0.1 0 0 0 0 0 -0.1 0 -0.1 0 0 0 0 0 -0.1 0 -0.1 0 0 0 0 0 -0.1 0 -0.1 0 0 0 -0.1 0 -0.1 0 -0.1 0 0 0 -0.1 0 -0.1 0 0 0 0 0 -0.1 0 -0.1 0 0 0 0 0 -0.1 0 -0.1 0 0 0 0 0 -0.1 0 -0.1 0 0 0 -0.1 0 -0.1 0 0 0 0 0 -0.1 0 -0.1 0.7 0.7 0 0 0 0 0 0 z m 7.2 0 h 3.8 v 3.8 h -3.8 V 466 l 0 0 z m 10.6 0 h 3.8 v 3.8 h -3.8 V 466 l 0 0 z m 10.6 0 h 3.8 v 3.8 h -3.8 V 466 l 0 0 z m 10.6 0 h 3.8 v 3.8 h -3.8 V 466 l 0 0 z m 10.6 0 h 3.8 v 3.8 h -3.8 V 466 l 0 0 z m 10.6 0 h 3.8 v 3.8 h -3.8 V 466 l 0 0 z m 10.6 0 h 3.8 v 3.8 h -3.8 V 466 l 0 0 z m 10.6 0 h 3.8 v 3.8 h -3.8 V 466 l 0 0 z m 10.6 0 h 3.8 v 3.8 h -3.8 V 466 l 0 0 z m 10.6 0 h 0.4 l 0 0.1 0 0 0 0 0 0.1 0 0.1 0 0 0 0 0 0.1 0 0.1 0 0.1 0 0.1 0 0 0 0 0 0.1 0 0.1 0 0 0 0 0 0.1 0 0.1 0 0 0 0 0 0.1 0 0.1 0 0 0 0.1 0 0.1 0 0.1 0 0 0 0.1 0 0.1 0 0 0 0 0 0.1 0 0.1 0 0 0 0 0 0.1 0 0.1 0 0 0 0 0 0.1 0 0.1 0 0 0 0.1 0 0.1 0 0 0 0.1 0 0.1 0 0 0 0 0 0.1 0 0 0 0 0 0.1 0 0.1 0 0 0 0.1 0 0 0 0.1 0 0 0 0.1 0 0 0 0 0 0.1 0 0.1 0 0 0.1 0.2 0 0 0.1 0.2 0 0 0 0.1 0 0 0 0.1 0 0.1 0 0 0 0 0 0.1 h -1.8 V 466 z" class="style2"/><path d="m 243.1 476.6 h 3.7 v 3.8 H 243 v -3.4 0 l 0 0 0 -0.1 0 -0.1 0 -0.1 0 0 0 0 0.1 -0.1 0 0 0 0 z m 10.6 0 h 3.8 v 3.8 h -3.8 v -3.8 l 0 0 z m 10.6 0 h 3.8 v 3.8 h -3.8 v -3.8 l 0 0 z m 10.6 0 h 3.8 v 3.8 h -3.8 v -3.8 l 0 0 z m 10.6 0 h 3.8 v 3.8 h -3.8 v -3.8 l 0 0 z m 10.6 0 h 3.8 v 3.8 h -3.8 v -3.8 l 0 0 z m 10.6 0 h 3.8 v 3.8 h -3.8 v -3.8 l 0 0 z m 10.6 0 h 3.8 v 3.8 h -3.8 v -3.8 l 0 0 z m 10.6 0 h 3.8 v 3.8 h -3.8 v -3.8 l 0 0 z m 10.6 0 h 3.8 v 3.8 h -3.8 v -3.8 l 0 0 z m 10.6 0 h 3.7 l 0 0.1 0 0.1 0 0 0 0 0 0.1 0 0.1 0 0.1 0 0 0 0 v 3.5 H 349 v -4 z" class="style2"/><path d="m 243.1 487.3 h 3.8 v 3.8 h -3.8 v -3.8 l 0 0 z m 10.6 0 h 3.8 v 3.8 h -3.8 v -3.8 l 0 0 z m 10.6 0 h 3.8 v 3.8 h -3.8 v -3.8 l 0 0 z m 10.6 0 h 3.8 v 3.8 h -3.8 v -3.8 l 0 0 z m 10.6 0 h 3.8 v 3.8 h -3.8 v -3.8 l 0 0 z m 10.6 0 h 3.8 v 3.8 h -3.8 v -3.8 l 0 0 z m 10.6 0 h 3.8 v 3.8 h -3.8 v -3.8 l 0 0 z m 10.6 0 h 3.8 v 3.8 h -3.8 v -3.8 l 0 0 z m 10.6 0 h 3.8 v 3.8 h -3.8 v -3.8 l 0 0 z m 10.6 0 h 3.8 v 3.8 h -3.8 v -3.8 l 0 0 z m 10.6 0 h 3.8 v 3.8 h -3.8 v -3.8 z" class="style2"/></g><g><path d="m 263.2 494.7 h 2 c -0.1 -8.9 -0.1 -15.4 -0.1 -15.4 0 0 -0.9 6.7 -1.9 15.4 z" class="style2"/><path d="m 332.8 494.7 h -2 c 0.1 -8.9 0.1 -15.4 0.1 -15.4 0 0 0.8 6.7 1.9 15.4 z" class="style2"/></g><path d="m 310.6 418.8 v 28.8 c -6.9 8.5 -18.3 8.2 -25.2 0 v -28.8 c 0 -15.6 25.2 -15.6 25.2 0 z" class="style3"/><path d="m 310.6 421.6 v 19.3 c -4.8 3.5 -9.4 5.4 -12.6 5.4 -3.2 0 -7.8 -1.9 -12.6 -5.4 v -19.3 c 0 -15.5 25.2 -15.5 25.2 0 z" class="style4"/><path d="m 325.5 365.6 3.2 23.5 c 1.1 8.5 -8.6 14.3 -13.4 14.3 h -34.8 c -4.8 0 -14.6 -5.8 -13.4 -14.3 l 3.2 -23.5 c 2.8 -21.2 52.3 -21.2 55.2 0 z" class="style5"/><path d="m 297.9 406.4 c 25.2 0 45.8 -9.2 45.8 -20.4 0 -11.2 -20.6 -20.4 -45.8 -20.4 -25.2 0 -45.8 9.2 -45.8 20.4 0 11.2 20.6 20.4 45.8 20.4 z" class="style6"/><path d="m 277.7 372.5 c 5.8 -10.2 11.8 -22.6 20.6 -22.3 8.4 -0.3 14.3 11.1 19.9 21.1 -5.4 -1 -11.3 -1.5 -17.5 -1.5 -8.5 -0.1 -16.3 0.9 -23 2.7 z" class="style6"/><path d="m 298 371.5 c -42.3 0 -27.1 46.7 -24.3 50.8 3 4.5 17.5 16.4 24.3 16.4 6.8 0 21.3 -11.9 24.3 -16.4 2.8 -4.1 18 -50.8 -24.3 -50.8 z" class="style3"/><path d="m 284.4 417.8 c 9.3 3.6 19.7 3.2 27.1 0 -2.9 7.7 -22.9 7.7 -27.1 0 z" class="style4"/><path d="m 287.2 416.3 c -1.7 1.4 -2.8 3.5 -2.9 5.3 -1.2 -2 0.9 -5.9 2.9 -5.3 z" class="style4"/><path d="m 308.6 416.3 c 1.7 1.4 2.8 3.5 2.9 5.3 1.2 -2 -0.9 -5.9 -2.9 -5.3 z" class="style4"/><path d="m 324.8 392.5 c -0.1 -5.1 -5.5 -14.6 -9.1 -16.2 -3.6 -1.6 -21.4 0.4 -30.7 5.5 -10 5.6 -14.2 11.8 -14 16.8 0.1 3.5 -1.4 1.4 -2.3 1.1 -0.2 -5.2 0.1 -15.9 1.5 -20.7 1.5 -5.1 14.6 -8.1 28.8 -7.9 14.2 0.2 19.6 2.2 24.5 5.2 3.5 2.1 5.3 23.9 2.2 22.7 -1.1 -0.4 -0.8 -3.5 -0.9 -6.5 z" class="style7"/><ellipse cx="268.1" cy="404.8" rx="7.3" ry="4.2" transform="matrix(-0.3127,-0.9498,0.9498,-0.3127,-32.5811,786.0142)" class="style3"/><ellipse cx="328.4" cy="404.8" rx="7.3" ry="4.2" transform="matrix(0.3128,-0.9498,0.9498,0.3128,-158.8125,590.0873)" class="style3"/><path d="m 271.8 447.6 c -12.2 0 -14.7 1.3 -15.2 8.5 -0.5 7.2 1.5 24.2 9.1 33.6 7.6 9.4 3.6 -1.3 4.6 -9 1 -7.7 2.5 10.7 6.1 2.2 3.5 -8.4 -1.1 -14.2 -4.6 -35.3 z" class="style6"/><path d="m 332.4 450.9 c 5.5 0 12.4 2.8 7.5 8.9 -4.9 6.1 -7.5 20.2 -7.8 26 -0.3 5.8 -3.9 10 -3.9 5.1 0 -4.9 -4.6 -16.1 -5.9 -11.2 -1.3 4.9 -6.2 9.7 -5.5 0.5 0.7 -9.2 3.2 -34.4 15.6 -29.3 z" class="style6"/><path d="m 331.6 453 c -10.6 11.4 -42.8 26.8 -63.9 -0.5 -2.3 -7.1 -1.7 -10.9 4.5 -9.1 -0.4 -6.6 5.5 -9.1 11.2 -6 8.4 8.8 27 4.3 30.5 -1.4 5.4 -1.5 8.8 0.7 8.8 8.2 11 -5.3 13.3 3.1 8.9 8.8 z" class="style6"/><g><path d="m 327.8 464 v -3.8 c 1.9 -2.5 4 -4.2 5.6 -4.8 -1.2 1 -3.4 4.4 -5.6 8.6 l 0 0 z m 0 -5.4 c 2.1 -1.6 3.9 -3.9 4.6 -6.8 l 0 0 c -0.9 1.7 -2.7 3.3 -4.6 4.8 v 2 z m 0 -1.9 v 2 c -2.1 1.6 -4.4 2.4 -6.2 2.4 v -0.4 c 1.7 -1 4.1 -2.4 6.2 -4 l 0 0 z m 0 3.5 c -3 4 -5.5 10 -4.4 15.9 0.8 -4.1 2.6 -8.4 4.4 -12.1 v -3.8 l 0 0 z M 321.6 445 v -0.1 c 0.2 -0.2 0.4 -0.3 0.6 -0.5 l 0 0 c -0.2 0.2 -0.4 0.4 -0.6 0.6 z m -52.3 32.4 c -0.4 -0.7 -0.8 -1.4 -1.1 -2.3 v 1.2 c 0.4 0.4 0.7 0.7 1.1 1.1 l 0 0 z m 52.3 -32.5 v 0.1 c -8.9 8.9 -29.3 17.9 -47.1 0 18.2 14.7 38.5 6.5 47.1 -0.1 l 0 0 z m 0 15.7 -0.6 0.3 c 0.2 0 0.4 0 0.6 0.1 v -0.4 l 0 0 z m -53.4 -5 v -2.4 c 1.6 2.2 4 4.4 5.4 5.5 -1.9 -0.1 -4.1 -1.2 -5.4 -3.1 z m 0 19.5 c -3.3 -7.7 -4.8 -20.4 -3.7 -22.4 -3.4 2.6 -2.6 16.7 3.7 23.5 v -1.1 l 0 0 z m 0 -21.9 v 2.4 c -0.8 -1.1 -1.2 -2.5 -1.1 -4.1 0.3 0.6 0.7 1.1 1.1 1.7 z" class="style8"/></g></g></svg>