<svg xmlns:dc="http://purl.org/dc/elements/1.1/" xmlns:cc="http://creativecommons.org/ns#" xmlns:rdf="http://www.w3.org/1999/02/22-rdf-syntax-ns#" xmlns:svg="http://www.w3.org/2000/svg" xmlns="http://www.w3.org/2000/svg" version="1.1" width="117.5" height="130.6" viewBox="0 0 117.5 130.59225" xml:space="preserve"><style>.style0{fill:	#fbdbca;fill-rule:	evenodd;}.style1{fill:	#f2c2a8;fill-rule:	evenodd;}.style2{fill:	#85b5e1;fill-rule:	evenodd;}.style3{fill:	#b5d6f1;fill-rule:	evenodd;}.style4{fill:	#ffffff;fill-rule:	evenodd;}.style5{fill:	#ec6821;fill-rule:	evenodd;}</style><metadata><rdf:RDF><cc:Work rdf:about=""><dc:format>image/svg+xml</dc:format><dc:type rdf:resource="http://purl.org/dc/dcmitype/StillImage"/><dc:title/></cc:Work></rdf:RDF></metadata><defs/><g transform="translate(-239.8,-359.50776)"><path d="m 286.8 436.8 c -26 11.4 -33.7 17.4 -36.8 20.2 -4.7 4.2 -7.4 19.8 -10.2 33.1 h 58.7 58.7 c -2.8 -13.3 -5.4 -28.9 -10.2 -33.1 -3.1 -2.7 -10.6 -8.6 -36.5 -20 l -23.7 -0.2 z" class="style0"/><path d="m 312.4 414.1 v 28.8 c -7.6 8.5 -20.1 8.2 -27.7 0 v -28.8 c 0 -15.5 27.7 -15.5 27.7 0 z" class="style0"/><path d="m 312.4 414.1 v 19.3 c -5.2 3.5 -10.3 5.4 -13.9 5.4 -3.6 0 -8.6 -1.9 -13.9 -5.4 v -19.3 c 0.1 -15.5 27.8 -15.5 27.8 0 z" class="style1"/><ellipse cx="268.5" cy="397.3" rx="7.3" ry="4.2" transform="matrix(-0.3128,-0.9498,0.9498,-0.3128,-24.7997,776.5872)" class="style0"/><ellipse cx="328.8" cy="397.3" rx="7.3" ry="4.2" transform="matrix(0.3128,-0.9498,0.9498,0.3128,-151.3435,585.3519)" class="style0"/><path d="m 284.1 413.2 c 3.9 2.8 25.9 2.6 29.8 0 -3.4 14.6 -25.3 15.1 -29.8 0 z" class="style1"/><path d="m 277 441.2 c -18.2 8.6 -24.4 13.4 -27 15.7 -4.7 4.2 -7.4 19.8 -10.2 33.1 h 58.7 58.7 c -2.8 -13.3 -5.4 -28.9 -10.2 -33.1 -2.6 -2.3 -8.2 -6.7 -25 -14.7 -0.1 0.1 -0.2 0.2 -0.4 0.4 -15.8 17.1 -38.1 8.7 -44.1 -0.6 -0.1 -0.3 -0.3 -0.5 -0.5 -0.8 z" class="style2"/><path d="m 247 461.5 c -3 6.7 -5 18.3 -7.2 28.5 h 23.8 c -0.5 -16.6 -0.5 -25.4 -16.6 -28.5 z" class="style3"/><path d="m 350.1 461.5 c 3 6.7 5 18.3 7.2 28.5 h -23.8 c 0.5 -16.6 0.5 -25.4 16.6 -28.5 z" class="style3"/><path d="m 277.1 441.2 c -1.2 0.6 -2.3 1.1 -3.4 1.6 8.3 11.7 33.7 23.2 51.2 0.6 -0.8 -0.4 -1.7 -0.8 -2.6 -1.3 -0.1 0.1 -0.2 0.2 -0.4 0.4 -15.8 17.1 -38.2 8.7 -44.2 -0.6 -0.3 -0.2 -0.5 -0.4 -0.6 -0.7 z" class="style3"/><path d="m 298.5 362.3 c -42.3 0 -27.1 51.1 -24.3 55.2 3 4.5 17.5 16.4 24.3 16.4 6.8 0 21.3 -11.9 24.3 -16.4 2.8 -4.1 18 -55.2 -24.3 -55.2 z" class="style0"/><path d="m 288.7 415.8 c 2.7 1.5 17.9 1.4 20.6 0 -2.3 7.7 -17.5 7.9 -20.6 0 z" class="style4"/><path d="m 346.1 406.7 c -6.8 -2.5 -16.4 -16 -19.3 -27.9 -5.7 -23.6 -46.1 -24.2 -52.3 -9.1 -13.7 12.1 -3.6 44.2 -3.6 36.1 0 -8.2 2.6 -15.2 6.2 -21.3 4.5 9.3 14.5 17.7 25.1 16.8 -7.2 -6.1 -11.3 -8.7 -12.9 -18.5 5.1 14.8 32.7 29.6 56.8 23.9 z" class="style5"/></g></svg>