<?xml version="1.0" encoding="UTF-8" standalone="no"?>
<!-- Created with Inkscape (http://www.inkscape.org/) -->

<svg
   xmlns:dc="http://purl.org/dc/elements/1.1/"
   xmlns:cc="http://creativecommons.org/ns#"
   xmlns:rdf="http://www.w3.org/1999/02/22-rdf-syntax-ns#"
   xmlns:svg="http://www.w3.org/2000/svg"
   xmlns="http://www.w3.org/2000/svg"
   version="1.1"
   width="100%"
   height="100%"
   viewBox="0 0 430.843 430.843"
   id="Capa_1"
   xml:space="preserve"><metadata
     id="metadata45"><rdf:RDF><cc:Work
         rdf:about=""><dc:format>image/svg+xml</dc:format><dc:type
           rdf:resource="http://purl.org/dc/dcmitype/StillImage" /><dc:title></dc:title></cc:Work></rdf:RDF></metadata><defs
     id="defs43" /><g
     id="g3"
     style="fill:#ffffff"><path
       d="m 397.462,116.802 -28.893,-5.781 c -1.462,-1.67 -3.259,-3.015 -5.258,-3.96 2.272,-2.54 4.202,-5.108 5.667,-7.234 3.533,-5.125 6.475,-10.647 8.517,-15.972 1.003,-2.246 1.853,-4.504 2.553,-6.717 2.736,-2.298 4.347,-5.731 4.347,-9.331 v -8.82 c 0,-2.536 -0.79,-5.007 -2.253,-7.063 V 39.505 C 382.142,17.721 364.419,0 342.634,0 h -12.809 c -21.78,0 -39.506,17.721 -39.506,39.505 v 12.42 c -1.458,2.055 -2.256,4.528 -2.256,7.061 v 8.82 c 0,3.6 1.609,7.027 4.352,9.329 0.697,2.21 1.551,4.471 2.556,6.723 2.036,5.322 4.98,10.844 8.516,15.966 1.468,2.132 3.398,4.702 5.681,7.253 -1.994,0.946 -3.778,2.287 -5.238,3.95 l -28.287,5.73 c -0.16,0.211 -0.317,0.425 -0.482,0.632 -0.515,1.367 -1.066,2.719 -1.649,4.047 -0.768,1.965 -1.627,3.945 -2.572,5.92 l 9.089,1.817 c 16.117,3.223 27.814,17.495 27.814,33.937 v 104.352 c 0,3.454 -0.5,6.824 -1.49,10.067 v 8.134 c 0,13.706 -8.502,25.46 -20.51,30.268 v 59.091 c 0,13.985 11.338,25.322 25.325,25.322 13.98,0 25.317,-11.336 25.317,-25.322 0,13.985 11.334,25.322 25.324,25.322 13.98,0 25.314,-11.336 25.314,-25.322 V 266.978 c 2.219,1.448 4.861,2.294 7.705,2.294 7.796,0 14.103,-6.317 14.103,-14.105 v -11.439 c 0.959,-2.055 1.491,-4.346 1.491,-6.761 V 132.613 c -0.001,-7.686 -5.427,-14.305 -12.96,-15.811 z m -68.811,26.439 c -0.107,1.033 -0.834,1.899 -1.841,2.177 -0.226,0.065 -0.45,0.092 -0.678,0.092 -0.782,0 -1.537,-0.361 -2.021,-1.005 l -7.117,-9.439 c -0.329,-0.439 -0.51,-0.975 -0.51,-1.526 l 0.008,-15.128 c 0.002,-0.888 0.468,-1.711 1.229,-2.172 0.757,-0.458 1.702,-0.479 2.49,-0.068 2.067,1.097 4.139,1.833 6.146,2.187 1.207,0.218 2.086,1.269 2.086,2.494 v 6.313 c 0.366,0.145 0.692,0.366 0.957,0.662 0.481,0.534 0.714,1.244 0.64,1.954 l -1.389,13.459 z m 26.806,-8.176 -7.102,9.43 c -0.49,0.646 -1.242,1.013 -2.022,1.013 -0.227,0 -0.459,-0.033 -0.685,-0.092 -1.005,-0.279 -1.734,-1.145 -1.84,-2.181 l -1.384,-13.456 c -0.074,-0.71 0.155,-1.419 0.637,-1.954 0.264,-0.296 0.589,-0.517 0.957,-0.662 v -6.313 c 0,-1.226 0.881,-2.276 2.091,-2.494 1.998,-0.353 4.069,-1.088 6.14,-2.185 0.791,-0.412 1.731,-0.389 2.489,0.068 0.765,0.459 1.224,1.284 1.224,2.172 l 0.003,15.13 c 0,0.551 -0.178,1.087 -0.508,1.524 z m 2.577,-43.103 c -6.194,8.983 -11.993,13.002 -15.003,13.002 h -13.6 c -3.008,0 -8.813,-4.02 -15.005,-13.002 -4.884,-7.088 -8.283,-14.928 -9.08,-20.98 l -0.139,-1.049 -2.459,-1.595 c -0.718,-0.469 -1.153,-1.265 -1.153,-2.126 v -4.164 c 0,-1.399 1.137,-2.535 2.535,-2.535 h 1.031 v -4.517 c 0,-0.96 0.543,-1.834 1.401,-2.265 3.486,-1.736 10.407,-4.66 17.571,-4.66 5.71,0 10.449,1.902 14.081,5.65 4.521,4.68 9.741,7.048 15.494,7.048 3.268,0 6.634,-0.768 10.02,-2.289 0.783,-0.351 1.693,-0.282 2.417,0.187 0.339,0.217 0.607,0.508 0.806,0.845 h 1.381 c 1.399,0 2.536,1.136 2.536,2.535 v 4.165 c 0,0.86 -0.438,1.656 -1.153,2.125 l -2.456,1.596 -0.143,1.046 c -0.798,6.053 -4.198,13.895 -9.082,20.983 z"
       id="path5"
       style="fill:#ffffff" /><path
       d="m 124.486,285.664 v -8.15 C 123.499,274.272 123,270.907 123,267.464 v -104.37 c 0,-16.4 11.666,-30.667 27.737,-33.92 l 8.688,-1.759 c -0.955,-1.997 -1.825,-3.997 -2.598,-5.981 -0.586,-1.334 -1.137,-2.685 -1.65,-4.046 -0.19,-0.239 -0.373,-0.483 -0.556,-0.729 l -28.179,-5.637 c -1.461,-1.67 -3.257,-3.015 -5.257,-3.96 2.273,-2.54 4.201,-5.108 5.667,-7.234 3.534,-5.125 6.475,-10.647 8.516,-15.972 1.004,-2.246 1.853,-4.504 2.554,-6.717 2.735,-2.298 4.348,-5.731 4.348,-9.331 v -8.82 c 0,-2.536 -0.791,-5.007 -2.252,-7.063 V 39.505 C 140.018,17.721 122.293,0 100.506,0 H 87.699 C 65.919,0 48.195,17.721 48.195,39.505 v 12.42 c -1.461,2.055 -2.259,4.528 -2.259,7.061 v 8.82 c 0,3.6 1.612,7.027 4.354,9.329 0.696,2.21 1.549,4.471 2.555,6.723 2.035,5.322 4.979,10.844 8.514,15.966 1.47,2.132 3.399,4.702 5.681,7.253 -1.993,0.946 -3.779,2.287 -5.237,3.95 l -28.461,5.766 c -7.515,1.522 -12.92,8.128 -12.92,15.803 v 104.372 c 0,2.415 0.535,4.707 1.486,6.761 v 11.439 c 0,7.788 6.313,14.105 14.106,14.105 2.84,0 5.489,-0.847 7.702,-2.294 v 108.045 c 0,13.985 11.337,25.322 25.324,25.322 13.98,0 25.317,-11.336 25.317,-25.322 0,13.985 11.333,25.322 25.326,25.322 13.979,0 25.312,-11.336 25.312,-25.322 V 315.931 C 132.99,311.122 124.486,299.367 124.486,285.664 z M 86.524,143.241 c -0.107,1.033 -0.833,1.899 -1.84,2.177 -0.226,0.065 -0.451,0.092 -0.678,0.092 -0.784,0 -1.538,-0.361 -2.02,-1.005 l -7.117,-9.439 c -0.331,-0.439 -0.509,-0.975 -0.509,-1.526 l 0.006,-15.128 c 0.002,-0.888 0.469,-1.711 1.23,-2.172 0.756,-0.458 1.701,-0.479 2.488,-0.068 2.069,1.097 4.141,1.833 6.147,2.187 1.206,0.218 2.087,1.269 2.087,2.494 v 6.313 c 0.363,0.145 0.69,0.366 0.956,0.662 0.48,0.534 0.713,1.244 0.64,1.954 l -1.39,13.459 z m 26.807,-8.176 -7.103,9.43 c -0.488,0.646 -1.241,1.013 -2.022,1.013 -0.227,0 -0.458,-0.033 -0.684,-0.092 -1.003,-0.279 -1.733,-1.145 -1.839,-2.181 l -1.384,-13.456 c -0.074,-0.71 0.156,-1.419 0.635,-1.954 0.264,-0.296 0.59,-0.517 0.959,-0.662 v -6.313 c 0,-1.226 0.881,-2.276 2.089,-2.494 2,-0.353 4.069,-1.088 6.142,-2.185 0.789,-0.412 1.731,-0.389 2.489,0.068 0.765,0.459 1.224,1.284 1.224,2.172 l 0.002,15.13 c -0.001,0.551 -0.177,1.087 -0.508,1.524 z m 2.575,-43.103 c -6.193,8.983 -11.99,13.002 -15,13.002 H 87.303 c -3.006,0 -8.811,-4.02 -15.002,-13.002 -4.886,-7.088 -8.285,-14.928 -9.082,-20.98 l -0.14,-1.049 -2.457,-1.595 c -0.718,-0.469 -1.153,-1.265 -1.153,-2.126 v -4.164 c 0,-1.399 1.135,-2.535 2.534,-2.535 h 1.031 v -4.517 c 0,-0.96 0.546,-1.834 1.403,-2.265 3.488,-1.736 10.406,-4.66 17.57,-4.66 5.71,0 10.45,1.902 14.082,5.65 4.522,4.68 9.742,7.048 15.495,7.048 3.268,0 6.633,-0.768 10.019,-2.289 0.784,-0.351 1.692,-0.282 2.416,0.187 0.338,0.217 0.607,0.508 0.807,0.845 h 1.381 c 1.399,0 2.536,1.136 2.536,2.535 v 4.165 c 0,0.86 -0.438,1.656 -1.155,2.125 l -2.455,1.596 -0.142,1.046 c -0.8,6.053 -4.198,13.895 -9.085,20.983 z"
       id="path7"
       style="fill:#ffffff" /><path
       d="m 287.868,274.225 c 0.959,-2.054 1.491,-4.347 1.491,-6.762 V 163.11 c 0,-7.686 -5.427,-14.306 -12.958,-15.813 l -28.894,-5.78 c -1.461,-1.67 -3.259,-3.016 -5.258,-3.959 2.273,-2.542 4.2,-5.109 5.667,-7.234 3.533,-5.126 6.475,-10.647 8.515,-15.974 1.005,-2.246 1.854,-4.503 2.553,-6.718 2.735,-2.296 4.35,-5.731 4.35,-9.331 v -8.82 c 0,-2.535 -0.791,-5.007 -2.254,-7.063 V 70.002 c 0,-21.784 -17.723,-39.504 -39.508,-39.504 h -12.809 c -21.781,0 -39.505,17.72 -39.505,39.504 v 12.42 C 167.798,84.477 167,86.95 167,89.483 v 8.82 c 0,3.6 1.611,7.027 4.354,9.329 0.697,2.21 1.549,4.473 2.555,6.723 2.035,5.324 4.978,10.845 8.514,15.968 1.469,2.132 3.398,4.702 5.681,7.251 -1.994,0.946 -3.778,2.289 -5.236,3.951 l -28.462,5.766 c -7.515,1.521 -12.92,8.128 -12.92,15.804 v 104.37 c 0,2.415 0.535,4.708 1.485,6.762 v 11.439 c 0,7.788 6.313,14.107 14.106,14.107 2.841,0 5.489,-0.848 7.701,-2.295 V 405.52 c 0,13.986 11.339,25.323 25.326,25.323 13.979,0 25.317,-11.336 25.317,-25.323 0,13.986 11.331,25.323 25.324,25.323 13.98,0 25.311,-11.336 25.311,-25.323 V 297.475 c 2.219,1.448 4.864,2.296 7.708,2.296 7.793,0 14.103,-6.319 14.103,-14.107 V 274.225 z M 207.587,173.739 c -0.106,1.033 -0.834,1.897 -1.839,2.176 -0.225,0.064 -0.451,0.092 -0.678,0.092 -0.784,0 -1.539,-0.361 -2.02,-1.005 l -7.119,-9.441 c -0.33,-0.438 -0.509,-0.975 -0.509,-1.526 l 0.008,-15.128 c 0.002,-0.889 0.467,-1.711 1.229,-2.172 0.757,-0.458 1.703,-0.481 2.489,-0.069 2.069,1.098 4.139,1.833 6.147,2.188 1.205,0.217 2.086,1.269 2.086,2.494 v 6.311 c 0.365,0.147 0.691,0.368 0.957,0.662 0.48,0.535 0.712,1.244 0.638,1.955 l -1.389,13.463 z m 26.807,-8.178 -7.104,9.432 c -0.487,0.645 -1.239,1.012 -2.021,1.012 -0.227,0 -0.458,-0.033 -0.685,-0.092 -1.002,-0.281 -1.731,-1.145 -1.837,-2.182 l -1.384,-13.455 c -0.074,-0.711 0.155,-1.42 0.634,-1.955 0.264,-0.294 0.592,-0.515 0.959,-0.662 v -6.311 c 0,-1.226 0.882,-2.277 2.089,-2.494 2.001,-0.354 4.069,-1.089 6.143,-2.186 0.788,-0.411 1.732,-0.388 2.489,0.07 0.765,0.458 1.225,1.282 1.225,2.172 l 0.001,15.129 c -0.001,0.549 -0.178,1.085 -0.509,1.522 z m 2.574,-43.101 c -6.191,8.981 -11.99,13.001 -15,13.001 h -13.603 c -3.006,0 -8.811,-4.021 -15.002,-13.001 -4.885,-7.088 -8.285,-14.928 -9.082,-20.982 l -0.139,-1.048 -2.457,-1.596 c -0.719,-0.468 -1.153,-1.264 -1.153,-2.124 v -4.164 c 0,-1.4 1.134,-2.535 2.534,-2.535 h 1.031 v -4.517 c 0,-0.961 0.544,-1.836 1.401,-2.266 3.488,-1.737 10.408,-4.66 17.572,-4.66 5.71,0 10.45,1.902 14.082,5.651 4.521,4.678 9.741,7.048 15.494,7.048 3.268,0 6.634,-0.769 10.02,-2.289 0.783,-0.352 1.69,-0.282 2.415,0.185 0.338,0.219 0.607,0.508 0.808,0.847 h 1.381 c 1.399,0 2.535,1.134 2.535,2.535 v 4.165 c 0,0.86 -0.437,1.656 -1.153,2.124 l -2.455,1.596 -0.142,1.047 c -0.8,6.052 -4.199,13.895 -9.087,20.983 z"
       id="path9"
       style="fill:#ffffff" /></g><g
     id="g11" /><g
     id="g13" /><g
     id="g15" /><g
     id="g17" /><g
     id="g19" /><g
     id="g21" /><g
     id="g23" /><g
     id="g25" /><g
     id="g27" /><g
     id="g29" /><g
     id="g31" /><g
     id="g33" /><g
     id="g35" /><g
     id="g37" /><g
     id="g39" /></svg>