<?xml version="1.0" encoding="UTF-8" standalone="no"?>
<!-- Created with Inkscape (http://www.inkscape.org/) -->

<svg
   xmlns:dc="http://purl.org/dc/elements/1.1/"
   xmlns:cc="http://creativecommons.org/ns#"
   xmlns:rdf="http://www.w3.org/1999/02/22-rdf-syntax-ns#"
   xmlns:svg="http://www.w3.org/2000/svg"
   xmlns="http://www.w3.org/2000/svg"
   version="1.1"
   width="512"
   height="512"
   viewBox="0 0 512 512"
   id="Layer_1"
   xml:space="preserve"><metadata
     id="metadata17"><rdf:RDF><cc:Work
         rdf:about=""><dc:format>image/svg+xml</dc:format><dc:type
           rdf:resource="http://purl.org/dc/dcmitype/StillImage" /><dc:title></dc:title></cc:Work></rdf:RDF></metadata><defs
     id="defs15" /><g
     id="g3"
     style="fill:#ffffff"><circle
       cx="279.95901"
       cy="230.24001"
       r="8.8540001"
       id="circle5"
       style="fill:#ffffff" /><circle
       cx="330.55399"
       cy="168.116"
       r="11.732"
       id="circle7"
       style="fill:#ffffff" /><circle
       cx="228.955"
       cy="152.937"
       r="15.73"
       id="circle9"
       style="fill:#ffffff" /><path
       d="M 393.247,101.212 C 374.176,77.35 324.639,36.966 259.942,36.966 c -43.259,0 -84.422,18.085 -122.344,53.752 -0.065,0.062 -0.129,0.124 -0.191,0.188 -36.981,38.043 -32.149,73.185 -26.028,117.7 0.376,2.738 0.758,5.514 1.136,8.332 1.014,7.565 -5.607,19.235 -12.011,30.522 -9.623,16.958 -19.572,34.494 -7.417,42.777 20.771,14.157 24.38,42.019 27.873,68.978 0.83,6.402 1.688,13.022 2.76,19.458 1.85,11.104 11.219,16.501 28.642,16.501 7.747,0 16.02,-0.957 24.027,-1.882 6.861,-0.792 13.342,-1.542 18.53,-1.542 2.9,0 5.166,0.232 6.925,0.708 20.933,5.673 39.22,47.999 45.831,73.345 0.536,2.057 2.121,3.676 4.166,4.257 0.541,0.154 1.092,0.229 1.639,0.229 1.522,0 3.012,-0.58 4.143,-1.66 L 364.914,366.235 c 1.661,-1.585 2.271,-3.979 1.573,-6.167 -9.473,-29.639 10.213,-58.567 27.587,-84.1 7.581,-11.141 14.741,-21.663 19.638,-32.027 22.589,-47.808 6.316,-109.22 -20.465,-142.729 z m -148.332,100.94 -3.996,-6.342 c -2.963,0.826 -5.976,1.34 -8.992,1.537 l -1.659,7.312 c -0.596,2.625 -3.208,4.271 -5.833,3.674 l -15.319,-3.478 c -2.626,-0.597 -4.271,-3.208 -3.676,-5.833 l 1.66,-7.312 c -2.636,-1.48 -5.131,-3.244 -7.447,-5.268 l -6.341,3.995 c -2.278,1.435 -5.289,0.752 -6.724,-1.526 l -8.373,-13.291 c -1.435,-2.279 -0.752,-5.289 1.526,-6.724 l 6.341,-3.995 c -0.826,-2.963 -1.34,-5.976 -1.536,-8.992 l -7.313,-1.66 c -2.624,-0.596 -4.27,-3.208 -3.674,-5.833 l 3.478,-15.319 c 0.596,-2.626 3.208,-4.271 5.834,-3.675 l 7.312,1.66 c 1.479,-2.637 3.244,-5.132 5.268,-7.448 l -3.995,-6.341 c -1.435,-2.278 -0.752,-5.288 1.526,-6.723 l 13.291,-8.373 c 2.278,-1.436 5.288,-0.753 6.724,1.525 l 3.995,6.341 c 2.963,-0.825 5.976,-1.34 8.993,-1.536 l 1.659,-7.312 c 0.596,-2.625 3.207,-4.271 5.833,-3.674 l 15.318,3.477 c 2.626,0.597 4.271,3.209 3.675,5.833 l -1.659,7.312 c 2.636,1.48 5.132,3.245 7.448,5.269 l 6.341,-3.995 c 2.278,-1.435 5.288,-0.752 6.724,1.526 l 8.373,13.291 c 1.436,2.278 0.751,5.289 -1.526,6.724 l -6.341,3.995 c 0.825,2.963 1.339,5.976 1.536,8.993 l 7.311,1.659 c 2.625,0.596 4.271,3.208 3.675,5.833 l -3.478,15.319 c -0.597,2.626 -3.208,4.271 -5.833,3.675 l -7.312,-1.66 c -1.479,2.636 -3.244,5.132 -5.269,7.448 l 3.995,6.342 c 1.436,2.277 0.751,5.288 -1.526,6.723 l -13.291,8.373 c -2.279,1.435 -5.289,0.751 -6.723,-1.526 z m 64.165,27.694 -4.075,1.094 c -0.045,1.701 -0.269,3.407 -0.668,5.091 l 3.654,2.108 c 1.313,0.757 1.763,2.435 1.006,3.749 l -4.419,7.659 c -0.758,1.313 -2.436,1.763 -3.748,1.005 l -3.654,-2.108 c -1.259,1.188 -2.624,2.236 -4.074,3.126 l 1.094,4.076 c 0.394,1.464 -0.476,2.969 -1.939,3.361 l -8.539,2.292 c -1.465,0.393 -2.97,-0.476 -3.362,-1.939 l -1.094,-4.077 c -1.701,-0.044 -3.407,-0.267 -5.092,-0.667 l -2.108,3.654 c -0.757,1.313 -2.435,1.763 -3.748,1.005 l -7.659,-4.418 c -1.313,-0.758 -1.764,-2.436 -1.007,-3.749 l 2.108,-3.654 c -1.189,-1.259 -2.235,-2.625 -3.126,-4.074 l -4.076,1.094 c -1.463,0.393 -2.969,-0.476 -3.361,-1.939 l -2.292,-8.541 c -0.393,-1.464 0.477,-2.97 1.94,-3.362 l 4.076,-1.094 c 0.045,-1.7 0.268,-3.406 0.666,-5.091 l -3.653,-2.108 c -1.313,-0.757 -1.764,-2.436 -1.006,-3.749 l 4.418,-7.659 c 0.758,-1.313 2.437,-1.763 3.749,-1.006 l 3.653,2.108 c 1.26,-1.189 2.624,-2.236 4.074,-3.126 l -1.094,-4.076 c -0.393,-1.464 0.477,-2.969 1.939,-3.361 l 8.541,-2.292 c 1.464,-0.392 2.969,0.476 3.361,1.94 l 1.094,4.076 c 1.701,0.044 3.407,0.268 5.093,0.667 l 2.106,-3.654 c 0.758,-1.313 2.437,-1.763 3.749,-1.006 l 7.659,4.418 c 1.313,0.758 1.763,2.436 1.006,3.748 l -2.108,3.654 c 1.189,1.259 2.236,2.624 3.126,4.075 l 4.076,-1.094 c 1.464,-0.393 2.969,0.477 3.361,1.939 l 2.292,8.54 c 0.393,1.467 -0.476,2.973 -1.939,3.365 z m 60.06,-62.252 -5.401,1.449 c -0.059,2.254 -0.354,4.515 -0.884,6.747 l 4.842,2.793 c 1.74,1.004 2.336,3.227 1.333,4.967 l -5.854,10.149 c -1.005,1.74 -3.228,2.336 -4.967,1.333 l -4.842,-2.793 c -1.669,1.576 -3.478,2.963 -5.399,4.143 l 1.45,5.401 c 0.521,1.939 -0.631,3.934 -2.57,4.454 l -11.316,3.036 c -1.94,0.521 -3.935,-0.629 -4.455,-2.569 l -1.449,-5.402 c -2.254,-0.059 -4.514,-0.354 -6.746,-0.883 l -2.793,4.842 c -1.004,1.739 -3.228,2.336 -4.967,1.332 l -10.149,-5.854 c -1.74,-1.004 -2.336,-3.228 -1.333,-4.966 l 2.794,-4.843 c -1.576,-1.668 -2.964,-3.477 -4.144,-5.398 l -5.4,1.449 c -1.939,0.521 -3.935,-0.63 -4.454,-2.569 L 289.4,173.096 c -0.521,-1.94 0.629,-3.935 2.569,-4.455 l 5.401,-1.449 c 0.059,-2.254 0.355,-4.515 0.884,-6.747 l -4.843,-2.793 c -1.739,-1.003 -2.335,-3.227 -1.332,-4.966 l 5.854,-10.149 c 1.004,-1.74 3.228,-2.336 4.968,-1.333 l 4.841,2.793 c 1.669,-1.576 3.478,-2.963 5.399,-4.143 l -1.449,-5.4 c -0.521,-1.94 0.63,-3.934 2.569,-4.455 l 11.316,-3.037 c 1.94,-0.521 3.934,0.63 4.455,2.571 l 1.449,5.4 c 2.254,0.059 4.515,0.354 6.747,0.884 l 2.793,-4.842 c 1.003,-1.74 3.227,-2.336 4.966,-1.333 l 10.149,5.854 c 1.74,1.004 2.336,3.228 1.333,4.966 l -2.794,4.842 c 1.576,1.668 2.964,3.477 4.144,5.399 l 5.4,-1.449 c 1.939,-0.521 3.934,0.63 4.454,2.57 l 3.037,11.316 c 0.52,1.94 -0.63,3.934 -2.57,4.454 z"
       id="path11"
       style="fill:#ffffff" /></g></svg>