<?xml version="1.0" encoding="UTF-8" standalone="no"?>
<!-- Created with Inkscape (http://www.inkscape.org/) -->

<svg
   xmlns:dc="http://purl.org/dc/elements/1.1/"
   xmlns:cc="http://creativecommons.org/ns#"
   xmlns:rdf="http://www.w3.org/1999/02/22-rdf-syntax-ns#"
   xmlns:svg="http://www.w3.org/2000/svg"
   xmlns="http://www.w3.org/2000/svg"
   version="1.1"
   width="100%"
   height="100%"
   viewBox="0 0 370.04 370.04"
   id="Capa_1"
   xml:space="preserve"><metadata
     id="metadata46"><rdf:RDF><cc:Work
         rdf:about=""><dc:format>image/svg+xml</dc:format><dc:type
           rdf:resource="http://purl.org/dc/dcmitype/StillImage" /><dc:title></dc:title></cc:Work></rdf:RDF></metadata><defs
     id="defs44" /><g
     id="g3"
     style="fill:#ffffff"><g
       id="Layer_5_21_"
       style="fill:#ffffff"><g
         id="g6"
         style="fill:#ffffff"><path
           d="m 341.668,314.412 c 0,0 -41.071,-70.588 -48.438,-83.248 8.382,-2.557 17.311,-4.815 21.021,-11.221 6.183,-10.674 -4.823,-28.184 -1.933,-39.625 2.977,-11.775 20.551,-21.964 20.551,-33.933 0,-11.661 -18.169,-25.284 -21.148,-36.99 -2.91,-11.439 8.063,-28.968 1.86,-39.629 -6.203,-10.662 -26.864,-9.786 -35.369,-17.97 -8.751,-8.422 -8.724,-29.028 -19.279,-34.672 -10.598,-5.665 -27.822,5.784 -39.589,3.072 C 207.711,17.515 197.318,0 185.167,0 c -12.331,0 -31.944,19.868 -35.02,20.583 -11.761,2.734 -29.007,-8.687 -39.594,-2.998 -10.545,5.663 -10.48,26.271 -19.215,34.707 -8.491,8.199 -29.153,7.361 -35.337,18.035 -6.183,10.672 4.823,28.178 1.934,39.625 -2.897,11.476 -21.083,23.104 -21.083,36.376 0,11.97 17.618,22.127 20.613,33.896 2.911,11.439 -8.062,28.966 -1.859,39.631 3.377,5.805 11.039,8.188 18.691,10.479 0.893,0.267 2.582,1.266 1.438,2.933 -5.235,9.036 -47.37,81.755 -47.37,81.755 -3.352,5.784 -0.63,10.742 6.047,11.023 l 32.683,1.363 c 6.677,0.281 15.053,5.133 18.617,10.786 l 17.44,27.674 c 3.564,5.653 9.219,5.547 12.57,-0.236 0,0 48.797,-84.246 48.817,-84.27 0.979,-1.144 1.963,-0.909 2.434,-0.509 5.339,4.546 12.782,9.081 18.994,9.081 6.092,0 11.733,-4.269 17.313,-9.03 0.454,-0.387 1.559,-1.18 2.367,0.466 0.013,0.026 48.756,83.811 48.756,83.811 3.36,5.776 9.016,5.874 12.569,0.214 l 17.391,-27.707 c 3.554,-5.657 11.921,-10.528 18.598,-10.819 l 32.68,-1.424 c 6.674,-0.293 9.387,-5.258 6.027,-11.033 z M 239.18,238.631 c -36.136,21.023 -79.511,18.77 -112.641,-2.127 C 77.994,205.409 62.021,141.085 91.204,90.716 120.72,39.766 185.603,21.788 237.012,49.787 c 0.27,0.147 0.537,0.299 0.805,0.449 0.381,0.211 0.761,0.425 1.14,0.641 15.86,9.144 29.613,22.415 39.461,39.342 30.098,51.736 12.497,118.314 -39.238,148.412 z"
           id="path8"
           style="fill:#ffffff" /><path
           d="m 230.916,66.103 c -0.15,-0.087 -0.302,-0.168 -0.452,-0.254 C 203.002,49.955 168,48.793 138.665,65.86 95.133,91.186 80.32,147.205 105.646,190.736 c 7.728,13.284 18.318,23.888 30.536,31.498 1.039,0.658 2.09,1.305 3.164,1.927 43.579,25.247 99.568,10.333 124.814,-33.244 25.245,-43.579 10.335,-99.567 -33.244,-124.814 z m 10.902,71.241 -15.259,14.873 c -4.726,4.606 -7.68,13.698 -6.563,20.203 l 3.602,21.001 c 1.116,6.505 -2.75,9.314 -8.592,6.243 l -18.861,-9.916 c -5.842,-3.071 -15.401,-3.071 -21.243,0 l -18.86,9.916 c -5.842,3.071 -9.709,0.262 -8.593,-6.243 l 3.602,-21.001 c 1.116,-6.505 -1.838,-15.597 -6.564,-20.203 l -15.258,-14.873 c -4.727,-4.606 -3.249,-9.152 3.282,-10.102 l 21.086,-3.064 c 6.531,-0.949 14.265,-6.568 17.186,-12.486 l 9.43,-19.107 c 2.921,-5.918 7.701,-5.918 10.621,0 l 9.431,19.107 c 2.921,5.918 10.654,11.537 17.186,12.486 l 21.086,3.064 c 6.53,0.95 8.007,5.496 3.281,10.102 z"
           id="path10"
           style="fill:#ffffff" /></g></g></g><g
     id="g12" /><g
     id="g14" /><g
     id="g16" /><g
     id="g18" /><g
     id="g20" /><g
     id="g22" /><g
     id="g24" /><g
     id="g26" /><g
     id="g28" /><g
     id="g30" /><g
     id="g32" /><g
     id="g34" /><g
     id="g36" /><g
     id="g38" /><g
     id="g40" /></svg>