<?xml version="1.0" encoding="UTF-8" standalone="no"?>
<!-- Generator: Adobe Illustrator 15.0.2, SVG Export Plug-In . SVG Version: 6.00 Build 0)  -->

<svg
   xmlns:dc="http://purl.org/dc/elements/1.1/"
   xmlns:cc="http://creativecommons.org/ns#"
   xmlns:rdf="http://www.w3.org/1999/02/22-rdf-syntax-ns#"
   xmlns:svg="http://www.w3.org/2000/svg"
   xmlns="http://www.w3.org/2000/svg"
   xmlns:xlink="http://www.w3.org/1999/xlink"
   xmlns:sodipodi="http://sodipodi.sourceforge.net/DTD/sodipodi-0.dtd"
   xmlns:inkscape="http://www.inkscape.org/namespaces/inkscape"
   version="1.1"
   x="0px"
   y="0px"
   width="800"
   height="753.91113"
   viewBox="0 0 800 753.91113"
   xml:space="preserve"
   id="svg3913"
   inkscape:version="0.48.4 r9939"
   sodipodi:docname="round-town.svg"><metadata
     id="metadata4801"><rdf:RDF><cc:Work
         rdf:about=""><dc:format>image/svg+xml</dc:format><dc:type
           rdf:resource="http://purl.org/dc/dcmitype/StillImage" /></cc:Work></rdf:RDF></metadata><defs
     id="defs4799" /><sodipodi:namedview
     pagecolor="#ffffff"
     bordercolor="#666666"
     borderopacity="1"
     objecttolerance="10"
     gridtolerance="10"
     guidetolerance="10"
     inkscape:pageopacity="0"
     inkscape:pageshadow="2"
     inkscape:window-width="1871"
     inkscape:window-height="1056"
     id="namedview4797"
     showgrid="false"
     fit-margin-top="0"
     fit-margin-left="0"
     fit-margin-right="0"
     fit-margin-bottom="0"
     inkscape:zoom="0.80345008"
     inkscape:cx="288.41809"
     inkscape:cy="494.70867"
     inkscape:window-x="49"
     inkscape:window-y="24"
     inkscape:window-maximized="1"
     inkscape:current-layer="svg3913" /><g
     id="background"
     transform="translate(0,-55.088865)"><g
       id="g3916"><defs
         id="defs3918"><rect
           id="SVGID_1_"
           y="47"
           width="800"
           height="758"
           x="0" /></defs><clipPath
         id="SVGID_2_"><use
           xlink:href="#SVGID_1_"
           style="overflow:visible"
           id="use3922"
           x="0"
           y="0"
           width="800"
           height="800" /></clipPath><path
         style="fill:#c5c158"
         d="m -73.9,900.8 c 0,-227.4 208.2,-411.7 465,-411.7 256.8,0 465,184.3 465,411.7"
         id="path3924"
         clip-path="url(#SVGID_2_)"
         inkscape:connector-curvature="0" /></g></g><g
     id="object"
     transform="translate(0,-55.088865)"><circle
       style="fill:#fdbe31"
       cx="535.5"
       cy="228.5"
       r="53.5"
       id="circle3927"
       sodipodi:cx="535.5"
       sodipodi:cy="228.5"
       sodipodi:rx="53.5"
       sodipodi:ry="53.5"
       d="m 589,228.5 c 0,29.54723 -23.95277,53.5 -53.5,53.5 -29.54723,0 -53.5,-23.95277 -53.5,-53.5 0,-29.54723 23.95277,-53.5 53.5,-53.5 29.54723,0 53.5,23.95277 53.5,53.5 z" /><g
       id="g3929"><path
         style="fill:#aaa84b"
         d="m 328.3,448.5 c -7,0.4 -13.9,-4.7 -17.8,-9.2 -2.4,-2.7 -3.7,-5.7 -4.3,-8.9 -0.2,-0.9 -1.2,-3.5 0.3,-3.9 0.9,-0.2 2.8,1.8 3.8,2.1 1.3,-3.5 -1.6,-7.3 -1.4,-10.9 0.2,-2.7 1.9,-8.6 4.5,-10.3 0.4,1 0.4,2.1 0.9,3.2 2.4,-1.9 1.9,-7.3 3.1,-10 1.4,-3.1 4.4,-9.6 7.7,-11.6 7.3,-4.3 12,12.2 14.8,15.4 2.1,-1 1.2,-3.7 1.4,-5.6 2.9,-0.1 5.7,6.6 6.3,8.8 0.7,2.5 -0.2,10 1.3,11.3 0.4,-0.6 1.3,-1.2 1.5,-2.1 7.9,4.5 5,16.4 0.7,21.9 -5,6.5 -12.3,9.8 -21.5,9.7 h -1.3 z"
         id="path3931"
         inkscape:connector-curvature="0" /><path
         style="fill:#5c4130"
         d="m 329.5,450.2 c 1.5,3.4 -0.5,8.6 -0.9,12.1 -0.4,3.6 -1.3,7.1 -1.1,10.7 3.1,0.4 6.7,-0.4 9.9,-0.5 -2.4,-5.4 -2.1,-11.1 -2.7,-16.8 -0.1,-1.2 -0.9,-3 -0.5,-4.2 0.5,-1.5 2.2,-1.8 3.5,-3 1.6,-1.5 3.9,-4.8 3.5,-6.9 -1.5,0.3 -2.4,2.6 -3.7,2.8 -2.4,0.4 -0.8,-2.6 -0.4,-3.8 0.6,-2 3,-7.1 0.7,-8.7 -1.7,1.3 -1.8,4.6 -2.4,6.4 -0.6,-0.7 -0.6,-1.8 -1.7,-2.5 -0.9,0.8 2.5,11.3 -2.9,9.3 -3.4,-1.3 -3.4,-9.9 -8.2,-9.2 0,1.2 1.3,1.3 1.1,2.6 -0.9,-0.3 -2,0 -2.8,-0.1 0.1,1.5 1.4,0.9 2.4,1.6 1,0.7 1.6,1.6 2.3,2.5 1.1,1.6 2.8,3.8 2.6,5.7 -2.7,0.4 -5,-2.8 -7.8,-2.9 -1.3,3.6 6.6,4.1 9.1,4.9 l 0,0 z"
         id="path3933"
         inkscape:connector-curvature="0" /></g><g
       id="g3935"><path
         style="fill:#aaa84b"
         d="m 715.1,548.7 c -5.3,-4.5 -6.9,-13 -6.6,-18.9 0.1,-3.6 1.2,-6.7 3,-9.4 0.5,-0.8 1.5,-3.3 2.9,-2.6 0.8,0.4 0.8,3.2 1.3,4.1 3.3,-1.6 3.8,-6.4 6.5,-8.9 2,-1.9 7.3,-4.9 10.3,-4.4 -0.4,1 -1.2,1.8 -1.5,2.9 3.1,0.3 6.4,-4 9.1,-5.2 3.1,-1.3 9.8,-4 13.6,-3.1 8.2,1.9 0.4,17.1 0.2,21.3 2.2,0.7 3.5,-1.8 4.8,-3.1 2.2,2 -0.4,8.7 -1.4,10.7 -1.2,2.3 -7,7.1 -6.8,9.2 0.7,-0.2 1.8,0 2.5,-0.5 2.6,8.7 -7.6,15.3 -14.5,16.4 -8.1,1.3 -15.6,-1.3 -22.3,-7.7 l -1.1,-0.8 z"
         id="path3937"
         inkscape:connector-curvature="0" /><path
         style="fill:#5c4130"
         d="m 714.7,550.7 c -1.2,3.5 -6.3,5.9 -9,8.1 -2.8,2.3 -5.8,4.3 -8.1,7 2,2.5 5.2,4.3 7.5,6.4 2,-5.6 6.1,-9.5 9.6,-14 0.8,-1 1.3,-2.8 2.5,-3.4 1.4,-0.7 2.9,0.2 4.5,0.2 2.2,0 6.2,-0.8 7.3,-2.6 -1.3,-0.8 -3.5,0.2 -4.6,-0.5 -2,-1.4 1.2,-2.4 2.3,-3 1.8,-1.1 7.1,-3.1 6.4,-5.9 -2.1,-0.3 -4.4,2.1 -6.2,3 0,-1 0.8,-1.8 0.5,-3 -1.2,-0.1 -6,9.9 -8.5,4.7 -1.6,-3.3 4.3,-9.5 0.4,-12.3 -0.8,0.9 0,1.8 -1,2.6 -0.4,-0.8 -1.4,-1.3 -2,-2 -1,1.1 0.4,1.6 0.6,2.8 0.2,1.2 0.1,2.2 -0.1,3.4 -0.3,1.9 -0.6,4.7 -2,5.9 -2.2,-1.6 -1.7,-5.5 -3.7,-7.5 -3.1,2.1 2.3,7.9 3.6,10.1 l 0,0 z"
         id="path3939"
         inkscape:connector-curvature="0" /></g><g
       id="g3941"><rect
         x="525.5"
         y="412.79999"
         transform="matrix(-0.9805,-0.1965,0.1965,-0.9805,965.5762,942.1704)"
         style="fill:#272a2f"
         width="8.1000004"
         height="20.799999"
         id="rect3943" /><polygon
         style="fill:#d46a56"
         points="513.6,409.4 534.9,455.2 528.9,485.1 471,473.5 477,443.6 "
         id="polygon3945" /><polygon
         style="fill:#3b3e43"
         points="548,465 537.3,462.9 513.1,413 471.7,449.7 461.2,447.6 515.9,400.2 "
         id="polygon3947" /><g
         style="opacity:0.6"
         id="g3949"><g
           id="g3951"><g
             id="g3953"><rect
               x="505.79999"
               y="454"
               transform="matrix(0.9805,0.1964,-0.1964,0.9805,100.5526,-91.2009)"
               style="fill:#231f20"
               width="8.5"
               height="14.6"
               id="rect3955" /></g><g
             id="g3957"><rect
               x="517.59998"
               y="456.39999"
               transform="matrix(0.9805,0.1964,-0.1964,0.9805,101.2056,-93.4322)"
               style="fill:#231f20"
               width="8.5"
               height="14.6"
               id="rect3959" /></g></g></g><circle
         style="opacity:0.6;fill:#231f20"
         cx="508.5"
         cy="433.79999"
         r="4.6999998"
         id="circle3961"
         sodipodi:cx="508.5"
         sodipodi:cy="433.79999"
         sodipodi:rx="4.6999998"
         sodipodi:ry="4.6999998"
         d="m 513.2,433.79999 c 0,2.59574 -2.10426,4.7 -4.7,4.7 -2.59574,0 -4.7,-2.10426 -4.7,-4.7 0,-2.59574 2.10426,-4.7 4.7,-4.7 2.59574,0 4.7,2.10426 4.7,4.7 z" /><rect
         x="471"
         y="472.89999"
         transform="matrix(-0.9805,-0.1965,0.1965,-0.9805,897.8245,1041.4021)"
         style="fill:#f3dbbd"
         width="59.099998"
         height="6.5"
         id="rect3963" /><path
         style="fill:#3b3e43"
         d="m 498.8,460.2 c 0.9,-4.4 -2,-8.8 -6.4,-9.6 -4.4,-0.9 -8.8,2 -9.6,6.4 l -3.6,18.1 16.1,3.2 3.5,-18.1 z"
         id="path3965"
         inkscape:connector-curvature="0" /></g><g
       id="g3967"><rect
         x="781.09998"
         y="548.20001"
         transform="matrix(-0.7455,-0.6665,0.6665,-0.7455,998.0988,1498.351)"
         style="fill:#272a2f"
         width="8.1000004"
         height="20.799999"
         id="rect3969" /><polygon
         style="fill:#d46a56"
         points="778.4,538.7 773.5,588.9 753.2,611.7 709.1,572.3 729.5,549.5 "
         id="polygon3971" /><polygon
         style="fill:#3b3e43"
         points="779.8,604 771.7,596.8 776.1,541.5 721.8,552.1 713.8,545 785,531.9 "
         id="polygon3973" /><g
         style="opacity:0.6"
         id="g3975"><g
           id="g3977"><g
             id="g3979"><rect
               x="744.79999"
               y="574.29999"
               transform="matrix(0.7455,0.6665,-0.6665,0.7455,578.2644,-351.1888)"
               style="fill:#231f20"
               width="8.5"
               height="14.6"
               id="rect3981" /></g><g
             id="g3983"><rect
               x="753.70001"
               y="582.29999"
               transform="matrix(0.7455,0.6665,-0.6665,0.7455,585.7906,-355.0942)"
               style="fill:#231f20"
               width="8.5"
               height="14.6"
               id="rect3985" /></g></g></g><circle
         style="opacity:0.6;fill:#231f20"
         cx="761.59998"
         cy="557.20001"
         r="4.6999998"
         id="circle3987"
         sodipodi:cx="761.59998"
         sodipodi:cy="557.20001"
         sodipodi:rx="4.6999998"
         sodipodi:ry="4.6999998"
         d="m 766.29998,557.20001 c 0,2.59574 -2.10427,4.7 -4.7,4.7 -2.59574,0 -4.7,-2.10426 -4.7,-4.7 0,-2.59574 2.10426,-4.7 4.7,-4.7 2.59573,0 4.7,2.10426 4.7,4.7 z" /><rect
         x="703.79999"
         y="586.40002"
         transform="matrix(-0.7455,-0.6665,0.6665,-0.7455,886.9794,1517.8901)"
         style="fill:#f3dbbd"
         width="59.099998"
         height="6.5"
         id="rect3989" /><path
         style="fill:#3b3e43"
         d="m 739.9,575 c 3,-3.4 2.7,-8.6 -0.6,-11.6 -3.4,-3 -8.6,-2.7 -11.6,0.6 l -12.3,13.8 12.2,10.9 12.3,-13.7 z"
         id="path3991"
         inkscape:connector-curvature="0" /></g><g
       id="g3993"><g
         id="g3995"><rect
           x="726.5"
           y="475.5"
           transform="matrix(-0.8472,-0.5313,0.5313,-0.8472,1091.3507,1285.7687)"
           style="fill:#272a2f"
           width="8.1000004"
           height="20.799999"
           id="rect3997" /><polygon
           style="fill:#fdbe31"
           points="720.6,467.4 724.3,517.7 696.3,562.4 646.2,531 674.2,486.3 "
           id="polygon3999" /><polygon
           style="fill:#3b3e43"
           points="733,531.6 723.8,525.9 718.8,470.6 667.1,490.2 658.1,484.5 726,459.6 "
           id="polygon4001" /><g
           style="opacity:0.6"
           id="g4003"><g
             id="g4005"><g
               id="g4007"><rect
                 x="676.70001"
                 y="491.70001"
                 transform="matrix(0.8471,0.5314,-0.5314,0.8471,368.8708,-285.6763)"
                 style="fill:#231f20"
                 width="8.5"
                 height="13.1"
                 id="rect4009" /></g><g
               id="g4011"><rect
                 x="686.79999"
                 y="498.10001"
                 transform="matrix(0.8471,0.5314,-0.5314,0.8471,373.7527,-290.0734)"
                 style="fill:#231f20"
                 width="8.5"
                 height="13.1"
                 id="rect4013" /></g><g
               id="g4015"><rect
                 x="697"
                 y="504.39999"
                 transform="matrix(0.8472,0.5313,-0.5313,0.8472,378.6337,-294.4702)"
                 style="fill:#231f20"
                 width="8.5"
                 height="13.1"
                 id="rect4017" /></g><g
               id="g4019"><rect
                 x="707.09998"
                 y="510.79999"
                 transform="matrix(0.8472,0.5313,-0.5313,0.8472,383.563,-298.8861)"
                 style="fill:#231f20"
                 width="8.5"
                 height="13.1"
                 id="rect4021" /></g></g></g><g
           style="opacity:0.6"
           id="g4023"><g
             id="g4025"><g
               id="g4027"><rect
                 x="682.40002"
                 y="526.09998"
                 transform="matrix(0.8471,0.5314,-0.5314,0.8471,388.4113,-283.3189)"
                 style="fill:#231f20"
                 width="8.5"
                 height="14.6"
                 id="rect4029" /></g><g
               id="g4031"><rect
                 x="692.59998"
                 y="532.5"
                 transform="matrix(0.8472,0.5313,-0.5313,0.8472,393.2602,-287.7056)"
                 style="fill:#231f20"
                 width="8.5"
                 height="14.6"
                 id="rect4033" /></g></g></g><circle
           style="opacity:0.6;fill:#231f20"
           cx="707.20001"
           cy="488.39999"
           r="4.6999998"
           id="circle4035"
           sodipodi:cx="707.20001"
           sodipodi:cy="488.39999"
           sodipodi:rx="4.6999998"
           sodipodi:ry="4.6999998"
           d="m 711.90001,488.39999 c 0,2.59574 -2.10426,4.7 -4.7,4.7 -2.59574,0 -4.7,-2.10426 -4.7,-4.7 0,-2.59573 2.10426,-4.7 4.7,-4.7 2.59574,0 4.7,2.10427 4.7,4.7 z" /><rect
           x="643.40002"
           y="540.70001"
           transform="matrix(-0.8472,-0.5313,0.5313,-0.8472,954.0323,1362.3767)"
           style="fill:#f3dbbd"
           width="59.099998"
           height="6.5"
           id="rect4037" /><path
           style="fill:#3b3e43"
           d="m 677,528.4 c 2.4,-3.8 1.2,-8.9 -2.6,-11.3 -3.8,-2.4 -8.9,-1.2 -11.3,2.6 l -9.8,15.7 13.9,8.7 9.8,-15.7 z"
           id="path4039"
           inkscape:connector-curvature="0" /></g><g
         id="g4041"><g
           id="g4043"><g
             id="g4045"><path
               style="fill:#664b3a"
               d="m 665.7,506.5 c -0.4,0.7 -1.5,0.9 -2.3,0.4 -0.8,-0.5 -1.1,-1.5 -0.7,-2.2 0.1,-0.2 0.9,-1.4 0.9,-1.4 l 2.9,1.9 c 0.1,-0.2 -0.3,0.5 -0.8,1.3 z"
               id="path4047"
               inkscape:connector-curvature="0" /><path
               style="fill:#ce9034"
               d="m 668.7,508.3 c -0.4,0.7 -1.5,0.9 -2.3,0.4 -0.8,-0.5 -1.1,-1.5 -0.7,-2.2 0.1,-0.2 0.9,-1.4 0.9,-1.4 l 2.9,1.9 c 0.1,-0.1 -0.4,0.6 -0.8,1.3 z"
               id="path4049"
               inkscape:connector-curvature="0" /></g><g
             id="g4051"><path
               style="fill:#664b3a"
               d="m 671.6,510.1 c -0.4,0.7 -1.5,0.9 -2.3,0.4 -0.8,-0.5 -1.1,-1.5 -0.7,-2.2 0.1,-0.2 0.9,-1.4 0.9,-1.4 l 2.9,1.9 c 0.1,-0.1 -0.3,0.6 -0.8,1.3 z"
               id="path4053"
               inkscape:connector-curvature="0" /><path
               style="fill:#ce9034"
               d="m 674.6,512 c -0.4,0.7 -1.5,0.9 -2.3,0.4 -0.8,-0.5 -1.1,-1.5 -0.7,-2.2 0.1,-0.2 0.9,-1.4 0.9,-1.4 l 2.9,1.9 c 0.1,-0.1 -0.4,0.6 -0.8,1.3 z"
               id="path4055"
               inkscape:connector-curvature="0" /></g><g
             id="g4057"><path
               style="fill:#664b3a"
               d="m 677.5,513.8 c -0.4,0.7 -1.5,0.9 -2.3,0.4 -0.8,-0.5 -1.1,-1.5 -0.7,-2.2 0.1,-0.2 0.9,-1.4 0.9,-1.4 l 2.9,1.9 c 0.1,-0.1 -0.3,0.6 -0.8,1.3 z"
               id="path4059"
               inkscape:connector-curvature="0" /><path
               style="fill:#ce9034"
               d="m 680.4,515.7 c -0.4,0.7 -1.5,0.9 -2.3,0.4 -0.8,-0.5 -1.1,-1.5 -0.7,-2.2 0.1,-0.2 0.9,-1.4 0.9,-1.4 l 2.9,1.9 c 0.1,-0.1 -0.3,0.6 -0.8,1.3 z"
               id="path4061"
               inkscape:connector-curvature="0" /></g><g
             id="g4063"><path
               style="fill:#664b3a"
               d="m 683.4,517.5 c -0.4,0.7 -1.5,0.9 -2.3,0.4 -0.8,-0.5 -1.1,-1.5 -0.7,-2.2 0.1,-0.2 0.9,-1.4 0.9,-1.4 l 2.9,1.9 c 0.1,-0.1 -0.4,0.6 -0.8,1.3 z"
               id="path4065"
               inkscape:connector-curvature="0" /><path
               style="fill:#ce9034"
               d="m 686.3,519.4 c -0.4,0.7 -1.5,0.9 -2.3,0.4 -0.8,-0.5 -1.1,-1.5 -0.7,-2.2 0.1,-0.2 0.9,-1.4 0.9,-1.4 l 2.9,1.9 c 0.1,-0.1 -0.3,0.6 -0.8,1.3 z"
               id="path4067"
               inkscape:connector-curvature="0" /></g><g
             id="g4069"><path
               style="fill:#664b3a"
               d="m 689.3,521.2 c -0.4,0.7 -1.5,0.9 -2.3,0.4 -0.8,-0.5 -1.1,-1.5 -0.7,-2.2 0.1,-0.2 0.9,-1.4 0.9,-1.4 l 2.9,1.9 c 0.1,-0.1 -0.4,0.6 -0.8,1.3 z"
               id="path4071"
               inkscape:connector-curvature="0" /><path
               style="fill:#ce9034"
               d="m 692.2,523.1 c -0.4,0.7 -1.5,0.9 -2.3,0.4 -0.8,-0.5 -1.1,-1.5 -0.7,-2.2 0.1,-0.2 0.9,-1.4 0.9,-1.4 l 2.9,1.9 c 0.1,-0.2 -0.3,0.6 -0.8,1.3 z"
               id="path4073"
               inkscape:connector-curvature="0" /></g><g
             id="g4075"><path
               style="fill:#664b3a"
               d="m 695.2,524.9 c -0.4,0.7 -1.5,0.9 -2.3,0.4 -0.8,-0.5 -1.1,-1.5 -0.7,-2.2 0.1,-0.2 0.9,-1.4 0.9,-1.4 l 2.9,1.9 c 0.1,-0.1 -0.4,0.6 -0.8,1.3 z"
               id="path4077"
               inkscape:connector-curvature="0" /><path
               style="fill:#ce9034"
               d="m 698.1,526.8 c -0.4,0.7 -1.5,0.9 -2.3,0.4 -0.8,-0.5 -1.1,-1.5 -0.7,-2.2 0.1,-0.2 0.9,-1.4 0.9,-1.4 l 2.9,1.9 c 0.1,-0.2 -0.3,0.6 -0.8,1.3 z"
               id="path4079"
               inkscape:connector-curvature="0" /></g><g
             id="g4081"><path
               style="fill:#664b3a"
               d="m 701.1,528.6 c -0.4,0.7 -1.5,0.9 -2.3,0.4 -0.8,-0.5 -1.1,-1.5 -0.7,-2.2 0.1,-0.2 0.9,-1.4 0.9,-1.4 l 2.9,1.9 c 0.1,-0.1 -0.4,0.6 -0.8,1.3 z"
               id="path4083"
               inkscape:connector-curvature="0" /><path
               style="fill:#ce9034"
               d="m 704,530.5 c -0.4,0.7 -1.5,0.9 -2.3,0.4 -0.8,-0.5 -1.1,-1.5 -0.7,-2.2 0.1,-0.2 0.9,-1.4 0.9,-1.4 l 2.9,1.9 c 0.1,-0.2 -0.4,0.5 -0.8,1.3 z"
               id="path4085"
               inkscape:connector-curvature="0" /></g><g
             id="g4087"><path
               style="fill:#664b3a"
               d="m 706.9,532.3 c -0.4,0.7 -1.5,0.9 -2.3,0.4 -0.8,-0.5 -1.1,-1.5 -0.7,-2.2 0.1,-0.2 0.9,-1.4 0.9,-1.4 l 2.9,1.9 c 0.1,-0.1 -0.3,0.6 -0.8,1.3 z"
               id="path4089"
               inkscape:connector-curvature="0" /><path
               style="fill:#ce9034"
               d="m 709.9,534.2 c -0.4,0.7 -1.5,0.9 -2.3,0.4 -0.8,-0.5 -1.1,-1.5 -0.7,-2.2 0.1,-0.2 0.9,-1.4 0.9,-1.4 l 2.9,1.9 c 0.1,-0.2 -0.4,0.5 -0.8,1.3 z"
               id="path4091"
               inkscape:connector-curvature="0" /></g><g
             id="g4093"><path
               style="fill:#664b3a"
               d="m 712.8,536 c -0.4,0.7 -1.5,0.9 -2.3,0.4 -0.8,-0.5 -1.1,-1.5 -0.7,-2.2 0.1,-0.2 0.9,-1.4 0.9,-1.4 l 2.9,1.9 c 0.1,-0.1 -0.3,0.6 -0.8,1.3 z"
               id="path4095"
               inkscape:connector-curvature="0" /></g></g><g
           id="g4097"><rect
             x="659.70001"
             y="517.20001"
             transform="matrix(0.8471,0.5314,-0.5314,0.8471,380.6433,-287.0165)"
             style="fill:#f3dbbd"
             width="59.099998"
             height="1.8"
             id="rect4099" /></g></g></g><g
       id="g4101"><g
         id="g4103"><polygon
           style="fill:#d46a56"
           points="34.2,480.8 85.9,496.5 117.9,543.1 62.8,580.8 30.9,534.2 "
           id="polygon4105" /><rect
           x="55.400002"
           y="556.79999"
           transform="matrix(-0.8247,0.5656,-0.5656,-0.8247,478.4211,970.9496)"
           style="fill:#f6e0c2"
           width="66.699997"
           height="5.6999998"
           id="rect4107" /><g
           id="g4109"><g
             id="g4111"><g
               id="g4113"><rect
                 x="59.700001"
                 y="551.70001"
                 transform="matrix(0.8247,-0.5655,0.5655,0.8247,-303.7334,134.4036)"
                 style="fill:#8d3b11"
                 width="10.6"
                 height="11"
                 id="rect4115" /></g><g
               id="g4117"><rect
                 x="90.5"
                 y="530.59998"
                 transform="matrix(0.8247,-0.5656,0.5656,0.8247,-286.3849,148.1581)"
                 style="fill:#8d3b11"
                 width="10.6"
                 height="11"
                 id="rect4119" /></g></g></g></g><circle
         style="fill:#8d3b11"
         cx="48.799999"
         cy="501"
         r="4.4000001"
         id="circle4121"
         sodipodi:cx="48.799999"
         sodipodi:cy="501"
         sodipodi:rx="4.4000001"
         sodipodi:ry="4.4000001"
         d="m 53.199999,501 c 0,2.43005 -1.969947,4.4 -4.4,4.4 -2.430053,0 -4.4,-1.96995 -4.4,-4.4 0,-2.43005 1.969947,-4.4 4.4,-4.4 2.430053,0 4.4,1.96995 4.4,4.4 z" /><g
         id="g4123"><g
           id="g4125"><rect
             x="40.900002"
             y="529.40002"
             transform="matrix(0.8247,-0.5655,0.5655,0.8247,-294.6329,120.2593)"
             style="fill:#8d3b11"
             width="11.6"
             height="12.1"
             id="rect4127" /><rect
             x="64.800003"
             y="513"
             transform="matrix(0.8247,-0.5656,0.5656,0.8247,-281.1661,130.9239)"
             style="fill:#8d3b11"
             width="11.6"
             height="12.1"
             id="rect4129" /><rect
             x="76.699997"
             y="504.79999"
             transform="matrix(0.8247,-0.5655,0.5655,0.8247,-274.4437,136.2263)"
             style="fill:#8d3b11"
             width="11.6"
             height="12.1"
             id="rect4131" /><rect
             x="52.799999"
             y="521.20001"
             transform="matrix(0.8247,-0.5656,0.5656,0.8247,-287.9471,125.5775)"
             style="fill:#8d3b11"
             width="11.6"
             height="12.1"
             id="rect4133" /></g></g><polygon
         style="fill:#f6e0c2"
         points="31,531.5 61,575.2 59.6,576.1 30.9,534.2 "
         id="polygon4135" /><polygon
         style="fill:#f6e0c2"
         points="86.1,496.8 114.6,538.4 113.3,539.3 83.3,495.6 "
         id="polygon4137" /><rect
         x="39.200001"
         y="533.5"
         transform="matrix(0.8247,-0.5656,0.5656,0.8247,-289.8599,134.0706)"
         style="fill:#3b3e43"
         width="64.199997"
         height="2.2"
         id="rect4139" /><polygon
         style="fill:#3b3e43"
         points="97.7,491.7 89.1,497.7 35.6,482.3 30.8,537.7 22.2,543.5 28.6,471.8 "
         id="polygon4141" /><path
         style="fill:#3b3e43"
         d="m 86.3,543.6 c -2.4,-3.5 -7.3,-4.5 -10.8,-2 -3.5,2.4 -4.4,7.3 -2,10.8 l 9.9,14.5 12.8,-8.8 -9.9,-14.5 z"
         id="path4143"
         inkscape:connector-curvature="0" /></g><g
       id="g4145"><g
         id="g4147"><polygon
           style="fill:#c5c158"
           points="129.8,435.4 188,466.2 203.8,501.3 130.8,534.1 115,499 "
           id="polygon4149" /><g
           id="g4151"><g
             id="g4153"><g
               id="g4155"><g
                 id="g4157"><rect
                   x="116.6"
                   y="498.5"
                   transform="matrix(0.912,-0.4101,0.4101,0.912,-195.3024,93.2173)"
                   style="fill:#f6e0c2"
                   width="6.0999999"
                   height="6.5999999"
                   id="rect4159" /></g></g><g
               id="g4161"><g
                 id="g4163"><rect
                   x="119.9"
                   y="506.10001"
                   transform="matrix(0.9121,-0.4101,0.4101,0.9121,-198.1799,94.6821)"
                   style="fill:#f6e0c2"
                   width="3.5999999"
                   height="6.5999999"
                   id="rect4165" /></g><g
                 id="g4167"><rect
                   x="122.9"
                   y="512.5"
                   transform="matrix(0.9119,-0.4104,0.4104,0.9119,-200.6065,97.1232)"
                   style="fill:#f6e0c2"
                   width="6.0999999"
                   height="6.6999998"
                   id="rect4169" /></g></g><g
               id="g4171"><g
                 id="g4173"><rect
                   x="126.2"
                   y="520.09998"
                   transform="matrix(0.9119,-0.4105,0.4105,0.9119,-203.5724,98.6566)"
                   style="fill:#f6e0c2"
                   width="3.5999999"
                   height="6.5999999"
                   id="rect4175" /></g></g></g></g><g
           id="g4177"><g
             id="g4179"><g
               id="g4181"><g
                 id="g4183"><rect
                   x="184"
                   y="468.20001"
                   transform="matrix(-0.9119,0.4103,-0.4103,-0.9119,551.1244,824.7888)"
                   style="fill:#f6e0c2"
                   width="6.0999999"
                   height="6.5999999"
                   id="rect4185" /></g></g><g
               id="g4187"><g
                 id="g4189"><rect
                   x="189.60001"
                   y="474.70001"
                   transform="matrix(-0.912,0.4102,-0.4102,-0.912,561.9446,835.5372)"
                   style="fill:#f6e0c2"
                   width="3.5999999"
                   height="6.5999999"
                   id="rect4191" /></g><g
                 id="g4193"><rect
                   x="190.3"
                   y="482.20001"
                   transform="matrix(-0.912,0.4102,-0.4102,-0.912,568.8358,848.9963)"
                   style="fill:#f6e0c2"
                   width="6.0999999"
                   height="6.5999999"
                   id="rect4195" /></g></g><g
               id="g4197"><g
                 id="g4199"><rect
                   x="195.89999"
                   y="488.70001"
                   transform="matrix(-0.9119,0.4103,-0.4103,-0.9119,579.7788,859.6195)"
                   style="fill:#f6e0c2"
                   width="3.5999999"
                   height="6.5999999"
                   id="rect4201" /></g></g></g></g><polygon
           style="fill:#3b3e43"
           points="202.9,463.1 191.5,468.3 131.1,437.5 114.2,503 102.8,508.1 125.1,423.5 "
           id="polygon4203" /><polyline
           style="fill:#f6e0c2"
           points="130.8,534.1 128,527.9 201,495 203.8,501.3    "
           id="polyline4205" /></g><g
         id="g4207"><path
           style="opacity:0.3;fill:#231f20"
           d="m 146.3,457.1 c -1.2,-2.5 -4.1,-3.5 -6.7,-2.4 -2.5,1.1 -3.7,4.1 -2.6,6.6 l 0,0 3.5,7.8 9.3,-4.2 -3.5,-7.8 0,0 z"
           id="path4209"
           inkscape:connector-curvature="0" /><g
           style="opacity:0.3"
           id="g4211"><g
             id="g4213"><g
               id="g4215"><path
                 style="fill:#231f20"
                 d="m 181.5,479.5 c -1.2,-2.5 -4.1,-3.5 -6.7,-2.4 -2.5,1.1 -3.7,4.1 -2.6,6.6 l 0,0 6.3,14 9.3,-4.2 -6.3,-14 0,0 z"
                 id="path4217"
                 inkscape:connector-curvature="0" /><path
                 style="fill:#231f20"
                 d="m 167.8,485.6 c -1.2,-2.5 -4.1,-3.5 -6.7,-2.4 -2.5,1.1 -3.7,4.1 -2.6,6.6 l 0,0 6.3,14 9.3,-4.2 -6.3,-14 0,0 z"
                 id="path4219"
                 inkscape:connector-curvature="0" /><path
                 style="fill:#231f20"
                 d="m 154.1,491.8 c -1.2,-2.5 -4.1,-3.5 -6.7,-2.4 -2.5,1.1 -3.7,4.1 -2.6,6.6 l 0,0 6.3,14 9.3,-4.2 -6.3,-14 0,0 z"
                 id="path4221"
                 inkscape:connector-curvature="0" /><path
                 style="fill:#231f20"
                 d="m 140.4,497.9 c -1.2,-2.5 -4.1,-3.5 -6.7,-2.4 -2.5,1.1 -3.7,4.1 -2.6,6.6 l 0,0 6.3,14 9.3,-4.2 -6.3,-14 0,0 z"
                 id="path4223"
                 inkscape:connector-curvature="0" /></g></g></g></g><g
         id="g4225"><path
           style="opacity:0.3;fill:#231f20"
           d="m 146.3,457.1 c -1.2,-2.5 -4.1,-3.5 -6.7,-2.4 -2.5,1.1 -3.7,4.1 -2.6,6.6 l 0,0 3.5,7.8 9.3,-4.2 -3.5,-7.8 0,0 z"
           id="path4227"
           inkscape:connector-curvature="0" /><g
           style="opacity:0.3"
           id="g4229"><g
             id="g4231"><g
               id="g4233"><path
                 style="fill:#231f20"
                 d="m 181.5,479.5 c -1.2,-2.5 -4.1,-3.5 -6.7,-2.4 -2.5,1.1 -3.7,4.1 -2.6,6.6 l 0,0 6.3,14 9.3,-4.2 -6.3,-14 0,0 z"
                 id="path4235"
                 inkscape:connector-curvature="0" /><path
                 style="fill:#231f20"
                 d="m 167.8,485.6 c -1.2,-2.5 -4.1,-3.5 -6.7,-2.4 -2.5,1.1 -3.7,4.1 -2.6,6.6 l 0,0 6.3,14 9.3,-4.2 -6.3,-14 0,0 z"
                 id="path4237"
                 inkscape:connector-curvature="0" /><path
                 style="fill:#231f20"
                 d="m 154.1,491.8 c -1.2,-2.5 -4.1,-3.5 -6.7,-2.4 -2.5,1.1 -3.7,4.1 -2.6,6.6 l 0,0 6.3,14 9.3,-4.2 -6.3,-14 0,0 z"
                 id="path4239"
                 inkscape:connector-curvature="0" /><path
                 style="fill:#231f20"
                 d="m 140.4,497.9 c -1.2,-2.5 -4.1,-3.5 -6.7,-2.4 -2.5,1.1 -3.7,4.1 -2.6,6.6 l 0,0 6.3,14 9.3,-4.2 -6.3,-14 0,0 z"
                 id="path4241"
                 inkscape:connector-curvature="0" /></g></g></g></g></g><g
       id="g4243"><rect
         x="559.40002"
         y="415.5"
         transform="matrix(0.9318,0.3629,-0.3629,0.9318,208.662,-187.2562)"
         style="fill:#c5c158"
         width="86.5"
         height="92.400002"
         id="rect4245" /><g
         id="g4247"><g
           id="g4249"><g
             id="g4251"><polygon
               style="fill:#3b3e43"
               points="660.2,435.9 577.5,403.7 592,371.9 671,402.7 "
               id="polygon4253" /></g></g></g><polygon
         style="fill:#272a2f"
         points="597.1,372.5 582.1,405.5 577.5,403.7 592.5,370.7 "
         id="polygon4255" /><polygon
         style="fill:#272a2f"
         points="671.5,401.4 660.2,435.9 655.6,434.1 666.9,399.6 "
         id="polygon4257" /><rect
         x="572.20001"
         y="418.29999"
         transform="matrix(0.9318,0.3629,-0.3629,0.9318,195.0521,-195.6726)"
         style="fill:#272a2f"
         width="92.199997"
         height="5.9000001"
         id="rect4259" /><g
         style="opacity:0.6"
         id="g4261"><rect
           x="581.59998"
           y="426.10001"
           transform="matrix(0.9318,0.3629,-0.3629,0.9318,197.4066,-184.1517)"
           style="fill:#231f20"
           width="14.3"
           height="14.3"
           id="rect4263" /><rect
           x="602.70001"
           y="434.29999"
           transform="matrix(0.9319,0.3628,-0.3628,0.9319,201.7159,-191.1619)"
           style="fill:#231f20"
           width="14.3"
           height="14.3"
           id="rect4265" /><rect
           x="624.5"
           y="442.79999"
           transform="matrix(0.9318,0.3629,-0.3629,0.9318,206.3944,-198.5645)"
           style="fill:#231f20"
           width="14.3"
           height="14.3"
           id="rect4267" /><rect
           x="574.09998"
           y="445.60001"
           transform="matrix(0.9318,0.3629,-0.3629,0.9318,203.9619,-180.0676)"
           style="fill:#231f20"
           width="14.3"
           height="14.3"
           id="rect4269" /><rect
           x="595.09998"
           y="453.70001"
           transform="matrix(0.9318,0.363,-0.363,0.9318,208.3815,-187.0995)"
           style="fill:#231f20"
           width="13.8"
           height="14.3"
           id="rect4271" /><rect
           x="616.90002"
           y="462.29999"
           transform="matrix(0.9318,0.3629,-0.3629,0.9318,212.9339,-194.4702)"
           style="fill:#231f20"
           width="14.3"
           height="14.3"
           id="rect4273" /><rect
           x="564.70001"
           y="470.70001"
           transform="matrix(0.9318,0.363,-0.363,0.9318,213.6407,-178.7823)"
           style="fill:#231f20"
           width="35.700001"
           height="17"
           id="rect4275" /></g><rect
         x="544.09998"
         y="497.29999"
         transform="matrix(-0.9318,-0.363,0.363,-0.9318,952.6254,1181.334)"
         style="fill:#f6e0c2"
         width="86.5"
         height="7.6999998"
         id="rect4277" /><polygon
         style="fill:#3b3e43"
         points="614.4,515.9 625.6,486.6 607.2,479.4 596,508.8 "
         id="polygon4279" /></g><g
       id="g4281"><rect
         x="207.3"
         y="434.39999"
         transform="matrix(0.9748,-0.2232,0.2232,0.9748,-96.9887,66.394)"
         style="fill:#e6a52e"
         width="75.800003"
         height="55.700001"
         id="rect4283" /><rect
         x="274.5"
         y="382.60001"
         transform="matrix(0.9748,-0.2232,0.2232,0.9748,-88.4747,77.0803)"
         style="fill:#fdbe31"
         width="44.299999"
         height="94.599998"
         id="rect4285" /><rect
         x="212.10001"
         y="477.20001"
         transform="matrix(0.9748,-0.2232,0.2232,0.9748,-100.5425,72.6451)"
         style="fill:#f6e0c2"
         width="117.8"
         height="7.5"
         id="rect4287" /><polygon
         style="fill:#3b3e43"
         points="264.5,388.7 307.8,378.8 278.1,348.8 "
         id="polygon4289" /><g
         style="opacity:0.6"
         id="g4291"><rect
           x="285.29999"
           y="391.5"
           transform="matrix(0.9748,-0.2232,0.2232,0.9748,-80.8636,74.3964)"
           style="fill:#231f20"
           width="6.9000001"
           height="6.9000001"
           id="rect4293" /><rect
           x="288.10001"
           y="403.70001"
           transform="matrix(0.9748,-0.2233,0.2233,0.9748,-83.5516,75.3622)"
           style="fill:#231f20"
           width="6.9000001"
           height="6.9000001"
           id="rect4295" /><rect
           x="290.89999"
           y="416"
           transform="matrix(0.9748,-0.2233,0.2233,0.9748,-86.2123,76.2966)"
           style="fill:#231f20"
           width="6.9000001"
           height="6.9000001"
           id="rect4297" /></g><path
         style="fill:#231f20"
         d="m 310.8,452.1 c -1.1,-4.6 -5.8,-7.5 -10.4,-6.4 -4.7,1.1 -7.6,5.7 -6.6,10.3 l 0,0 5.1,22.5 17.1,-3.9 -5.2,-22.5 0,0 z"
         id="path4299"
         inkscape:connector-curvature="0" /><g
         id="g4301"><g
           id="g4303"><g
             id="g4305"><rect
               x="222"
               y="399.10001"
               transform="matrix(0.2233,0.9748,-0.9748,0.2233,609.3344,106.6545)"
               style="fill:#3b3e43"
               width="31.5"
               height="73.099998"
               id="rect4307" /></g></g></g><circle
         style="fill:#3b3e43"
         cx="277.89999"
         cy="347.29999"
         r="4.3000002"
         id="circle4309"
         sodipodi:cx="277.89999"
         sodipodi:cy="347.29999"
         sodipodi:rx="4.3000002"
         sodipodi:ry="4.3000002"
         d="m 282.19999,347.29999 c 0,2.37482 -1.92517,4.3 -4.3,4.3 -2.37482,0 -4.3,-1.92518 -4.3,-4.3 0,-2.37483 1.92518,-4.3 4.3,-4.3 2.37483,0 4.3,1.92517 4.3,4.3 z" /><rect
         x="275.70001"
         y="335.29999"
         transform="matrix(0.9746,-0.2238,0.2238,0.9746,-69.1692,70.4667)"
         style="fill:#3b3e43"
         width="1.1"
         height="10.1"
         id="rect4311" /><circle
         style="fill:#3b3e43"
         cx="275"
         cy="335"
         r="1.9"
         id="circle4313"
         sodipodi:cx="275"
         sodipodi:cy="335"
         sodipodi:rx="1.9"
         sodipodi:ry="1.9"
         d="m 276.9,335 c 0,1.04934 -0.85066,1.9 -1.9,1.9 -1.04934,0 -1.9,-0.85066 -1.9,-1.9 0,-1.04934 0.85066,-1.9 1.9,-1.9 1.04934,0 1.9,0.85066 1.9,1.9 z" /><path
         style="fill:#3b3e43"
         d="m 309.4,378.5 c 0.3,1.3 -0.3,2.5 -1.3,2.7 l -43.3,9.9 c -1,0.2 -2.1,-0.6 -2.4,-1.9 l 0,0 c -0.3,-1.3 0.3,-2.5 1.3,-2.7 l 43.3,-9.9 c 1,-0.1 2.1,0.7 2.4,1.9 l 0,0 z"
         id="path4315"
         inkscape:connector-curvature="0" /><g
         style="opacity:0.6"
         id="g4317"><g
           id="g4319"><rect
             x="214.89999"
             y="462.5"
             transform="matrix(0.9747,-0.2234,0.2234,0.9747,-98.5596,60.708)"
             style="fill:#231f20"
             width="8.3999996"
             height="7"
             id="rect4321" /><rect
             x="224.89999"
             y="460.20001"
             transform="matrix(0.9748,-0.2232,0.2232,0.9748,-97.7345,62.8521)"
             style="fill:#231f20"
             width="8.3999996"
             height="7"
             id="rect4323" /><rect
             x="235"
             y="457.89999"
             transform="matrix(0.9748,-0.2233,0.2233,0.9748,-96.9764,65.0492)"
             style="fill:#231f20"
             width="8.3999996"
             height="7"
             id="rect4325" /><rect
             x="245.10001"
             y="455.60001"
             transform="matrix(0.9748,-0.223,0.223,0.9748,-96.1189,67.1594)"
             style="fill:#231f20"
             width="8.3999996"
             height="7"
             id="rect4327" /><rect
             x="255.10001"
             y="453.29999"
             transform="matrix(0.9748,-0.2233,0.2233,0.9748,-95.4442,69.4311)"
             style="fill:#231f20"
             width="8.3999996"
             height="7"
             id="rect4329" /></g><g
           id="g4331"><rect
             x="216.7"
             y="470.29999"
             transform="matrix(0.9748,-0.2232,0.2232,0.9748,-100.159,61.2298)"
             style="fill:#231f20"
             width="8.3999996"
             height="7"
             id="rect4333" /><rect
             x="226.7"
             y="468"
             transform="matrix(0.9748,-0.2233,0.2233,0.9748,-99.4318,63.4505)"
             style="fill:#231f20"
             width="8.3999996"
             height="7"
             id="rect4335" /><rect
             x="236.8"
             y="465.70001"
             transform="matrix(0.9748,-0.2232,0.2232,0.9748,-98.6227,65.6049)"
             style="fill:#231f20"
             width="8.3999996"
             height="7"
             id="rect4337" /><rect
             x="246.8"
             y="463.39999"
             transform="matrix(0.9748,-0.2233,0.2233,0.9748,-97.8946,67.8275)"
             style="fill:#231f20"
             width="8.3999996"
             height="7"
             id="rect4339" /><rect
             x="256.89999"
             y="461.10001"
             transform="matrix(0.9748,-0.2233,0.2233,0.9748,-97.1416,70.03)"
             style="fill:#231f20"
             width="8.3999996"
             height="7"
             id="rect4341" /></g></g></g><g
       id="g4343"><polygon
         style="fill:#c5c158"
         points="358.9,416.6 437.5,416.6 437.5,370.7 394.7,328.7 358.9,370.7 "
         id="polygon4345" /><rect
         x="339.79999"
         y="415.5"
         style="fill:#c5c158"
         width="116.7"
         height="56.200001"
         id="rect4347" /><g
         id="g4349"><g
           id="g4351"><g
             id="g4353"><g
               id="g4355"><g
                 id="g4357"><rect
                   x="339.79999"
                   y="416.39999"
                   style="fill:#f6e0c2"
                   width="8.8000002"
                   height="9.6999998"
                   id="rect4359" /></g></g><g
               id="g4361"><g
                 id="g4363"><rect
                   x="339.79999"
                   y="427.70001"
                   style="fill:#f6e0c2"
                   width="5.1999998"
                   height="9.6999998"
                   id="rect4365" /></g><g
                 id="g4367"><rect
                   x="339.79999"
                   y="438.79999"
                   style="fill:#f6e0c2"
                   width="8.8000002"
                   height="9.6999998"
                   id="rect4369" /></g></g><g
               id="g4371"><g
                 id="g4373"><rect
                   x="339.79999"
                   y="450"
                   style="fill:#f6e0c2"
                   width="5.1999998"
                   height="9.6999998"
                   id="rect4375" /></g></g></g></g><g
           id="g4377"><g
             id="g4379"><g
               id="g4381"><g
                 id="g4383"><rect
                   x="447.70001"
                   y="416.39999"
                   style="fill:#f6e0c2"
                   width="8.8000002"
                   height="9.6999998"
                   id="rect4385" /></g></g><g
               id="g4387"><g
                 id="g4389"><rect
                   x="451.29999"
                   y="427.70001"
                   style="fill:#f6e0c2"
                   width="5.1999998"
                   height="9.6999998"
                   id="rect4391" /></g><g
                 id="g4393"><rect
                   x="447.70001"
                   y="438.79999"
                   style="fill:#f6e0c2"
                   width="8.8000002"
                   height="9.6999998"
                   id="rect4395" /></g></g><g
               id="g4397"><g
                 id="g4399"><rect
                   x="451.29999"
                   y="450"
                   style="fill:#f6e0c2"
                   width="5.1999998"
                   height="9.6999998"
                   id="rect4401" /></g></g></g></g></g><g
         id="g4403"><g
           id="g4405"><g
             id="g4407"><g
               id="g4409"><g
                 id="g4411"><rect
                   x="358.70001"
                   y="376.5"
                   style="fill:#f6e0c2"
                   width="6.6999998"
                   height="8.8000002"
                   id="rect4413" /></g></g><g
               id="g4415"><g
                 id="g4417"><rect
                   x="358.70001"
                   y="386.60001"
                   style="fill:#f6e0c2"
                   width="3.9000001"
                   height="8.8000002"
                   id="rect4419" /></g><g
                 id="g4421"><rect
                   x="358.70001"
                   y="396.70001"
                   style="fill:#f6e0c2"
                   width="6.6999998"
                   height="8.8000002"
                   id="rect4423" /></g></g><g
               id="g4425"><g
                 id="g4427"><rect
                   x="358.70001"
                   y="406.79999"
                   style="fill:#f6e0c2"
                   width="3.9000001"
                   height="8.8000002"
                   id="rect4429" /></g></g></g></g><g
           id="g4431"><g
             id="g4433"><g
               id="g4435"><g
                 id="g4437"><rect
                   x="432.10001"
                   y="376.5"
                   style="fill:#f6e0c2"
                   width="5.5999999"
                   height="8.8000002"
                   id="rect4439" /></g></g><g
               id="g4441"><g
                 id="g4443"><rect
                   x="434.39999"
                   y="386.70001"
                   style="fill:#f6e0c2"
                   width="3.3"
                   height="8.8000002"
                   id="rect4445" /></g><g
                 id="g4447"><rect
                   x="432.10001"
                   y="396.70001"
                   style="fill:#f6e0c2"
                   width="5.5999999"
                   height="8.8000002"
                   id="rect4449" /></g></g><g
               id="g4451"><g
                 id="g4453"><rect
                   x="434.39999"
                   y="406.89999"
                   style="fill:#f6e0c2"
                   width="3.3"
                   height="8.8000002"
                   id="rect4455" /></g></g></g></g></g><polygon
         style="fill:#3b3e43"
         points="443.3,376.5 432.8,376.6 397.3,332.4 361.9,376.6 351.5,376.6 397.5,319.7 "
         id="polygon4457" /><polyline
         style="fill:#f6e0c2"
         points="339.8,471.6 339.8,461.6 456.5,461.6 456.5,471.6   "
         id="polyline4459" /><g
         style="opacity:0.6"
         id="g4461"><g
           id="g4463"><g
             id="g4465"><path
               style="fill:#231f20"
               d="m 381.7,383 c -0.1,-3.2 -2.7,-5.7 -5.9,-5.7 -3.2,0 -5.8,2.5 -5.9,5.7 h 0 v 9.9 h 11.8 l 0,-9.9 0,0 z"
               id="path4467"
               inkscape:connector-curvature="0" /><path
               style="fill:#231f20"
               d="m 401.2,383 c -0.1,-3.2 -2.7,-5.7 -5.9,-5.7 -3.2,0 -5.8,2.5 -5.9,5.7 h 0 v 9.9 h 11.8 l 0,-9.9 0,0 z"
               id="path4469"
               inkscape:connector-curvature="0" /><path
               style="fill:#231f20"
               d="m 420.8,383 c -0.1,-3.2 -2.7,-5.7 -5.9,-5.7 -3.2,0 -5.8,2.5 -5.9,5.7 h 0 v 9.9 h 11.8 l 0,-9.9 0,0 z"
               id="path4471"
               inkscape:connector-curvature="0" /></g></g><g
           id="g4473"><g
             id="g4475"><path
               style="fill:#231f20"
               d="m 381.7,403.3 c -0.1,-3.2 -2.7,-5.7 -5.9,-5.7 -3.2,0 -5.8,2.5 -5.9,5.7 h 0 v 9.9 h 11.8 l 0,-9.9 0,0 z"
               id="path4477"
               inkscape:connector-curvature="0" /><path
               style="fill:#231f20"
               d="m 401.2,403.3 c -0.1,-3.2 -2.7,-5.7 -5.9,-5.7 -3.2,0 -5.8,2.5 -5.9,5.7 h 0 v 9.9 h 11.8 l 0,-9.9 0,0 z"
               id="path4479"
               inkscape:connector-curvature="0" /><path
               style="fill:#231f20"
               d="m 420.8,403.3 c -0.1,-3.2 -2.7,-5.7 -5.9,-5.7 -3.2,0 -5.8,2.5 -5.9,5.7 h 0 v 9.9 h 11.8 l 0,-9.9 0,0 z"
               id="path4481"
               inkscape:connector-curvature="0" /></g></g><g
           id="g4483"><g
             id="g4485"><g
               id="g4487"><path
                 style="fill:#231f20"
                 d="m 438.5,430.7 c -0.1,-4 -3.4,-7.2 -7.4,-7.2 -4,0 -7.3,3.2 -7.4,7.2 h 0 v 22.4 h 14.9 l -0.1,-22.4 0,0 z"
                 id="path4489"
                 inkscape:connector-curvature="0" /><path
                 style="fill:#231f20"
                 d="m 416.6,430.7 c -0.1,-4 -3.4,-7.2 -7.4,-7.2 -4,0 -7.3,3.2 -7.4,7.2 h 0 v 22.4 h 14.9 l -0.1,-22.4 0,0 z"
                 id="path4491"
                 inkscape:connector-curvature="0" /><path
                 style="fill:#231f20"
                 d="m 394.7,430.7 c -0.1,-4 -3.4,-7.2 -7.4,-7.2 -4,0 -7.3,3.2 -7.4,7.2 h 0 v 22.4 h 14.9 l -0.1,-22.4 0,0 z"
                 id="path4493"
                 inkscape:connector-curvature="0" /><path
                 style="fill:#231f20"
                 d="m 372.7,430.7 c -0.1,-4 -3.4,-7.2 -7.4,-7.2 -4,0 -7.3,3.2 -7.4,7.2 h 0 v 22.4 h 14.9 l -0.1,-22.4 0,0 z"
                 id="path4495"
                 inkscape:connector-curvature="0" /></g></g></g></g><circle
         style="opacity:0.6;fill:#231f20"
         cx="398.20001"
         cy="354.5"
         r="5.5999999"
         id="circle4497"
         sodipodi:cx="398.20001"
         sodipodi:cy="354.5"
         sodipodi:rx="5.5999999"
         sodipodi:ry="5.5999999"
         d="m 403.80001,354.5 c 0,3.09279 -2.5072,5.6 -5.6,5.6 -3.09279,0 -5.6,-2.50721 -5.6,-5.6 0,-3.09279 2.50721,-5.6 5.6,-5.6 3.0928,0 5.6,2.50721 5.6,5.6 z" /></g><g
       id="g4499"><path
         style="fill:#c5c158"
         d="m 717.5,566.5 c 2.1,-2.7 1.7,-6.6 -1,-8.7 0,0 0,0 0,0 0.1,-0.1 0.3,-0.3 0.4,-0.5 1.8,-2.2 1.4,-5.4 -0.8,-7.1 -1.5,-1.2 -3.4,-1.4 -5,-0.8 0.1,-1.3 -0.4,-2.6 -1.5,-3.4 -1.4,-1.2 -3.4,-1.2 -4.9,-0.1 -0.4,-0.8 -1,-1.6 -1.7,-2.2 -2.7,-2.1 -6.6,-1.7 -8.7,0.9 -1.3,1.6 -1.7,3.7 -1.1,5.6 -1.5,-0.5 -3.3,0 -4.4,1.3 -1.4,1.7 -1.1,4.3 0.6,5.6 l 18.3,14.7 c 1.7,1.4 4.3,1.1 5.6,-0.6 0.6,-0.7 0.9,-1.6 0.9,-2.5 1.3,-0.4 2.5,-1.2 3.3,-2.2 z"
         id="path4501"
         inkscape:connector-curvature="0" /><g
         id="g4503"><circle
           style="fill:#e74424"
           cx="709.79999"
           cy="561.79999"
           r="0.89999998"
           id="circle4505"
           sodipodi:cx="709.79999"
           sodipodi:cy="561.79999"
           sodipodi:rx="0.89999998"
           sodipodi:ry="0.89999998"
           d="m 710.69999,561.79999 c 0,0.49705 -0.40295,0.9 -0.9,0.9 -0.49706,0 -0.9,-0.40295 -0.9,-0.9 0,-0.49706 0.40294,-0.9 0.9,-0.9 0.49705,0 0.9,0.40294 0.9,0.9 z" /><circle
           style="fill:#e74424"
           cx="704.09998"
           cy="549.5"
           r="0.89999998"
           id="circle4507"
           sodipodi:cx="704.09998"
           sodipodi:cy="549.5"
           sodipodi:rx="0.89999998"
           sodipodi:ry="0.89999998"
           d="m 704.99998,549.5 c 0,0.49706 -0.40295,0.9 -0.9,0.9 -0.49706,0 -0.9,-0.40294 -0.9,-0.9 0,-0.49706 0.40294,-0.9 0.9,-0.9 0.49705,0 0.9,0.40294 0.9,0.9 z" /><circle
           style="fill:#e74424"
           cx="697.5"
           cy="547.5"
           r="0.89999998"
           id="circle4509"
           sodipodi:cx="697.5"
           sodipodi:cy="547.5"
           sodipodi:rx="0.89999998"
           sodipodi:ry="0.89999998"
           d="m 698.4,547.5 c 0,0.49706 -0.40294,0.9 -0.9,0.9 -0.49706,0 -0.9,-0.40294 -0.9,-0.9 0,-0.49706 0.40294,-0.9 0.9,-0.9 0.49706,0 0.9,0.40294 0.9,0.9 z" /><circle
           style="fill:#e74424"
           cx="694.79999"
           cy="553.90002"
           r="0.89999998"
           id="circle4511"
           sodipodi:cx="694.79999"
           sodipodi:cy="553.90002"
           sodipodi:rx="0.89999998"
           sodipodi:ry="0.89999998"
           d="m 695.69999,553.90002 c 0,0.49706 -0.40295,0.9 -0.9,0.9 -0.49706,0 -0.9,-0.40294 -0.9,-0.9 0,-0.49705 0.40294,-0.9 0.9,-0.9 0.49705,0 0.9,0.40295 0.9,0.9 z" /><circle
           style="fill:#e74424"
           cx="697.09998"
           cy="560.29999"
           r="0.89999998"
           id="circle4513"
           sodipodi:cx="697.09998"
           sodipodi:cy="560.29999"
           sodipodi:rx="0.89999998"
           sodipodi:ry="0.89999998"
           d="m 697.99998,560.29999 c 0,0.49705 -0.40295,0.9 -0.9,0.9 -0.49706,0 -0.9,-0.40295 -0.9,-0.9 0,-0.49706 0.40294,-0.9 0.9,-0.9 0.49705,0 0.9,0.40294 0.9,0.9 z" /><circle
           style="fill:#e74424"
           cx="702.29999"
           cy="556.59998"
           r="0.89999998"
           id="circle4515"
           sodipodi:cx="702.29999"
           sodipodi:cy="556.59998"
           sodipodi:rx="0.89999998"
           sodipodi:ry="0.89999998"
           d="m 703.19999,556.59998 c 0,0.49705 -0.40295,0.9 -0.9,0.9 -0.49706,0 -0.9,-0.40295 -0.9,-0.9 0,-0.49706 0.40294,-0.9 0.9,-0.9 0.49705,0 0.9,0.40294 0.9,0.9 z" /><circle
           style="fill:#e74424"
           cx="708.5"
           cy="553.70001"
           r="0.89999998"
           id="circle4517"
           sodipodi:cx="708.5"
           sodipodi:cy="553.70001"
           sodipodi:rx="0.89999998"
           sodipodi:ry="0.89999998"
           d="m 709.4,553.70001 c 0,0.49706 -0.40294,0.9 -0.9,0.9 -0.49706,0 -0.9,-0.40294 -0.9,-0.9 0,-0.49705 0.40294,-0.9 0.9,-0.9 0.49706,0 0.9,0.40295 0.9,0.9 z" /><circle
           style="fill:#e74424"
           cx="713.90002"
           cy="553.5"
           r="0.89999998"
           id="circle4519"
           sodipodi:cx="713.90002"
           sodipodi:cy="553.5"
           sodipodi:rx="0.89999998"
           sodipodi:ry="0.89999998"
           d="m 714.80002,553.5 c 0,0.49706 -0.40294,0.9 -0.9,0.9 -0.49705,0 -0.9,-0.40294 -0.9,-0.9 0,-0.49706 0.40295,-0.9 0.9,-0.9 0.49706,0 0.9,0.40294 0.9,0.9 z" /><circle
           style="fill:#e74424"
           cx="715.59998"
           cy="561.59998"
           r="0.89999998"
           id="circle4521"
           sodipodi:cx="715.59998"
           sodipodi:cy="561.59998"
           sodipodi:rx="0.89999998"
           sodipodi:ry="0.89999998"
           d="m 716.49998,561.59998 c 0,0.49705 -0.40295,0.9 -0.9,0.9 -0.49706,0 -0.9,-0.40295 -0.9,-0.9 0,-0.49706 0.40294,-0.9 0.9,-0.9 0.49705,0 0.9,0.40294 0.9,0.9 z" /><circle
           style="fill:#e74424"
           cx="709.09998"
           cy="569.09998"
           r="0.89999998"
           id="circle4523"
           sodipodi:cx="709.09998"
           sodipodi:cy="569.09998"
           sodipodi:rx="0.89999998"
           sodipodi:ry="0.89999998"
           d="m 709.99998,569.09998 c 0,0.49705 -0.40295,0.9 -0.9,0.9 -0.49706,0 -0.9,-0.40295 -0.9,-0.9 0,-0.49706 0.40294,-0.9 0.9,-0.9 0.49705,0 0.9,0.40294 0.9,0.9 z" /><circle
           style="fill:#e74424"
           cx="704.59998"
           cy="562.5"
           r="0.89999998"
           id="circle4525"
           sodipodi:cx="704.59998"
           sodipodi:cy="562.5"
           sodipodi:rx="0.89999998"
           sodipodi:ry="0.89999998"
           d="m 705.49998,562.5 c 0,0.49706 -0.40295,0.9 -0.9,0.9 -0.49706,0 -0.9,-0.40294 -0.9,-0.9 0,-0.49706 0.40294,-0.9 0.9,-0.9 0.49705,0 0.9,0.40294 0.9,0.9 z" /></g></g><g
       id="g4527"><path
         style="fill:#c5c158"
         d="m 49.4,579.7 c -2.3,-2.5 -6.2,-2.7 -8.8,-0.3 0,0 0,0 0,0 -0.1,-0.2 -0.3,-0.3 -0.4,-0.5 -1.9,-2.1 -5.1,-2.2 -7.2,-0.3 -1.4,1.3 -1.9,3.1 -1.5,4.8 -1.2,-0.3 -2.6,0 -3.6,1 -1.4,1.3 -1.6,3.2 -0.8,4.8 -0.9,0.3 -1.7,0.7 -2.5,1.4 -2.5,2.3 -2.7,6.2 -0.3,8.8 1.4,1.5 3.4,2.2 5.3,1.9 -0.7,1.5 -0.5,3.3 0.6,4.5 1.5,1.6 4.1,1.7 5.7,0.2 l 17.2,-15.9 c 1.6,-1.5 1.7,-4.1 0.2,-5.7 -0.6,-0.7 -1.5,-1.1 -2.4,-1.2 0,-1.3 -0.6,-2.5 -1.5,-3.5 z"
         id="path4529"
         inkscape:connector-curvature="0" /><g
         id="g4531"><circle
           style="fill:#e74424"
           cx="43.700001"
           cy="586.70001"
           r="0.89999998"
           id="circle4533"
           sodipodi:cx="43.700001"
           sodipodi:cy="586.70001"
           sodipodi:rx="0.89999998"
           sodipodi:ry="0.89999998"
           d="m 44.600001,586.70001 c 0,0.49706 -0.402944,0.9 -0.9,0.9 -0.497056,0 -0.9,-0.40294 -0.9,-0.9 0,-0.49705 0.402944,-0.9 0.9,-0.9 0.497056,0 0.9,0.40295 0.9,0.9 z" /><circle
           style="fill:#e74424"
           cx="30.700001"
           cy="590.5"
           r="0.89999998"
           id="circle4535"
           sodipodi:cx="30.700001"
           sodipodi:cy="590.5"
           sodipodi:rx="0.89999998"
           sodipodi:ry="0.89999998"
           d="m 31.600001,590.5 c 0,0.49706 -0.402944,0.9 -0.9,0.9 -0.497056,0 -0.9,-0.40294 -0.9,-0.9 0,-0.49706 0.402944,-0.9 0.9,-0.9 0.497056,0 0.9,0.40294 0.9,0.9 z" /><circle
           style="fill:#e74424"
           cx="27.700001"
           cy="596.70001"
           r="0.89999998"
           id="circle4537"
           sodipodi:cx="27.700001"
           sodipodi:cy="596.70001"
           sodipodi:rx="0.89999998"
           sodipodi:ry="0.89999998"
           d="m 28.600001,596.70001 c 0,0.49706 -0.402944,0.9 -0.9,0.9 -0.497056,0 -0.9,-0.40294 -0.9,-0.9 0,-0.49705 0.402944,-0.9 0.9,-0.9 0.497056,0 0.9,0.40295 0.9,0.9 z" /><circle
           style="fill:#e74424"
           cx="33.700001"
           cy="600.40002"
           r="0.89999998"
           id="circle4539"
           sodipodi:cx="33.700001"
           sodipodi:cy="600.40002"
           sodipodi:rx="0.89999998"
           sodipodi:ry="0.89999998"
           d="m 34.600001,600.40002 c 0,0.49706 -0.402944,0.9 -0.9,0.9 -0.497056,0 -0.9,-0.40294 -0.9,-0.9 0,-0.49705 0.402944,-0.9 0.9,-0.9 0.497056,0 0.9,0.40295 0.9,0.9 z" /><circle
           style="fill:#e74424"
           cx="40.299999"
           cy="599"
           r="0.89999998"
           id="circle4541"
           sodipodi:cx="40.299999"
           sodipodi:cy="599"
           sodipodi:rx="0.89999998"
           sodipodi:ry="0.89999998"
           d="m 41.199999,599 c 0,0.49706 -0.402944,0.9 -0.9,0.9 -0.497056,0 -0.9,-0.40294 -0.9,-0.9 0,-0.49706 0.402944,-0.9 0.9,-0.9 0.497056,0 0.9,0.40294 0.9,0.9 z" /><circle
           style="fill:#e74424"
           cx="37.400002"
           cy="593.29999"
           r="0.89999998"
           id="circle4543"
           sodipodi:cx="37.400002"
           sodipodi:cy="593.29999"
           sodipodi:rx="0.89999998"
           sodipodi:ry="0.89999998"
           d="m 38.300002,593.29999 c 0,0.49705 -0.402944,0.9 -0.9,0.9 -0.497057,0 -0.9,-0.40295 -0.9,-0.9 0,-0.49706 0.402943,-0.9 0.9,-0.9 0.497056,0 0.9,0.40294 0.9,0.9 z" /><circle
           style="fill:#e74424"
           cx="35.5"
           cy="586.79999"
           r="0.89999998"
           id="circle4545"
           sodipodi:cx="35.5"
           sodipodi:cy="586.79999"
           sodipodi:rx="0.89999998"
           sodipodi:ry="0.89999998"
           d="m 36.4,586.79999 c 0,0.49705 -0.402944,0.9 -0.9,0.9 -0.497056,0 -0.9,-0.40295 -0.9,-0.9 0,-0.49706 0.402944,-0.9 0.9,-0.9 0.497056,0 0.9,0.40294 0.9,0.9 z" /><circle
           style="fill:#e74424"
           cx="36"
           cy="581.40002"
           r="0.89999998"
           id="circle4547"
           sodipodi:cx="36"
           sodipodi:cy="581.40002"
           sodipodi:rx="0.89999998"
           sodipodi:ry="0.89999998"
           d="m 36.9,581.40002 c 0,0.49706 -0.402944,0.9 -0.9,0.9 -0.497056,0 -0.9,-0.40294 -0.9,-0.9 0,-0.49705 0.402944,-0.9 0.9,-0.9 0.497056,0 0.9,0.40295 0.9,0.9 z" /><circle
           style="fill:#e74424"
           cx="44.299999"
           cy="580.90002"
           r="0.89999998"
           id="circle4549"
           sodipodi:cx="44.299999"
           sodipodi:cy="580.90002"
           sodipodi:rx="0.89999998"
           sodipodi:ry="0.89999998"
           d="m 45.199999,580.90002 c 0,0.49706 -0.402944,0.9 -0.9,0.9 -0.497056,0 -0.9,-0.40294 -0.9,-0.9 0,-0.49705 0.402944,-0.9 0.9,-0.9 0.497056,0 0.9,0.40295 0.9,0.9 z" /><circle
           style="fill:#e74424"
           cx="50.799999"
           cy="588.40002"
           r="0.89999998"
           id="circle4551"
           sodipodi:cx="50.799999"
           sodipodi:cy="588.40002"
           sodipodi:rx="0.89999998"
           sodipodi:ry="0.89999998"
           d="m 51.699999,588.40002 c 0,0.49706 -0.402944,0.9 -0.9,0.9 -0.497056,0 -0.9,-0.40294 -0.9,-0.9 0,-0.49705 0.402944,-0.9 0.9,-0.9 0.497056,0 0.9,0.40295 0.9,0.9 z" /><circle
           style="fill:#e74424"
           cx="43.599998"
           cy="591.90002"
           r="0.89999998"
           id="circle4553"
           sodipodi:cx="43.599998"
           sodipodi:cy="591.90002"
           sodipodi:rx="0.89999998"
           sodipodi:ry="0.89999998"
           d="m 44.499998,591.90002 c 0,0.49706 -0.402943,0.9 -0.9,0.9 -0.497056,0 -0.9,-0.40294 -0.9,-0.9 0,-0.49705 0.402944,-0.9 0.9,-0.9 0.497057,0 0.9,0.40295 0.9,0.9 z" /></g></g><g
       id="g4555"><path
         style="fill:#c5c158"
         d="m 284.4,469.9 c -0.5,-2.8 -3.1,-4.6 -5.9,-4.2 0,0 0,0 0,0 0,-0.2 0,-0.3 -0.1,-0.5 -0.4,-2.3 -2.6,-3.8 -4.9,-3.4 -1.5,0.3 -2.7,1.3 -3.2,2.7 -0.7,-0.8 -1.8,-1.1 -2.9,-0.9 -1.5,0.3 -2.6,1.5 -2.7,2.9 -0.7,-0.2 -1.5,-0.3 -2.3,-0.1 -2.8,0.5 -4.7,3.1 -4.2,5.9 0.3,1.7 1.4,3.1 2.8,3.7 -1.2,0.7 -1.8,2 -1.6,3.4 0.3,1.8 2,3 3.8,2.7 l 19.1,-3.3 c 1.8,-0.3 3,-2 2.7,-3.8 -0.1,-0.8 -0.5,-1.4 -1.1,-1.9 0.5,-1 0.7,-2.1 0.5,-3.2 z"
         id="path4557"
         inkscape:connector-curvature="0" /><g
         id="g4559"><circle
           style="fill:#e74424"
           cx="277.29999"
           cy="472.20001"
           r="0.69999999"
           id="circle4561"
           sodipodi:cx="277.29999"
           sodipodi:cy="472.20001"
           sodipodi:rx="0.69999999"
           sodipodi:ry="0.69999999"
           d="m 277.99999,472.20001 c 0,0.3866 -0.3134,0.7 -0.7,0.7 -0.3866,0 -0.7,-0.3134 -0.7,-0.7 0,-0.3866 0.3134,-0.7 0.7,-0.7 0.3866,0 0.7,0.3134 0.7,0.7 z" /><circle
           style="fill:#e74424"
           cx="266.60001"
           cy="469"
           r="0.69999999"
           id="circle4563"
           sodipodi:cx="266.60001"
           sodipodi:cy="469"
           sodipodi:rx="0.69999999"
           sodipodi:ry="0.69999999"
           d="m 267.30001,469 c 0,0.3866 -0.3134,0.7 -0.7,0.7 -0.3866,0 -0.7,-0.3134 -0.7,-0.7 0,-0.3866 0.3134,-0.7 0.7,-0.7 0.3866,0 0.7,0.3134 0.7,0.7 z" /><circle
           style="fill:#e74424"
           cx="261.70001"
           cy="472"
           r="0.69999999"
           id="circle4565"
           sodipodi:cx="261.70001"
           sodipodi:cy="472"
           sodipodi:rx="0.69999999"
           sodipodi:ry="0.69999999"
           d="m 262.40001,472 c 0,0.3866 -0.3134,0.7 -0.7,0.7 -0.3866,0 -0.7,-0.3134 -0.7,-0.7 0,-0.3866 0.3134,-0.7 0.7,-0.7 0.3866,0 0.7,0.3134 0.7,0.7 z" /><circle
           style="fill:#e74424"
           cx="264.20001"
           cy="477.20001"
           r="0.69999999"
           id="circle4567"
           sodipodi:cx="264.20001"
           sodipodi:cy="477.20001"
           sodipodi:rx="0.69999999"
           sodipodi:ry="0.69999999"
           d="m 264.90001,477.20001 c 0,0.3866 -0.3134,0.7 -0.7,0.7 -0.3866,0 -0.7,-0.3134 -0.7,-0.7 0,-0.3866 0.3134,-0.7 0.7,-0.7 0.3866,0 0.7,0.3134 0.7,0.7 z" /><circle
           style="fill:#e74424"
           cx="269.5"
           cy="479.20001"
           r="0.69999999"
           id="circle4569"
           sodipodi:cx="269.5"
           sodipodi:cy="479.20001"
           sodipodi:rx="0.69999999"
           sodipodi:ry="0.69999999"
           d="m 270.2,479.20001 c 0,0.3866 -0.3134,0.7 -0.7,0.7 -0.3866,0 -0.7,-0.3134 -0.7,-0.7 0,-0.3866 0.3134,-0.7 0.7,-0.7 0.3866,0 0.7,0.3134 0.7,0.7 z" /><circle
           style="fill:#e74424"
           cx="270"
           cy="474"
           r="0.69999999"
           id="circle4571"
           sodipodi:cx="270"
           sodipodi:cy="474"
           sodipodi:rx="0.69999999"
           sodipodi:ry="0.69999999"
           d="m 270.7,474 c 0,0.3866 -0.3134,0.7 -0.7,0.7 -0.3866,0 -0.7,-0.3134 -0.7,-0.7 0,-0.3866 0.3134,-0.7 0.7,-0.7 0.3866,0 0.7,0.3134 0.7,0.7 z" /><circle
           style="fill:#e74424"
           cx="271.60001"
           cy="468.60001"
           r="0.69999999"
           id="circle4573"
           sodipodi:cx="271.60001"
           sodipodi:cy="468.60001"
           sodipodi:rx="0.69999999"
           sodipodi:ry="0.69999999"
           d="m 272.30001,468.60001 c 0,0.3866 -0.3134,0.7 -0.7,0.7 -0.3866,0 -0.7,-0.3134 -0.7,-0.7 0,-0.3866 0.3134,-0.7 0.7,-0.7 0.3866,0 0.7,0.3134 0.7,0.7 z" /><circle
           style="fill:#e74424"
           cx="274.39999"
           cy="465.10001"
           r="0.69999999"
           id="circle4575"
           sodipodi:cx="274.39999"
           sodipodi:cy="465.10001"
           sodipodi:rx="0.69999999"
           sodipodi:ry="0.69999999"
           d="m 275.09999,465.10001 c 0,0.3866 -0.3134,0.7 -0.7,0.7 -0.3866,0 -0.7,-0.3134 -0.7,-0.7 0,-0.3866 0.3134,-0.7 0.7,-0.7 0.3866,0 0.7,0.3134 0.7,0.7 z" /><circle
           style="fill:#e74424"
           cx="280.39999"
           cy="468.5"
           r="0.69999999"
           id="circle4577"
           sodipodi:cx="280.39999"
           sodipodi:cy="468.5"
           sodipodi:rx="0.69999999"
           sodipodi:ry="0.69999999"
           d="m 281.09999,468.5 c 0,0.3866 -0.3134,0.7 -0.7,0.7 -0.3866,0 -0.7,-0.3134 -0.7,-0.7 0,-0.3866 0.3134,-0.7 0.7,-0.7 0.3866,0 0.7,0.3134 0.7,0.7 z" /><circle
           style="fill:#e74424"
           cx="281.5"
           cy="476.60001"
           r="0.69999999"
           id="circle4579"
           sodipodi:cx="281.5"
           sodipodi:cy="476.60001"
           sodipodi:rx="0.69999999"
           sodipodi:ry="0.69999999"
           d="m 282.2,476.60001 c 0,0.3866 -0.3134,0.7 -0.7,0.7 -0.3866,0 -0.7,-0.3134 -0.7,-0.7 0,-0.3866 0.3134,-0.7 0.7,-0.7 0.3866,0 0.7,0.3134 0.7,0.7 z" /><circle
           style="fill:#e74424"
           cx="274.89999"
           cy="475.79999"
           r="0.69999999"
           id="circle4581"
           sodipodi:cx="274.89999"
           sodipodi:cy="475.79999"
           sodipodi:rx="0.69999999"
           sodipodi:ry="0.69999999"
           d="m 275.59999,475.79999 c 0,0.3866 -0.3134,0.7 -0.7,0.7 -0.3866,0 -0.7,-0.3134 -0.7,-0.7 0,-0.3866 0.3134,-0.7 0.7,-0.7 0.3866,0 0.7,0.3134 0.7,0.7 z" /></g></g><g
       id="g4583"><g
         id="g4585"><g
           id="g4587"><rect
             x="789"
             y="637.70001"
             transform="matrix(0.5828,0.8126,-0.8126,0.5828,852.5201,-373.4894)"
             style="fill:#2d3035"
             width="2"
             height="11.7"
             id="rect4589" /></g><polygon
           style="fill:#3b3e43"
           points="796.3,641 794.9,642 793,639.3 794.4,638.3 "
           id="polygon4591" /></g><g
         id="g4593"><g
           id="g4595"><rect
             x="752.40002"
             y="597"
             transform="matrix(0.6924,0.7215,-0.7215,0.6924,666.6578,-358.1192)"
             style="fill:#2d3035"
             width="2"
             height="11.7"
             id="rect4597" /></g><rect
           x="755.90002"
           y="598.09998"
           transform="matrix(0.6929,0.721,-0.721,0.6929,664.4838,-362.2648)"
           style="fill:#3b3e43"
           width="3.3"
           height="1.7"
           id="rect4599" /></g><g
         id="g4601"><g
           id="g4603"><rect
             x="710.79999"
             y="562.29999"
             transform="matrix(0.7389,0.6738,-0.6738,0.7389,568.7094,-331.2602)"
             style="fill:#2d3035"
             width="2"
             height="11.7"
             id="rect4605" /></g><rect
           x="714"
           y="563.09998"
           transform="matrix(0.7394,0.6733,-0.6733,0.7394,566.2057,-334.8572)"
           style="fill:#3b3e43"
           width="3.3"
           height="1.7"
           id="rect4607" /></g><g
         id="g4609"><g
           id="g4611"><rect
             x="671.09998"
             y="534"
             transform="matrix(0.852,0.5236,-0.5236,0.852,382.175,-271.9852)"
             style="fill:#2d3035"
             width="2"
             height="11.7"
             id="rect4613" /></g><rect
           x="673.40002"
           y="534.20001"
           transform="matrix(0.8523,0.523,-0.523,0.8523,379.4704,-274.0616)"
           style="fill:#3b3e43"
           width="3.3"
           height="1.7"
           id="rect4615" /></g><g
         id="g4617"><g
           id="g4619"><rect
             x="617.79999"
             y="504.89999"
             transform="matrix(0.9293,0.3693,-0.3693,0.9293,232.3939,-192.4197)"
             style="fill:#2d3035"
             width="2"
             height="11.7"
             id="rect4621" /></g><rect
           x="619.29999"
           y="504.60001"
           transform="matrix(0.9294,0.369,-0.369,0.9294,230.3272,-193.4377)"
           style="fill:#3b3e43"
           width="3.3"
           height="1.7"
           id="rect4623" /></g><g
         id="g4625"><g
           id="g4627"><rect
             x="560"
             y="482.20001"
             transform="matrix(0.9403,0.3403,-0.3403,0.9403,199.5812,-161.7805)"
             style="fill:#2d3035"
             width="2"
             height="11.7"
             id="rect4629" /></g><rect
           x="561.29999"
           y="481.89999"
           transform="matrix(0.9407,0.3393,-0.3393,0.9407,197.2057,-162.3918)"
           style="fill:#3b3e43"
           width="3.3"
           height="1.7"
           id="rect4631" /></g><g
         id="g4633"><g
           id="g4635"><rect
             x="512.79999"
             y="469.10001"
             transform="matrix(0.9783,0.2073,-0.2073,0.9783,109.5954,-96.1812)"
             style="fill:#2d3035"
             width="2"
             height="11.7"
             id="rect4637" /></g><rect
           x="513.29999"
           y="468.5"
           transform="matrix(0.9784,0.2069,-0.2069,0.9784,108.2654,-96.4095)"
           style="fill:#3b3e43"
           width="3.3"
           height="1.7"
           id="rect4639" /></g><g
         id="g4641"><g
           id="g4643"><rect
             x="459.10001"
             y="460"
             transform="matrix(0.9974,0.07259908,-0.07259908,0.9974,35.0328,-32.1724)"
             style="fill:#2d3035"
             width="2"
             height="11.7"
             id="rect4645" /></g><rect
           x="458.89999"
           y="459.29999"
           transform="matrix(0.9974,0.07177398,-0.07177398,0.9974,34.2117,-31.865)"
           style="fill:#3b3e43"
           width="3.3"
           height="1.7"
           id="rect4647" /></g><g
         id="g4649"><g
           id="g4651"><rect
             x="407"
             y="455.70001"
             transform="matrix(0.9939,0.1107,-0.1107,0.9939,53.6087,-42.323)"
             style="fill:#2d3035"
             width="1.9"
             height="11.7"
             id="rect4653" /></g><rect
           x="406.89999"
           y="455"
           transform="matrix(0.9939,0.1106,-0.1106,0.9939,52.9258,-42.3882)"
           style="fill:#3b3e43"
           width="3.3"
           height="1.7"
           id="rect4655" /></g><g
         id="g4657"><g
           id="g4659"><rect
             x="354.39999"
             y="456.89999"
             transform="matrix(1,0.00701386,-0.00701386,1,3.2547,-2.481)"
             style="fill:#2d3035"
             width="1.9"
             height="11.7"
             id="rect4661" /></g><rect
           x="353.70001"
           y="456.20001"
           transform="matrix(1,0.00622856,-0.00622856,1,2.8537,-2.2047)"
           style="fill:#3b3e43"
           width="3.3"
           height="1.7"
           id="rect4663" /></g><g
         id="g4665"><g
           id="g4667"><rect
             x="303.20001"
             y="462"
             transform="matrix(0.9952,-0.09764436,0.09764436,0.9952,-44.2277,31.9386)"
             style="fill:#2d3035"
             width="2"
             height="11.7"
             id="rect4669" /></g><rect
           x="302"
           y="461.29999"
           transform="matrix(0.9952,-0.09816755,0.09816755,0.9952,-43.8997,32.0389)"
           style="fill:#3b3e43"
           width="3.3"
           height="1.7"
           id="rect4671" /></g><g
         id="g4673"><g
           id="g4675"><rect
             x="248.39999"
             y="473.70001"
             transform="matrix(0.9795,-0.2013,0.2013,0.9795,-91.4405,60.0296)"
             style="fill:#2d3035"
             width="2"
             height="11.7"
             id="rect4677" /></g><rect
           x="246.60001"
           y="473.10001"
           transform="matrix(0.9795,-0.2017,0.2017,0.9795,-90.4865,59.8062)"
           style="fill:#3b3e43"
           width="3.3"
           height="1.7"
           id="rect4679" /></g><g
         id="g4681"><g
           id="g4683"><rect
             x="203.39999"
             y="488"
             transform="matrix(0.9388,-0.3445,0.3445,0.9388,-157.6154,100.6275)"
             style="fill:#2d3035"
             width="2"
             height="11.7"
             id="rect4685" /></g><rect
           x="200.7"
           y="487.60001"
           transform="matrix(0.9386,-0.3451,0.3451,0.9386,-156.1225,99.8363)"
           style="fill:#3b3e43"
           width="3.3"
           height="1.7"
           id="rect4687" /></g><g
         id="g4689"><g
           id="g4691"><rect
             x="156.39999"
             y="508.39999"
             transform="matrix(0.9159,-0.4015,0.4015,0.9159,-193.2197,106.445)"
             style="fill:#2d3035"
             width="2"
             height="11.7"
             id="rect4693" /></g><rect
           x="153.39999"
           y="508.10001"
           transform="matrix(0.916,-0.4011,0.4011,0.916,-191.1202,104.9209)"
           style="fill:#3b3e43"
           width="3.3"
           height="1.7"
           id="rect4695" /></g><g
         id="g4697"><g
           id="g4699"><rect
             x="111.1"
             y="531.90002"
             transform="matrix(0.869,-0.4947,0.4947,0.869,-251.3499,125.8733)"
             style="fill:#2d3035"
             width="2"
             height="11.7"
             id="rect4701" /></g><rect
           x="107.6"
           y="531.90002"
           transform="matrix(0.8691,-0.4947,0.4947,0.8691,-249.2264,123.7904)"
           style="fill:#3b3e43"
           width="3.3"
           height="1.7"
           id="rect4703" /></g><g
         id="g4705"><g
           id="g4707"><rect
             x="69.400002"
             y="560.79999"
             transform="matrix(0.8126,-0.5828,0.5828,0.8126,-317.0712,147.2144)"
             style="fill:#2d3035"
             width="2"
             height="11.7"
             id="rect4709" /></g><rect
           x="65.400002"
           y="561.20001"
           transform="matrix(0.8126,-0.5829,0.5829,0.8126,-315.0098,144.4183)"
           style="fill:#3b3e43"
           width="3.3"
           height="1.7"
           id="rect4711" /></g><g
         id="g4713"><g
           id="g4715"><rect
             x="31"
             y="594.29999"
             transform="matrix(0.7477,-0.6641,0.6641,0.7477,-390.4858,172.6841)"
             style="fill:#2d3035"
             width="2"
             height="11.7"
             id="rect4717" /></g><rect
           x="26.5"
           y="595.09998"
           transform="matrix(0.747,-0.6648,0.6648,0.747,-389.0442,169.5036)"
           style="fill:#3b3e43"
           width="3.3"
           height="1.7"
           id="rect4719" /></g></g><path
       style="fill:#82b3aa"
       d="m 183,296.1 c 0,-1.4 -0.1,-2.8 -0.3,-4.2 -2.2,-14.7 -15.9,-24.7 -30.6,-22.5 -13,2 -22.4,13 -22.8,25.7 -1,0 -2.1,0 -3.1,0.2 -8,1.2 -14,7.5 -15.2,15.1 -3.4,-6.9 -11,-11.1 -19,-9.9 -9.9,1.5 -16.8,10.8 -15.3,20.7 0.3,1.9 0.9,3.8 1.7,5.4 -7.7,3.1 -12.6,11.1 -11.3,19.7 1.5,9.9 10.8,16.8 20.7,15.3 3.7,-0.6 6.9,-2.2 9.5,-4.5 5.6,8.5 15.8,13.5 26.5,11.8 10.1,-1.5 18,-8.5 21.2,-17.4 4.5,4.3 11,6.6 17.7,5.6 11.5,-1.7 19.3,-12.4 17.6,-23.9 0,-0.3 -0.1,-0.6 -0.2,-1 1.9,0.3 3.9,0.4 5.9,0.1 9.9,-1.5 16.8,-10.8 15.3,-20.7 C 200,302.4 192,295.9 183,296.1 z m -37.4,24.5 c 0,0 0,0 0,0 0,0.1 0,0.1 0,0 0,0.1 0,0.1 0,0 z"
       id="path4721"
       inkscape:connector-curvature="0" /><path
       style="fill:#82b3aa"
       d="m 458.2,108 c 0.2,-1 0.4,-1.9 0.5,-2.9 1,-10.5 -6.7,-19.9 -17.2,-20.9 -9.3,-0.9 -17.7,5.1 -20.2,13.8 -0.7,-0.2 -1.4,-0.3 -2.2,-0.4 -5.7,-0.6 -11,2.7 -13.2,7.8 -1.2,-5.4 -5.7,-9.6 -11.4,-10.1 -7.1,-0.7 -13.5,4.5 -14.2,11.7 -0.1,1.4 0,2.8 0.2,4.1 -5.9,0.8 -10.6,5.5 -11.2,11.6 -0.7,7.1 4.5,13.5 11.7,14.2 2.6,0.3 5.1,-0.3 7.3,-1.4 2.4,6.9 8.6,12.1 16.2,12.8 7.2,0.7 13.9,-2.7 17.7,-8.3 2.4,3.8 6.4,6.5 11.2,6.9 8.2,0.8 15.5,-5.2 16.3,-13.4 0,-0.2 0,-0.5 0.1,-0.7 1.3,0.6 2.6,0.9 4.1,1.1 7.1,0.7 13.5,-4.5 14.2,-11.7 0.7,-6.8 -3.7,-12.7 -9.9,-14.2 z M 428,118.5 c 0,0 0,0 0,0 0,0 0,0 0,0 0,0 0,0 0,0 z"
       id="path4723"
       inkscape:connector-curvature="0" /><path
       style="fill:#82b3aa"
       d="m 588,273 c 0.7,-1.1 1.3,-2.2 1.9,-3.5 5.7,-12.7 0,-27.7 -12.7,-33.4 -11.3,-5.1 -24.3,-1.2 -31.1,8.7 -0.8,-0.5 -1.7,-1 -2.6,-1.4 -7,-3.1 -14.9,-1.2 -19.7,4.2 0.8,-7.2 -3.1,-14.4 -10,-17.5 -8.6,-3.9 -18.8,0 -22.7,8.6 -0.8,1.7 -1.2,3.4 -1.4,5.2 -7.7,-1.5 -15.6,2.4 -18.9,9.8 -3.9,8.6 0,18.8 8.6,22.7 3.2,1.4 6.6,1.8 9.8,1.3 0.1,9.6 5.6,18.7 14.9,22.9 8.8,3.9 18.6,2.5 25.7,-3 1.4,5.8 5.3,10.8 11.1,13.4 10,4.5 21.7,0 26.1,-9.9 0.1,-0.3 0.2,-0.6 0.4,-0.8 1.3,1.2 2.9,2.3 4.7,3.1 8.6,3.9 18.8,0 22.7,-8.6 3.4,-8.1 0.4,-17.3 -6.8,-21.8 z m -42.1,0.4 c 0,0 0,0 0,0 -0.1,0 -0.1,0 0,0 -0.1,0 -0.1,0 0,0 z"
       id="path4725"
       inkscape:connector-curvature="0" /><path
       style="fill:#82b3aa"
       d="m 735,260.9 c 0.5,-0.8 1,-1.7 1.4,-2.6 4.3,-9.5 0,-20.6 -9.5,-24.9 -8.4,-3.8 -18.1,-0.9 -23.2,6.5 -0.6,-0.4 -1.2,-0.8 -1.9,-1.1 -5.2,-2.3 -11.1,-0.9 -14.7,3.1 0.6,-5.4 -2.3,-10.7 -7.5,-13 -6.4,-2.9 -14,0 -16.9,6.4 -0.6,1.3 -0.9,2.6 -1,3.9 -5.7,-1.1 -11.6,1.8 -14.1,7.3 -2.9,6.4 0,14 6.4,16.9 2.4,1.1 4.9,1.3 7.3,1 0.1,7.1 4.2,13.9 11.1,17 6.5,2.9 13.8,1.8 19.1,-2.2 1,4.3 4,8.1 8.3,10 7.4,3.3 16.1,0 19.5,-7.4 0.1,-0.2 0.2,-0.4 0.3,-0.6 1,0.9 2.2,1.7 3.5,2.3 6.4,2.9 14,0 16.9,-6.4 2.6,-6.1 0.4,-12.9 -5,-16.2 z m -31.3,0.2 c 0,0 0,0 0,0 -0.1,0 -0.1,0 0,0 -0.1,0 -0.1,0 0,0 z"
       id="path4727"
       inkscape:connector-curvature="0" /><path
       style="fill:#82b3aa"
       d="m 687.1,131.4 c 0.4,-0.6 0.7,-1.2 1,-1.8 3,-6.7 0,-14.5 -6.7,-17.5 -5.9,-2.7 -12.8,-0.6 -16.4,4.6 -0.4,-0.3 -0.9,-0.5 -1.3,-0.8 -3.7,-1.6 -7.8,-0.6 -10.4,2.2 0.4,-3.8 -1.6,-7.6 -5.3,-9.2 -4.5,-2 -9.9,0 -11.9,4.5 -0.4,0.9 -0.6,1.8 -0.7,2.7 -4,-0.8 -8.2,1.3 -9.9,5.1 -2,4.5 0,9.9 4.5,11.9 1.7,0.7 3.5,0.9 5.1,0.7 0,5 3,9.8 7.8,12 4.6,2.1 9.8,1.3 13.5,-1.6 0.7,3 2.8,5.7 5.8,7.1 5.2,2.3 11.4,0 13.7,-5.2 0.1,-0.1 0.1,-0.3 0.2,-0.4 0.7,0.7 1.5,1.2 2.4,1.6 4.5,2 9.9,0 11.9,-4.5 2.1,-4.2 0.5,-9.1 -3.3,-11.4 z"
       id="path4729"
       inkscape:connector-curvature="0" /><path
       style="fill:#82b3aa"
       d="m 161.9,70 c 0.1,-0.7 0.1,-1.4 0.1,-2.1 -0.3,-7.3 -6.4,-13.1 -13.7,-12.8 -6.5,0.2 -11.7,5.1 -12.7,11.3 -0.5,-0.1 -1,-0.1 -1.5,-0.1 -4,0.1 -7.3,2.9 -8.3,6.5 -1.3,-3.6 -4.8,-6.1 -8.8,-5.9 -5,0.2 -8.9,4.3 -8.7,9.3 0,1 0.2,1.9 0.5,2.8 -4,1.1 -6.8,4.7 -6.7,9 0.2,5 4.3,8.9 9.3,8.7 1.8,-0.1 3.5,-0.7 4.9,-1.7 2.3,4.5 7,7.5 12.3,7.3 5,-0.2 9.3,-3.1 11.4,-7.3 2,2.4 5,3.9 8.4,3.8 5.7,-0.2 10.2,-5 10,-10.7 0,-0.2 0,-0.3 0,-0.5 0.9,0.3 1.9,0.4 2.9,0.4 5,-0.2 8.9,-4.3 8.7,-9.3 -0.1,-4.6 -3.7,-8.2 -8.1,-8.7 z m -19.8,9.9 c 0,0 0,0 0,0 0,0.1 0,0.1 0,0 0,0.1 0,0.1 0,0 z"
       id="path4731"
       inkscape:connector-curvature="0" /><g
       id="g4733"><path
         style="fill:#272a2f"
         d="m 287.3,232.2 c -7.3,-7.8 -33.3,-4.8 -39.2,4.3 3.6,1.3 5,3.9 8.5,3.7 11.8,-0.6 19.4,-3.8 30.7,-8 z"
         id="path4735"
         inkscape:connector-curvature="0" /><g
         id="g4737"><polygon
           style="fill:#ce8b2d"
           points="257.4,209.6 250.5,237.8 247.6,238.2 254.5,209.9 "
           id="polygon4739" /><polygon
           style="fill:#ce8b2d"
           points="276.3,207.3 287.4,232.9 284.5,233.3 273.4,207.7 "
           id="polygon4741" /><path
           style="fill:#d46a56"
           d="m 303,150.8 c 3.5,29.7 -22.1,64.2 -37.9,66 -15.8,1.8 -47.9,-25.9 -51.4,-55.5 -3.5,-29.7 15,-45.2 39.6,-48.1 24.7,-2.8 46.2,8 49.7,37.6 z"
           id="path4743"
           inkscape:connector-curvature="0" /><g
           id="g4745"><defs
             id="defs4747"><path
               id="SVGID_3_"
               d="m 303,150.8 c 3.5,29.7 -22.1,64.2 -37.9,66 -15.8,1.8 -47.9,-25.9 -51.4,-55.5 -3.5,-29.7 15,-45.2 39.6,-48.1 24.7,-2.8 46.2,8 49.7,37.6 z"
               inkscape:connector-curvature="0" /></defs><clipPath
             id="SVGID_4_"><use
               xlink:href="#SVGID_3_"
               style="overflow:visible"
               id="use4751"
               x="0"
               y="0"
               width="800"
               height="800" /></clipPath><path
             style="fill:#fdbe31"
             d="m 265.4,219.5 c -0.2,-0.4 -0.4,-1 -0.6,-1.6 -0.2,-0.6 -0.5,-1.3 -0.9,-2.1 -0.6,-1.6 -1.5,-3.5 -2.4,-5.6 -0.9,-2.2 -2,-4.5 -3,-7.1 -0.3,-0.6 -0.6,-1.3 -0.8,-2 -0.3,-0.7 -0.6,-1.4 -0.8,-2 -0.3,-0.7 -0.6,-1.4 -0.9,-2.1 -0.3,-0.7 -0.6,-1.4 -0.9,-2.2 -0.3,-0.7 -0.6,-1.5 -0.9,-2.2 -0.3,-0.8 -0.6,-1.5 -0.9,-2.3 -0.6,-1.5 -1.1,-3.1 -1.7,-4.6 -0.3,-0.8 -0.5,-1.6 -0.8,-2.4 -0.3,-0.8 -0.6,-1.6 -0.8,-2.4 -0.2,-0.8 -0.5,-1.6 -0.8,-2.4 -0.3,-0.8 -0.5,-1.6 -0.7,-2.5 -0.2,-0.8 -0.5,-1.6 -0.7,-2.5 -0.2,-0.8 -0.4,-1.7 -0.6,-2.5 -0.2,-0.8 -0.4,-1.7 -0.6,-2.5 -0.1,-0.4 -0.2,-0.8 -0.3,-1.3 L 246,166 c -0.4,-1.7 -0.6,-3.4 -0.9,-5.1 -0.1,-0.8 -0.2,-1.7 -0.3,-2.5 -0.1,-0.8 -0.2,-1.7 -0.3,-2.5 0,-0.4 -0.1,-0.8 -0.1,-1.3 0,-0.4 -0.1,-0.8 -0.1,-1.3 0,-0.4 -0.1,-0.8 -0.1,-1.3 0,-0.4 -0.1,-0.8 -0.1,-1.2 0,-0.8 -0.1,-1.7 -0.1,-2.5 0,-0.8 0,-1.6 -0.1,-2.5 -0.1,-3.3 0,-6.5 0.2,-9.5 0.2,-3.1 0.4,-6 0.7,-8.7 0.2,-1.4 0.3,-2.7 0.5,-4 0.2,-1.3 0.3,-2.5 0.5,-3.6 0.3,-2.3 0.6,-4.3 0.9,-6 0.1,-0.8 0.2,-1.6 0.3,-2.2 0.1,-0.7 0.2,-1.2 0.3,-1.7 0.1,-0.9 0.2,-1.4 0.2,-1.4 0,0 -0.4,0.4 -1,1 -0.3,0.3 -0.7,0.8 -1.2,1.3 -0.5,0.5 -1,1.1 -1.5,1.8 -0.6,0.7 -1.1,1.5 -1.8,2.3 -0.7,0.8 -1.3,1.8 -2,2.8 -0.3,0.5 -0.7,1 -1,1.6 -0.3,0.6 -0.7,1.1 -1,1.7 -0.4,0.6 -0.7,1.2 -1,1.9 -0.3,0.6 -0.7,1.3 -1,2 -1.4,2.7 -2.6,5.8 -3.7,9.1 -1.1,3.3 -2,7 -2.6,10.8 -0.6,3.8 -0.8,7.8 -0.8,11.9 0,2 0.2,4.1 0.4,6.1 0.1,1 0.3,2 0.4,3.1 l 0.1,0.8 0.1,0.8 0.3,1.5 0.3,1.5 c 0.1,0.5 0.2,1 0.4,1.5 0.2,1 0.5,2 0.8,3 0.6,2 1.2,3.9 1.9,5.8 0.4,0.9 0.7,1.9 1.1,2.8 0.4,0.9 0.8,1.8 1.2,2.7 0.4,0.9 0.9,1.8 1.3,2.6 0.4,0.9 0.9,1.7 1.3,2.5 0.5,0.8 0.9,1.6 1.4,2.4 0.5,0.8 1,1.6 1.5,2.3 0.5,0.8 1,1.5 1.5,2.2 0.5,0.7 1,1.4 1.5,2.1 0.5,0.7 1,1.4 1.5,2 0.5,0.6 1.1,1.3 1.6,1.9 0.5,0.6 1,1.2 1.5,1.8 0.5,0.6 1,1.1 1.6,1.7 2,2.2 4.1,4.1 5.9,5.7 0.4,0.4 0.9,0.8 1.3,1.1 0.4,0.4 0.9,0.7 1.3,1 0.8,0.7 1.6,1.3 2.3,1.8 0.7,0.5 1.4,1 1.9,1.3 0.6,0.4 1,0.7 1.4,1 0.8,0.5 1.2,0.8 1.2,0.8 0,0 -0.1,-0.3 -0.5,-1.2 z"
             id="path4753"
             clip-path="url(#SVGID_4_)"
             inkscape:connector-curvature="0" /><path
             style="fill:#fdbe31"
             d="m 266.6,218.7 c 0.1,-0.5 0.1,-1 0.3,-1.7 0.1,-0.7 0.2,-1.4 0.4,-2.2 0.3,-1.7 0.6,-3.7 1.1,-6 0.4,-2.3 0.9,-4.8 1.4,-7.6 0.1,-0.7 0.3,-1.4 0.4,-2.1 0.1,-0.7 0.2,-1.4 0.4,-2.2 0.1,-0.7 0.3,-1.5 0.4,-2.2 0.1,-0.8 0.2,-1.5 0.3,-2.3 0.1,-0.8 0.3,-1.6 0.4,-2.3 0.1,-0.8 0.2,-1.6 0.3,-2.4 0.2,-1.6 0.4,-3.2 0.6,-4.9 0.1,-0.8 0.2,-1.7 0.3,-2.5 0.1,-0.8 0.2,-1.7 0.2,-2.5 0.1,-0.8 0.1,-1.7 0.2,-2.5 0.1,-0.8 0.1,-1.7 0.1,-2.6 0,-0.9 0.1,-1.7 0.1,-2.6 0,-0.9 0,-1.7 0.1,-2.6 0,-0.9 0,-1.7 0,-2.6 0,-0.4 0,-0.9 0,-1.3 l -0.1,-1.3 c 0,-1.7 -0.2,-3.4 -0.3,-5.1 -0.1,-0.8 -0.2,-1.7 -0.2,-2.5 -0.1,-0.8 -0.2,-1.7 -0.3,-2.5 0,-0.4 -0.1,-0.8 -0.2,-1.3 -0.1,-0.4 -0.1,-0.8 -0.2,-1.2 -0.1,-0.4 -0.1,-0.8 -0.2,-1.2 -0.1,-0.4 -0.1,-0.8 -0.2,-1.2 -0.1,-0.8 -0.3,-1.6 -0.4,-2.4 -0.2,-0.8 -0.3,-1.6 -0.5,-2.4 -0.7,-3.2 -1.5,-6.2 -2.4,-9.2 -0.9,-2.9 -1.8,-5.7 -2.8,-8.3 -0.5,-1.3 -0.9,-2.5 -1.4,-3.7 -0.5,-1.2 -0.9,-2.3 -1.3,-3.4 -0.8,-2.1 -1.6,-4 -2.3,-5.6 -0.3,-0.8 -0.6,-1.5 -0.8,-2.1 -0.3,-0.6 -0.5,-1.1 -0.6,-1.6 -0.3,-0.9 -0.5,-1.3 -0.5,-1.3 0,0 0.4,0.3 1.2,0.8 0.4,0.3 0.9,0.6 1.5,1 0.6,0.4 1.2,0.9 1.9,1.4 0.7,0.5 1.5,1.1 2.3,1.8 0.8,0.7 1.7,1.4 2.6,2.3 0.5,0.4 0.9,0.8 1.4,1.3 0.5,0.5 0.9,0.9 1.4,1.4 0.5,0.5 1,1 1.4,1.6 0.5,0.5 1,1.1 1.5,1.7 2,2.3 3.9,5 5.8,7.9 1.8,3 3.5,6.3 5,9.9 1.5,3.6 2.6,7.4 3.5,11.4 0.4,2 0.7,4 1,6 0.1,1 0.2,2 0.3,3.1 l 0.1,0.8 0,0.8 0.1,1.5 0.1,1.5 c 0,0.5 0,1 0,1.5 0,1 0,2 -0.1,3.1 -0.1,2 -0.3,4.1 -0.6,6.1 -0.1,1 -0.2,2 -0.4,3 -0.2,1 -0.4,1.9 -0.6,2.9 -0.2,1 -0.4,1.9 -0.7,2.8 -0.2,0.9 -0.5,1.9 -0.7,2.8 -0.3,0.9 -0.5,1.8 -0.8,2.7 -0.3,0.9 -0.6,1.8 -0.9,2.6 -0.3,0.9 -0.6,1.7 -0.9,2.5 -0.3,0.8 -0.7,1.6 -1,2.4 -0.4,0.8 -0.7,1.6 -1,2.3 -0.4,0.8 -0.7,1.5 -1.1,2.2 -0.4,0.7 -0.7,1.4 -1.1,2.1 -0.4,0.7 -0.8,1.3 -1.1,2 -1.5,2.6 -3,4.9 -4.4,6.9 -0.3,0.5 -0.7,1 -1.1,1.4 -0.3,0.5 -0.7,0.9 -1,1.3 -0.7,0.8 -1.2,1.6 -1.8,2.2 -0.6,0.7 -1.1,1.2 -1.6,1.7 -0.5,0.5 -0.9,0.9 -1.2,1.3 -0.7,0.7 -1,1 -1,1 0,0 -0.4,-0.7 -0.3,-1.6 z"
             id="path4755"
             clip-path="url(#SVGID_4_)"
             inkscape:connector-curvature="0" /></g></g><path
         style="fill:#3b3e43"
         d="m 255.5,238.5 c -3.6,0.2 -3.9,-0.8 -7.5,-2.1 -0.7,1.1 -1,2.3 -0.9,3.5 1.5,12.7 1.5,23.1 23.5,20.6 22,-2.6 19.6,-12.7 18.1,-25.4 -0.1,-1.1 -0.6,-2.1 -1.4,-2.9 -11.3,4.2 -20,5.8 -31.8,6.3 z"
         id="path4757"
         inkscape:connector-curvature="0" /></g><g
       id="g4759"><path
         style="fill:#aaa84b"
         d="m 109.7,530.7 c -3.5,2 -8.4,1.2 -11.5,-0.1 -1.9,-0.8 -3.4,-1.9 -4.5,-3.4 -0.3,-0.4 -1.5,-1.5 -0.8,-2.1 0.4,-0.3 1.9,0.2 2.5,0.1 -0.2,-2.1 -2.7,-3.3 -3.5,-5.2 -0.6,-1.4 -1.2,-4.9 -0.4,-6.4 0.4,0.4 0.8,1 1.3,1.4 0.7,-1.6 -0.9,-4.2 -1,-5.9 -0.1,-1.9 -0.2,-6.1 1,-7.9 2.6,-4 9.3,3.1 11.5,4.1 0.8,-1.1 -0.3,-2.2 -0.7,-3.2 1.5,-0.8 4.6,1.9 5.5,2.9 1,1.1 2.5,5.1 3.6,5.5 0,-0.4 0.4,-0.9 0.2,-1.4 5.2,0.3 6.8,7.1 6,11 -0.9,4.6 -3.8,8.2 -8.5,10.5 l -0.7,0.1 z"
         id="path4761"
         inkscape:connector-curvature="0" /><path
         style="fill:#5c4130"
         d="m 110.7,531.3 c 1.6,1.3 1.9,4.5 2.6,6.4 0.7,1.9 1.2,4 2.2,5.7 1.7,-0.6 3.3,-2 4.9,-2.8 -2.6,-2.2 -3.9,-5.2 -5.7,-7.9 -0.4,-0.6 -1.2,-1.3 -1.3,-2 -0.1,-0.9 0.7,-1.5 1,-2.4 0.4,-1.2 0.8,-3.5 0,-4.4 -0.7,0.6 -0.6,1.9 -1.2,2.4 -1.2,0.8 -1.1,-1.1 -1.2,-1.8 -0.2,-1.2 -0.3,-4.4 -1.9,-4.6 -0.6,1.1 0.2,2.8 0.4,3.9 -0.5,-0.2 -0.8,-0.8 -1.5,-0.8 -0.3,0.6 4.2,5.1 0.9,5.5 -2.1,0.2 -4.3,-4.2 -6.5,-2.6 0.3,0.6 1,0.3 1.2,1.1 -0.5,0.1 -1,0.5 -1.5,0.7 0.4,0.7 0.9,0.1 1.6,0.2 0.7,0.1 1.2,0.4 1.8,0.7 1,0.5 2.4,1.2 2.8,2.2 -1.3,0.9 -3.3,-0.2 -4.8,0.5 0.6,2 4.7,0.3 6.2,0 l 0,0 z"
         id="path4763"
         inkscape:connector-curvature="0" /></g><g
       id="g4765"><defs
         id="defs4767"><rect
           id="SVGID_5_"
           y="47"
           width="800"
           height="762"
           x="0" /></defs><clipPath
         id="SVGID_6_"><use
           xlink:href="#SVGID_5_"
           style="overflow:visible"
           id="use4771"
           x="0"
           y="0"
           width="800"
           height="800" /></clipPath><g
         id="g4773"
         clip-path="url(#SVGID_6_)"><path
           style="fill:none;stroke:#3b3e43;stroke-width:45;stroke-miterlimit:10"
           d="m -73.9,900.8 c 0,-227.4 208.2,-411.7 465,-411.7 256.8,0 465,184.3 465,411.7"
           id="path4775"
           inkscape:connector-curvature="0" /><path
           style="fill:none;stroke:#3b3e43;stroke-width:45;stroke-miterlimit:10"
           d="M -73.9,900.8"
           id="path4777"
           inkscape:connector-curvature="0" /><g
           id="g4779"><path
             style="fill:none;stroke:#f6e0c2;stroke-width:6;stroke-miterlimit:10;stroke-dasharray:10.0175"
             d="m -73.9,900.8 c 0,-3.3 0,-6.7 0.1,-10"
             id="path4781"
             inkscape:connector-curvature="0" /></g><g
           id="g4783"><path
             style="fill:none"
             d="M -73.9,900.8"
             id="path4785"
             inkscape:connector-curvature="0" /></g><g
           id="g4787"><g
             id="g4789"><path
               style="fill:none;stroke:#f6e0c2;stroke-width:6;stroke-miterlimit:10"
               d="m -73.8,890.8 c 0.1,-2.2 0.1,-4.3 0.2,-6.5"
               id="path4791"
               inkscape:connector-curvature="0" /><path
               style="fill:none;stroke:#f6e0c2;stroke-width:6;stroke-miterlimit:10;stroke-dasharray:12.9092, 12.9092"
               d="m -72.7,871.4 c 17,-213.7 218.2,-382.3 463.8,-382.3 251.9,0 457,177.4 464.8,398.8"
               id="path4793"
               inkscape:connector-curvature="0" /><path
               style="fill:none;stroke:#f6e0c2;stroke-width:6;stroke-miterlimit:10"
               d="m 856,894.3 c 0,2.2 0.1,4.3 0.1,6.5"
               id="path4795"
               inkscape:connector-curvature="0" /></g></g></g></g></g><text
     xml:space="preserve"
     style="font-size:40px;font-style:normal;font-variant:normal;font-weight:300;font-stretch:normal;text-align:center;line-height:129.99999523%;letter-spacing:0px;word-spacing:0px;writing-mode:lr-tb;text-anchor:middle;fill:#000000;fill-opacity:1;stroke:none;font-family:Raleway;-inkscape-font-specification:Raleway Light"
     x="395.79309"
     y="572.19482"
     id="text3921"
     sodipodi:linespacing="130%"><tspan
       sodipodi:role="line"
       id="tspan3937"
       style="font-size:40px;font-style:normal;font-variant:normal;font-weight:300;font-stretch:normal;text-align:center;line-height:129.99999523%;writing-mode:lr-tb;text-anchor:middle;font-family:Raleway;-inkscape-font-specification:Raleway Light"
       x="395.79309"
       y="572.19482">Thank you for contacting.</tspan><tspan
       sodipodi:role="line"
       id="tspan3939"
       style="font-size:40px;font-style:normal;font-variant:normal;font-weight:300;font-stretch:normal;text-align:center;line-height:129.99999523%;writing-mode:lr-tb;text-anchor:middle;font-family:Raleway;-inkscape-font-specification:Raleway Light"
       x="395.79309"
       y="624.19482">We will contact as soon as</tspan><tspan
       sodipodi:role="line"
       id="tspan3941"
       style="font-size:40px;font-style:normal;font-variant:normal;font-weight:300;font-stretch:normal;text-align:center;line-height:129.99999523%;writing-mode:lr-tb;text-anchor:middle;font-family:Raleway;-inkscape-font-specification:Raleway Light"
       x="395.79309"
       y="676.19482">possible.</tspan><tspan
       sodipodi:role="line"
       id="tspan3943"
       x="395.79309"
       y="676.19482"><tspan
         style="font-size:40px;font-style:normal;font-variant:normal;font-weight:300;font-stretch:normal;text-align:center;line-height:129.99999523%;writing-mode:lr-tb;text-anchor:middle;font-family:Raleway;-inkscape-font-specification:Raleway Light"
         id="tspan3945" /></tspan></text>
</svg>