<?xml version="1.0" encoding="UTF-8" standalone="no"?>
<!-- Created with Inkscape (http://www.inkscape.org/) -->

<svg
   xmlns:dc="http://purl.org/dc/elements/1.1/"
   xmlns:cc="http://creativecommons.org/ns#"
   xmlns:rdf="http://www.w3.org/1999/02/22-rdf-syntax-ns#"
   xmlns:svg="http://www.w3.org/2000/svg"
   xmlns="http://www.w3.org/2000/svg"
   version="1.1"
   width="35"
   height="35"
   viewBox="0 0 35 35"
   id="Capa_1"
   xml:space="preserve"><metadata
     id="metadata41"><rdf:RDF><cc:Work
         rdf:about=""><dc:format>image/svg+xml</dc:format><dc:type
           rdf:resource="http://purl.org/dc/dcmitype/StillImage" /><dc:title></dc:title></cc:Work></rdf:RDF></metadata><defs
     id="defs39" /><g
     id="g3"
     style="fill:#ffffff"><path
       d="m 31.021,22.111 c -1.242,0.562 -2.353,0.85 -3.354,0.939 v -4.287 c 1.554,-0.408 2.774,-1.79 2.881,-3.44 l 0.216,-3.4 C 30.826,10.953 30.501,10.036 29.849,9.342 29.274,8.729 28.505,8.376 27.665,8.298 V 2.364 C 27.665,1.064 26.603,0 25.302,0 H 9.698 C 8.398,0 7.335,1.064 7.335,2.364 V 8.298 C 6.496,8.376 5.727,8.729 5.152,9.342 4.5,10.036 4.175,10.953 4.237,11.923 l 0.216,3.4 c 0.105,1.651 1.327,3.032 2.881,3.44 V 23.05 C 6.332,22.959 5.221,22.674 3.979,22.111 c 1.142,1.037 2.267,1.798 3.355,2.345 v 8.181 C 7.334,33.938 8.397,35 9.697,35 h 15.604 c 1.301,0 2.363,-1.062 2.363,-2.363 v -8.181 c 1.09,-0.547 2.215,-1.308 3.357,-2.345 z M 12.733,18.9 c 1.977,0 3.688,-1.604 3.813,-3.577 l 0.135,-2.126 h 1.638 l 0.135,2.126 c 0.127,1.973 1.838,3.577 3.813,3.577 h 3.753 v 4.127 c -4.329,-0.536 -6.328,-4.646 -8.521,-2.772 -2.192,-1.873 -4.191,2.236 -8.521,2.772 V 18.9 h 3.755 z m 16.752,-7.058 -0.217,3.4 c -0.083,1.311 -1.221,2.378 -2.535,2.378 h -4.465 c -1.314,0 -2.451,-1.067 -2.535,-2.378 l -0.216,-3.4 c -0.039,-0.613 0.163,-1.189 0.569,-1.624 0.408,-0.433 0.971,-0.673 1.584,-0.673 h 5.66 c 0.614,0 1.176,0.24 1.584,0.673 0.408,0.434 0.61,1.011 0.571,1.624 z M 15.005,1.704 h 4.992 c 0.158,0 0.287,0.128 0.287,0.286 0,0.158 -0.129,0.287 -0.287,0.287 h -4.992 c -0.158,0 -0.286,-0.129 -0.286,-0.287 0,-0.158 0.128,-0.286 0.286,-0.286 z M 26.022,3.75 v 4.516 h -4.35 c -0.973,0 -1.867,0.381 -2.519,1.076 -0.582,0.62 -0.886,1.422 -0.903,2.275 H 16.752 C 16.734,10.763 16.43,9.962 15.848,9.342 15.197,8.647 14.302,8.266 13.33,8.266 H 8.98 V 3.75 H 26.022 z M 5.733,15.242 5.517,11.842 C 5.478,11.229 5.68,10.653 6.087,10.218 6.494,9.785 7.057,9.545 7.671,9.545 h 5.659 c 0.615,0 1.177,0.24 1.584,0.673 0.407,0.435 0.609,1.011 0.57,1.624 l -0.217,3.4 c -0.083,1.311 -1.221,2.378 -2.535,2.378 H 8.267 c -1.312,0 -2.45,-1.067 -2.534,-2.378 z m 11.768,18.576 c -0.653,0 -1.183,-0.529 -1.183,-1.184 0,-0.655 0.529,-1.182 1.183,-1.182 0.654,0 1.183,0.527 1.183,1.182 0,0.655 -0.53,1.184 -1.183,1.184 z m 8.521,-3.193 H 8.981 v -5.5 c 3.811,1.221 6.988,-0.126 8.521,-1.624 1.532,1.498 4.709,2.845 8.521,1.624 l -0.001,5.5 0,0 z"
       id="path5"
       style="fill:#ffffff" /></g><g
     id="g7" /><g
     id="g9" /><g
     id="g11" /><g
     id="g13" /><g
     id="g15" /><g
     id="g17" /><g
     id="g19" /><g
     id="g21" /><g
     id="g23" /><g
     id="g25" /><g
     id="g27" /><g
     id="g29" /><g
     id="g31" /><g
     id="g33" /><g
     id="g35" /></svg>