<?xml version="1.0" encoding="UTF-8" standalone="no"?>
<!-- Created with Inkscape (http://www.inkscape.org/) -->

<svg
   xmlns:dc="http://purl.org/dc/elements/1.1/"
   xmlns:cc="http://creativecommons.org/ns#"
   xmlns:rdf="http://www.w3.org/1999/02/22-rdf-syntax-ns#"
   xmlns:svg="http://www.w3.org/2000/svg"
   xmlns="http://www.w3.org/2000/svg"
   version="1.1"
   width="100%"
   height="100%"
   viewBox="0 0 470.424 470.424"
   id="Capa_1"
   xml:space="preserve"><metadata
     id="metadata49"><rdf:RDF><cc:Work
         rdf:about=""><dc:format>image/svg+xml</dc:format><dc:type
           rdf:resource="http://purl.org/dc/dcmitype/StillImage" /><dc:title></dc:title></cc:Work></rdf:RDF></metadata><defs
     id="defs47" /><g
     id="g3"
     style="fill:#ffffff"><path
       d="m 447.023,84.672 c -49.74,49.679 -39.366,48.716 -79.121,8.945 -5.933,-5.932 -5.887,-15.374 -0.016,-21.26 L 401.304,38.945 C 412.982,27.267 377.731,3.67 350.772,22.732 303.609,56.027 305.037,59.451 301.358,128.425 l -19.598,19.606 c 2.624,4.884 4.938,9.985 6.569,15.498 5.963,20.236 12.517,34.258 1.862,52.366 4.597,3.09 14.24,13.231 18.543,17.532 l 48.824,-48.816 c 69.26,-3.712 72.492,-2.492 105.678,-49.399 19.086,-27.029 -4.581,-62.195 -16.213,-50.54 z"
       id="path5"
       style="fill:#ffffff" /><path
       d="m 168.721,303.932 c 2.64,-16.126 15.312,-28.729 31.307,-31.338 2.656,-16.034 15.296,-28.707 31.354,-31.346 0.606,-3.696 1.832,-7.221 3.478,-10.551 -7.997,-4.567 -13.789,-11.065 -17.392,-19.42 l -102.075,102.073 0.512,0.512 -73.175,73.175 c -15.528,15.522 -15.528,40.663 0.016,56.193 15.514,15.53 40.655,15.522 56.186,0.008 l 61.931,-61.932 -12.873,-12.881 c -22.006,-22.02 -9.506,-59.578 20.731,-64.493 z M 73.882,432.757 c -28.233,0 -28.279,-42.737 0,-42.737 11.803,0 21.369,9.567 21.369,21.369 0,11.801 -9.567,21.368 -21.369,21.368 z"
       id="path7"
       style="fill:#ffffff" /><path
       d="m 278.932,228.016 c -8.619,6.265 -16.958,8.991 -28.295,7.757 -5.465,8.565 -4.845,19.878 2.641,27.371 -20.671,-20.678 -52.072,10.669 -31.354,31.338 -20.763,-20.724 -52.04,10.629 -31.354,31.354 -20.468,-20.546 -52.35,10.311 -31.338,31.346 L 212,409.951 c 20.671,20.632 52.056,-10.637 31.34,-31.354 20.622,20.616 52.302,-10.411 31.353,-31.346 4.333,4.333 10.017,6.493 15.686,6.493 19.566,0 29.661,-23.815 15.668,-37.837 20.468,20.538 52.35,-10.297 31.338,-31.346 -5.047,-5.049 -52.132,-53.315 -58.453,-56.545 z"
       id="path9"
       style="fill:#ffffff" /><path
       d="m 50.976,223.645 c -6.973,6.973 -6.973,18.31 0,25.281 l 49.834,49.826 C 228.4,171.171 208.32,191.235 222.328,177.242 c 1.164,1.438 2.158,3.029 2.718,4.907 5.202,17.65 7.919,38.079 29.909,38.079 6.601,0 12.982,-2.594 17.704,-7.323 12.921,-12.897 5.622,-27.215 0.42,-44.887 -8.589,-29.165 -35.78,-47.909 -65.736,-45.952 l -58.561,3.782 c -1.073,1.064 -96.734,96.717 -97.806,97.797 z"
       id="path11"
       style="fill:#ffffff" /><path
       d="m 107.55,136.819 c 15.172,-15.172 -3.246,-28.535 -18.232,-43.521 -6.973,-6.973 -18.31,-6.973 -25.281,0 L 5.242,152.101 c -6.989,6.979 -6.989,18.302 0,25.281 37.395,37.418 25.809,35.936 102.308,-40.563 z"
       id="path13"
       style="fill:#ffffff" /></g><g
     id="g15" /><g
     id="g17" /><g
     id="g19" /><g
     id="g21" /><g
     id="g23" /><g
     id="g25" /><g
     id="g27" /><g
     id="g29" /><g
     id="g31" /><g
     id="g33" /><g
     id="g35" /><g
     id="g37" /><g
     id="g39" /><g
     id="g41" /><g
     id="g43" /></svg>