<?xml version="1.0" encoding="UTF-8" standalone="no"?>
<!-- Created with Inkscape (http://www.inkscape.org/) -->

<svg
   xmlns:dc="http://purl.org/dc/elements/1.1/"
   xmlns:cc="http://creativecommons.org/ns#"
   xmlns:rdf="http://www.w3.org/1999/02/22-rdf-syntax-ns#"
   xmlns:svg="http://www.w3.org/2000/svg"
   xmlns="http://www.w3.org/2000/svg"
   version="1.1"
   width="31.354"
   height="31.354"
   viewBox="0 0 31.354 31.354"
   id="Capa_1"
   xml:space="preserve"><metadata
     id="metadata41"><rdf:RDF><cc:Work
         rdf:about=""><dc:format>image/svg+xml</dc:format><dc:type
           rdf:resource="http://purl.org/dc/dcmitype/StillImage" /><dc:title></dc:title></cc:Work></rdf:RDF></metadata><defs
     id="defs39" /><g
     id="g3"
     style="fill:#ffffff"><path
       d="m 18.414,18.612 8.738,-8.739 4.201,4.201 -8.738,8.739 -4.201,-4.201 z m -0.756,3.014 -0.646,2.59 2.588,-0.647 -1.942,-1.943 z m 5.148,2.443 1.911,-1.912 v 8.81 H 0 V 8.748 L 7.919,0.387 h 16.797 v 10.474 l -1.911,1.911 V 2.298 H 9.132 V 9.52 H 1.911 V 29.056 H 22.806 V 24.069 z M 3.712,7.609 H 7.221 V 3.903 L 3.712,7.609 z m 16.683,7.574 V 14.891 H 4.202 v 2.153 h 14.333 l 1.86,-1.861 z m -3.169,3.964 H 4.202 v 2.15 h 12.485 l 0.539,-2.15 z M 4.202,25.743 h 11.374 l 0.538,-2.151 H 4.202 v 2.151 z"
       id="path5"
       style="fill:#ffffff" /></g><g
     id="g7" /><g
     id="g9" /><g
     id="g11" /><g
     id="g13" /><g
     id="g15" /><g
     id="g17" /><g
     id="g19" /><g
     id="g21" /><g
     id="g23" /><g
     id="g25" /><g
     id="g27" /><g
     id="g29" /><g
     id="g31" /><g
     id="g33" /><g
     id="g35" /></svg>